<?xml version="1.0" encoding="utf-8"?>
<!-- Generator: Adobe Illustrator 22.0.0, SVG Export Plug-In . SVG Version: 6.00 Build 0)  -->
<svg version="1.1" id="Capa_1" xmlns="http://www.w3.org/2000/svg" xmlns:xlink="http://www.w3.org/1999/xlink" x="0px" y="0px"
	 viewBox="0 0 892.5 499.5" style="enable-background:new 0 0 892.5 499.5;" xml:space="preserve">
<style type="text/css">
	.st0{display:none;fill-rule:evenodd;clip-rule:evenodd;fill:#0056A7;}
	.st1{display:none;}
	.st2{display:inline;}
	.st3{fill:#2E3192;}
	.st4{fill:#8DC63F;}
	.st5{fill-rule:evenodd;clip-rule:evenodd;fill:#FFF200;}
</style>
<path class="st0" d="M557.7,222.9l0-1.3l-0.2-4.4l-0.9-4.1l-1.6-4.1l-1.6-4.1l-3.2-6.9l-1,0l-1-0.4l-2.4-0.8l-1-0.4l-1.4,0l-0.7,0.3
	l-0.7,1l-0.6-1.7l-1-1.7l-2.3-2.8l-2.6-2.5l-2.6-2.5l-1.4,0l-0.7,0l-0.4,0.7l-0.4,0.7l-0.4,1l-0.4,0.7l-0.7,0l-1.3-0.4l-2.7-0.8
	l-2.7-1.1l-2-1.1l-1.7-1.4l-1.3-1.4l-1-1.4l-1-1.7l-0.6-1.4l-0.3-1.7l0.1-2l0.1-3.7l0.8-4.1l0.9-3.3c-2.1-1.8-4.4-4.5-6.8-5.1
	c-0.1-1.2-0.3-2.4-0.7-3.6c-0.7-2.1-1.3-4.3-1.9-6.4c2.5,1.8,5.1,3.4,7.7,4.8l-0.2-0.3c0,0,0,0-0.1-0.1l0,0l0,0.1
	c0.5,0.6,0.9,1.2,1.5,1.7c0.7,1.1,1.4,2.1,2.2,3.2l1.1-3.4l1.1-4l0.8-4.4l-0.2-3.8l0.1-2l-0.6-2.1l-0.6-1.7l-1-1.7l-1.3-1.7
	l-1.6-1.8l2.1-0.6l2.1-0.6l5.5-1.2l0.4-1.7l0.4-1.7l0.7-1.3l1-0.6l1-0.6l1.4-0.3l1.7,0.4l1.7,0.7l0.1-3.1l0.1-2.7l-0.6-2.7l-0.6-2.4
	l-0.9-2.4l-1-1.7l-1.3-1.7l-1.7-1.1l-1.7-1.1l-2-0.7l-0.1,0c-1.4-0.1-2.9-0.3-4.3-0.5l-2.4,0.3l-2.4,0.6l-2.4,0.9l-2.8,1.3l0.5,4.4
	l-0.1,1.7l-0.4,1.4l-0.4,1l-0.7,1l-2.1,2.7l-3-1.5l-3-1.1l-3-0.4l-3-0.4l-3.1,0.2l-3.1,0.2l-2.7,0.6l-3.1,0.9l-5.5,2.6l-5.5,2.9
	l-6,3.2c2.8,0.8,5.2,1.6,5.2,2c-1.3-0.6-3.3-1.3-5.4-1.9l-3.9,2.1l0.5,4.4l0.9,4.1l1.3,3.4l1.6,3.1l3.5,6.2l1.9,3.1l1.6,3.1
	l-3.9,15.9l-2.3,7.4l-1.9,5.4c5.7,1.5,13.6,5.1,12.4,6.3c-2.4-0.3-4.3-1.6-6.5-2.3c-2.2-0.2-4.7-0.3-7-0.9l-2.5,5.9l-3.6,6.4
	l-3.6,5.7l-2.1,3l-2.5,2.3l-0.2,7l-6.8-0.3c-3.3-0.1-8.3,3.7-8.3,3.7l0.4,0.6c0,0,0,0,0,0c-0.3,0.7-0.5,1.5-0.6,2.3
	C433.6,228.1,557.7,222.9,557.7,222.9z M472.8,128.6L472.8,128.6c-2.4-0.5-1.7-1.4-0.3-0.7C470.2,128.4,473.8,128.2,472.8,128.6z
	 M556.4,217.3c-1.6-0.1-13.2-1.9-13.2-3.6C544.1,213.8,556.1,216.2,556.4,217.3z M514.3,185.2l0.7-0.3l0.7-0.3l1,0l0.3,1.4l0.6,1
	l1,0.7l1.3,0.7l2.4,0.8l2.3,1.1l-0.1,2l-0.1,1.7l-0.4,2.7l-0.4,2l0,1l0.6,1.4l3,1.5l3,0.8l3.4,1.1l1.4,0.4l1.3,0.7l-4.3,8.4
	l-4.3,7.6l-4.4-0.2l-0.7-0.2l-1.3-0.7l-2-1.4l-2.3-1.8l0.3-8.8l-0.1-8.5l-0.2-4.1l-0.6-3.4l-0.9-3.4l-1.6-3.1L514.3,185.2z
	 M504,156.9l-0.4,1.3l0.3,1.7l-0.1,3.4l0.3,1.7l-0.4,1.3l-0.4,1l-1,0.3l-1-0.4l-0.7-0.4l-1.3-1.4l-0.6-2.1l0.1-1.7l0.4-1.7l1.1-1.7
	l1.7-1l1-0.3L504,156.9z M503.4,125c-2.4-0.3-4.3-1.6-6.5-2.3c-3.8-0.3-8.5-0.5-11.2-3.1C483.2,114.6,505.4,123,503.4,125z
	 M479.1,136.8l-1,0l-1-0.4l-0.7-0.7l-0.3-1.4l1.7,0.1l1-0.3l1.4-0.6l1.4-0.3l0,1.4l-0.7,1.3l-0.7,0.7L479.1,136.8z M471.1,202.8
	c-0.1,0.4-0.4,0.8-0.7,1.2c-5.3-1.2-3.6-9.1-4.9-14.3C467.3,194.1,469.1,198.6,471.1,202.8z M464.9,218.7l-1-1.7l1.1-2l1.1-2
	l3.2-3.3l3.2-3.3l1.4-2l1.4-2l1.4-2.3l1.4-2.7l2.6-5.7l2.6-5.4l1.8-2.7l1.8-2.7l4.1,0.1l2.9,3.8l2.9,4.9l2.2,5.2l1.9,5.8l1.2,5.8
	l0.2,3.1l0.3,2.7l-0.1,3.1l-0.4,2.7l-0.6,2.2L464.9,218.7L464.9,218.7z"/>
<g class="st1">
	<g class="st2">
		<polygon class="st3" points="694.5,525.2 733.3,515.6 733.3,528.4 694.5,536.8 		"/>
		<polygon class="st3" points="740.8,514.7 740.8,527.7 815.9,526.2 815.9,513.1 		"/>
		<polygon class="st3" points="824.3,513.1 824.3,526.2 874.4,532.7 874.4,520.4 		"/>
		<polygon class="st3" points="692.3,538.2 694.5,542.3 694.5,612.2 693.4,614.5 705.2,614.5 703.4,612.2 702.7,541.6 706.4,536.8 
					"/>
		<polygon class="st3" points="729.9,529.1 734.8,534.3 734.8,611.9 732.4,615.6 746.2,615.6 744.4,611.5 743.5,534.8 749.6,529.1 
			739.8,527.7 		"/>
		<polygon class="st3" points="875.9,535.7 873.6,539.8 873.6,609.7 874.8,611.9 862.9,611.9 864.8,609.7 865.4,539.1 861.8,534.3 
					"/>
		<polygon class="st3" points="828.1,527.8 823.1,532.9 823.1,610.6 825.6,614.2 811.7,614.2 813.5,610.1 814.4,533.4 808.3,527.8 
			818.2,526.3 		"/>
		<path class="st3" d="M692.3,522l80.6-30.1c0,0,13.9-3.4,26.2,0l79.5,23.7l-4.1,4.8l-46.4-9.1l-12.1-0.7l-73.5,2.5l-10.9,1.1
			L692.3,522z"/>
		<rect x="772.9" y="481.7" class="st3" width="2" height="6.4"/>
		<rect x="779.5" y="480.3" class="st3" width="2" height="6.4"/>
		<rect x="788.4" y="480.3" class="st3" width="2" height="6.4"/>
		<rect x="795.2" y="481.7" class="st3" width="2" height="6.4"/>
		<path class="st3" d="M771.7,481.7l9.8-3.2h8.9l6.8,1.6c0,0-0.2-11.2-11.8-11.2S771.7,481.7,771.7,481.7z"/>
		<polygon class="st3" points="694.5,616.8 736.4,619.2 820.5,618 878.5,614.2 878.5,642.1 822.9,649 736.4,649 694.5,640.4 		"/>
		<polygon class="st3" points="689.6,615.6 689.6,639 633.6,641.8 633.6,622.3 633.6,619.9 652.4,619.2 652.1,622.7 657.2,623 
			657.9,620.3 673.9,619.2 673.3,615.6 		"/>
		<polygon class="st3" points="879.9,615.6 879.9,639 935.9,641.8 935.9,622.3 935.9,619.9 917.1,619.2 917.5,622.7 912.3,623 
			911.7,620.3 895.6,619.2 896.3,615.6 		"/>
	</g>
	<g class="st2">
		<path class="st4" d="M693.6,80.4h-10.4v-61H683l-10,61h-11l-9.8-61h-0.1v61h-10.4v-73h16.3l9.7,57.6h0.1l9.5-57.6h16.2V80.4z"/>
		<path class="st4" d="M721.5,81.9c-10.7,0-20.3-9-20.3-28.5s9.6-28.5,20.3-28.5c10.7,0,20.3,9,20.3,28.5S732.2,81.9,721.5,81.9z
			 M721.5,36.9c-8.1,0-9.5,9.6-9.5,16.5c0,6.9,1.5,16.5,9.5,16.5c8.1,0,9.5-9.6,9.5-16.5C731,46.5,729.5,36.9,721.5,36.9z"/>
		<path class="st4" d="M749,26.3h10v9.4h0.1c2.2-5.5,4.5-10.8,10.9-10.8c0.7,0,1.3,0.1,2,0.2v14.4c-0.9-0.2-2-0.2-3-0.2
			c-8.1,0-9.6,6.9-9.6,12.9v28.2H749V26.3z"/>
		<path class="st4" d="M810.2,69.9c0,6.4,1,7.8,2.3,8.4v2.1h-11.3c-0.6-2.5-0.7-3.4-1-6.4c-2.4,3.4-5.7,7.8-12.8,7.8
			c-6,0-12.1-4.6-12.1-15.8c0-10.6,4.9-16,11.6-17.3l9.4-1.9c1.6-0.3,3.7-1.2,3.7-4.3c0-6-4.2-6.3-6.9-6.3c-5.2,0-6.1,4.4-6.4,7.5
			h-10.1c1.2-16.6,9.6-18.9,17.7-18.9c5.6,0,15.8,2.3,15.8,15.7V69.9z M800,54.1c-1,1.1-2.8,2-7.1,2.9c-3.9,0.9-7.1,2.2-7.1,8.1
			c0,5,2.8,6.5,4.8,6.5c4.6,0,9.3-4.1,9.3-10.7V54.1z"/>
		<path class="st4" d="M840.8,80.4h-11l-14.2-54.1h11.6l8.2,39.9h0.1l8.4-39.9h11.1L840.8,80.4z"/>
		<path class="st4" d="M871.7,19.9h-10.4V6.7h10.4V19.9z M871.7,26.3v54.1h-10.4V26.3H871.7z"/>
		<path class="st4" d="M913.8,69.9c0,6.4,1,7.8,2.3,8.4v2.1h-11.3c-0.6-2.5-0.7-3.4-1-6.4c-2.4,3.4-5.7,7.8-12.8,7.8
			c-6,0-12.1-4.6-12.1-15.8c0-10.6,4.9-16,11.6-17.3l9.4-1.9c1.6-0.3,3.7-1.2,3.7-4.3c0-6-4.2-6.3-6.9-6.3c-5.2,0-6.1,4.4-6.4,7.5
			h-10.1c1.2-16.6,9.6-18.9,17.7-18.9c5.6,0,15.8,2.3,15.8,15.7V69.9z M903.6,54.1c-1,1.1-2.8,2-7.1,2.9c-3.9,0.9-7.1,2.2-7.1,8.1
			c0,5,2.8,6.5,4.8,6.5c4.6,0,9.3-4.1,9.3-10.7V54.1z"/>
		<path class="st4" d="M959,80.4h-10.4V47.6c0-4-0.1-10.7-6.8-10.7c-4.6,0-8.2,4.3-8.2,12.5v31h-10.4V26.3h10v7.9h0.1
			c1.4-3.3,4.4-9.4,11.9-9.4c7.8,0,13.8,6.2,13.8,18.1V80.4z"/>
		<path class="st4" d="M986.7,81.9c-10.7,0-20.3-9-20.3-28.5s9.6-28.5,20.3-28.5c10.7,0,20.3,9,20.3,28.5S997.3,81.9,986.7,81.9z
			 M986.7,36.9c-8.1,0-9.5,9.6-9.5,16.5c0,6.9,1.5,16.5,9.5,16.5c8.1,0,9.5-9.6,9.5-16.5C996.2,46.5,994.7,36.9,986.7,36.9z"/>
	</g>
	<g class="st2">
		<polygon class="st5" points="597.8,674.5 603.9,674.5 613,667.6 603.9,660.7 597.8,660.7 606.9,667.6 		"/>
		<polygon class="st5" points="613,674.5 619,674.5 628.1,667.6 619,660.7 613,660.7 622,667.6 		"/>
		<polygon class="st5" points="628.1,674.5 634.1,674.5 643.2,667.6 634.1,660.7 628.1,660.7 637.1,667.6 		"/>
		<polygon class="st5" points="643.2,674.5 649.2,674.5 658.3,667.6 649.2,660.7 643.2,660.7 652.3,667.6 		"/>
		<polygon class="st5" points="658.3,674.5 664.4,674.5 673.4,667.6 664.4,660.7 658.3,660.7 667.4,667.6 		"/>
		<polygon class="st5" points="673.4,674.5 679.5,674.5 688.6,667.6 679.5,660.7 673.4,660.7 682.5,667.6 		"/>
		<polygon class="st5" points="688.6,674.5 694.6,674.5 703.7,667.6 694.6,660.7 688.6,660.7 697.6,667.6 		"/>
		<polygon class="st5" points="703.7,674.5 709.7,674.5 718.8,667.6 709.7,660.7 703.7,660.7 712.8,667.6 		"/>
		<polygon class="st5" points="718.8,674.5 724.9,674.5 733.9,667.6 724.9,660.7 718.8,660.7 727.9,667.6 		"/>
		<polygon class="st5" points="733.9,674.5 740,674.5 749.1,667.6 740,660.7 733.9,660.7 743,667.6 		"/>
		<polygon class="st5" points="749.1,674.5 755.1,674.5 764.2,667.6 755.1,660.7 749.1,660.7 758.1,667.6 		"/>
		<polygon class="st5" points="764.2,674.5 770.2,674.5 779.3,667.6 770.2,660.7 764.2,660.7 773.2,667.6 		"/>
		<polygon class="st5" points="779.3,674.5 785.3,674.5 794.4,667.6 785.3,660.7 779.3,660.7 788.4,667.6 		"/>
		<polygon class="st5" points="794.4,674.5 800.5,674.5 809.5,667.6 800.5,660.7 794.4,660.7 803.5,667.6 		"/>
		<polygon class="st5" points="809.5,674.5 815.6,674.5 824.7,667.6 815.6,660.7 809.5,660.7 818.6,667.6 		"/>
		<polygon class="st5" points="824.7,674.5 830.7,674.5 839.8,667.6 830.7,660.7 824.7,660.7 833.7,667.6 		"/>
		<polygon class="st5" points="839.8,674.5 845.8,674.5 854.9,667.6 845.8,660.7 839.8,660.7 848.9,667.6 		"/>
		<polygon class="st5" points="854.9,674.5 861,674.5 870,667.6 861,660.7 854.9,660.7 864,667.6 		"/>
		<polygon class="st5" points="870,674.5 876.1,674.5 885.2,667.6 876.1,660.7 870,660.7 879.1,667.6 		"/>
		<polygon class="st5" points="885.2,674.5 891.2,674.5 900.3,667.6 891.2,660.7 885.2,660.7 894.2,667.6 		"/>
		<polygon class="st5" points="900.3,674.5 906.3,674.5 915.4,667.6 906.3,660.7 900.3,660.7 909.3,667.6 		"/>
		<polygon class="st5" points="915.4,674.5 921.4,674.5 930.5,667.6 921.4,660.7 915.4,660.7 924.5,667.6 		"/>
		<polygon class="st5" points="930.5,674.5 936.6,674.5 945.6,667.6 936.6,660.7 930.5,660.7 939.6,667.6 		"/>
	</g>
</g>
<g>
	<g>
		<g>
			<path class="st4" d="M471.8,232.6c-3,11.3-11.5,15-18.9,15c-12.1,0-21.4-6.3-21.4-25.6c0-5.6,1.8-23.7,20.6-23.7
				c8.5,0,20.2,4.4,20.2,25.8v2.2h-29.5c0.3,3.5,1,11.4,10.1,11.4c3.1,0,6.4-1.8,7.3-5.1H471.8z M460.7,218.3
				c-0.6-7.6-5.1-9.9-8.7-9.9c-5.3,0-8.2,3.7-8.8,9.9H460.7z"/>
			<path class="st4" d="M485.8,246.4h-11.3v-57.9h11.3V246.4z"/>
		</g>
	</g>
	<path class="st3" d="M273.8,204.9l91.6-20.8v-29.8l-113.9,25.8v24.7L273.8,204.9z M256,202.1l0.1-1.2c0,0,8.3-3.1,10.5-12.6
		c0,0-2.5,3.8-2.9,0.7c0,0-1.1-3.2-3,2.4c0,0-2.5,0-0.3-2.8c2.2-2.9,3.5-4.9,4.9-2.6l2.5-1.9l0.3-3.7l1.5-0.3l1.7,1.9l1.4-2.6
		l2.1-0.5l-0.3,4.2c0,0,1.2,1.8,2,0.1c0.8-1.6,2.5-2.3,4,3.3c0,0-0.8,1.8-2.2,0.5c0,0-1.1-4.3-1.9-1.8c0,0-1.5,2.7-2.1,1.1
		c0,0,2.4,8.8,10.9,6.6l0,0.1c2.5-1.9,5.5-5.2,6.7-10.4c0,0-2.5,3.8-2.9,0.7c0,0-1.1-3.2-3,2.4c0,0-2.5,0-0.3-2.8
		c2.2-2.9,3.5-4.9,4.9-2.6l2.5-1.9l0.3-3.7l1.5-0.3l1.7,1.9l1.4-2.6l2.1-0.5l-0.3,4.2c0,0,1.2,1.8,2,0.1c0.8-1.6,2.5-2.3,4,3.3
		c0,0-0.8,1.8-2.2,0.5c0,0-1.1-4.3-1.9-1.8c0,0-1.5,2.7-2.1,1.1c0,0,2.4,8.8,10.9,6.6l0,0.1c2.5-1.9,5.5-5.2,6.7-10.4
		c0,0-2.5,3.8-2.9,0.7c0,0-1.1-3.2-3,2.4c0,0-2.5,0-0.3-2.8c2.2-2.9,3.5-4.9,4.9-2.6l2.5-1.9l0.3-3.7l1.5-0.3l1.7,1.9l1.4-2.6
		l2.1-0.5l-0.3,4.2c0,0,1.2,1.8,2,0.1c0.8-1.6,2.5-2.3,4,3.3c0,0-0.8,1.8-2.2,0.5c0,0-1.1-4.3-1.9-1.8c0,0-1.5,2.7-2.1,1.1
		c0,0,2.4,8.8,10.9,6.6l0,0.1c2.5-1.9,5.5-5.2,6.7-10.4c0,0-2.5,3.8-2.9,0.7c0,0-1.1-3.2-3,2.4c0,0-2.5,0-0.3-2.8s3.5-4.9,4.9-2.6
		l2.5-1.9l0.3-3.7l1.5-0.3l1.7,1.9l1.4-2.6l2.1-0.5l-0.3,4.2c0,0,1.2,1.8,2,0.1c0.8-1.6,2.5-2.3,4,3.3c0,0-0.8,1.8-2.2,0.5
		c0,0-1.1-4.3-1.9-1.8c0,0-1.5,2.7-2.1,1.1c0,0,2.4,8.8,10.9,6.6l-0.3,5c0,0-8.6,1.9-12.7-9.4l-1,12.5l-2.1,0.5L345,172
		c0,0-5.3,9.9-10.1,13.8c0,0-0.5,0.8-1.2,0.8c-0.9,0.6-2.5-0.2-2.5-0.2c-2.8-0.6-6.7-2.7-9-9.3l-1,12.5l-2.1,0.5l0.9-12.5
		c0,0-5.3,9.9-10.1,13.8c0,0-0.5,0.8-1.2,0.8c-0.9,0.6-2.5-0.2-2.5-0.2c-2.8-0.6-6.7-2.7-9-9.3l-1,12.5l-2.1,0.5l0.9-12.5
		c0,0-5.3,9.9-10.1,13.8c0,0-0.5,0.8-1.2,0.8c-0.9,0.6-2.5-0.2-2.5-0.2c-2.8-0.6-6.7-2.7-9-9.3l-1,12.5l-2.1,0.5l0.9-12.5
		c0,0-8.7,16.3-13.9,15.4L256,202.1z"/>
	<path class="st3" d="M268.9,216.5c0,0,0.9-4.9,5.5-4.9V207h-12.5h-3.2h-12.5v4.6c5.4,0,5.5,4.9,5.5,4.9l0,43.5
		c5.2-4.3,11-7.4,17.2-9.4L268.9,216.5z"/>
	<path class="st3" d="M251.7,358.4c0,0-0.5,2.7-2.6,4.1v3.2h-2.9v2.3h12.5h3.2h12.5V367c-8.2-1.7-16.1-5.3-22.8-10.8V358.4z"/>
	<path class="st3" d="M365.9,331.4c0-12.3,4.1-22.5,11.6-29.5v-3.4H368l0.6-6.5c-3.5,2-5.5,6.1-5.5,14v59.5h-2.9v2.4
		c0,0-0.9,4.9-5.5,4.9v4.6h12.5h3.2H383v-4.6c-5.4,0-5.5-4.9-5.5-4.9v-8.4C370.5,353.7,365.9,344.4,365.9,331.4z"/>
	<path class="st3" d="M362.1,253c4-2.7,9-4.5,15.3-4.9v-46.5c0,0,0.9-8.4,5.5-8.8v-5.5h-14.8l-13.5,2.9v5.5c5.4,0,5.5,5.8,5.5,5.8
		v49h1.9V253z"/>
	<polygon class="st3" points="217.6,377.5 192.7,377.5 192.7,391 170.4,391 170.4,377.5 150,377.5 150,414.1 168.4,414.1 
		170.4,414.1 192.7,414.1 193.2,414.1 217.6,414.1 242.4,414.1 242.4,367.9 217.6,367.9 	"/>
	<polygon class="st3" points="432.7,67.4 428.6,67.4 428.6,86.5 432.7,85.6 	"/>
	<polygon class="st3" points="445.8,83.9 449.9,83.2 449.9,64 445.8,64 	"/>
	<path class="st3" d="M372.4,184.1h167.4h0.8v-29.8h-0.8H372.4h-0.8v20.8c2.2-0.3,13.2-1.9,15.4-9.6c0,0-3.6,3-4.7,0
		c0,0-2.2-3.3-4.7,1.6c0,0-4.2-0.5-0.8-2.7c3.3-2.2,5.3-3.9,7.8-1.4l3.9-1.2v-3.4h2.5l3.1,2.2l1.9-2.2h3.3v3.8c0,0,2.2,1.9,3.3,0.5
		c1.1-1.4,3.9-1.6,6.9,4c0,0-1.1,1.5-3.6,0c0,0-2.2-4.3-3.3-2.1c0,0-2.2,2.2-3.3,0.5c0,0,5,8.8,18.6,8.5v0.1
		c3.9-1.3,8.4-3.7,9.8-8.3c0,0-3.6,3-4.7,0c0,0-2.2-3.3-4.7,1.6c0,0-4.2-0.5-0.8-2.7c3.3-2.2,5.3-3.9,7.8-1.4l3.9-1.2v-3.4h2.5
		l3.1,2.2l1.9-2.2h3.3v3.8c0,0,2.2,1.9,3.3,0.5c1.1-1.4,3.9-1.6,6.9,4c0,0-1.1,1.5-3.6,0c0,0-2.2-4.3-3.3-2.1c0,0-2.2,2.2-3.3,0.5
		c0,0,5,8.8,18.6,8.5v0.1c3.9-1.3,8.4-3.7,9.8-8.3c0,0-3.6,3-4.7,0c0,0-2.2-3.3-4.7,1.6c0,0-4.2-0.5-0.8-2.7
		c3.3-2.2,5.3-3.9,7.8-1.4l3.9-1.2v-3.4h2.5l3.1,2.2l1.9-2.2h3.3v3.8c0,0,2.2,1.9,3.3,0.5c1.1-1.4,3.9-1.6,6.9,4c0,0-1.1,1.5-3.6,0
		c0,0-2.2-4.3-3.3-2.1c0,0-2.2,2.2-3.3,0.5c0,0,5,8.8,18.6,8.5v0.1c3.9-1.3,8.4-3.7,9.8-8.3c0,0-3.6,3-4.7,0c0,0-2.2-3.3-4.7,1.6
		c0,0-4.2-0.5-0.8-2.7c3.3-2.2,5.3-3.9,7.8-1.4l3.9-1.2v-3.4h2.5l3.1,2.2l1.9-2.2h3.3v3.8c0,0,2.2,1.9,3.3,0.5
		c1.1-1.4,3.9-1.6,6.9,4c0,0-1.1,1.5-3.6,0c0,0-2.2-4.3-3.3-2.1c0,0-2.2,2.2-3.3,0.5c0,0,5,8.8,18.6,8.5v4.7c0,0-13.9,0-21.9-11.5
		l-0.3,11.5h-3.3v-11.5c0,0-7.6,8.2-15.1,10.9c0,0-0.7,0.7-1.8,0.5c-1.4,0.3-4.2-0.8-4.2-0.8c-4.7-1.2-11.3-4-15.9-10.6l-0.3,11.5
		h-3.3v-11.5c0,0-7.6,8.2-15.1,10.9c0,0-0.7,0.7-1.8,0.5c-1.4,0.3-4.2-0.8-4.2-0.8c-4.7-1.2-11.3-4-15.9-10.6l-0.3,11.5h-3.3v-11.5
		c0,0-7.6,8.2-15.1,10.9c0,0-0.7,0.7-1.8,0.5c-1.4,0.3-4.2-0.8-4.2-0.8c-4.7-1.2-11.3-4-15.9-10.6l-0.3,11.5h-3.3v-11.5
		c0,0-12.1,13-20.7,11.6v5.6H372.4z"/>
	<path class="st3" d="M660.6,180.1l-113.9-25.8v29.8l91.6,20.8l15.5,0c-5.2-2-12.2-15.2-12.2-15.2l0.9,12.5l-2.1-0.5l-1-12.5
		c-2.4,6.5-6.2,8.6-9,9.3c0,0-1.6,0.8-2.5,0.2c-0.7,0-1.2-0.8-1.2-0.8c-4.8-3.9-10.1-13.8-10.1-13.8l0.9,12.5l-2.1-0.5l-1-12.5
		c-2.4,6.5-6.2,8.6-9,9.3c0,0-1.6,0.8-2.5,0.2c-0.7,0-1.2-0.8-1.2-0.8c-4.8-3.9-10.1-13.8-10.1-13.8l0.9,12.5l-2.1-0.5l-1-12.5
		c-2.4,6.5-6.2,8.6-9,9.3c0,0-1.6,0.8-2.5,0.2c-0.7,0-1.2-0.8-1.2-0.8c-4.8-3.9-10.1-13.8-10.1-13.8l0.9,12.5l-2.1-0.5l-1-12.5
		c-4.1,11.3-12.7,9.4-12.7,9.4l-0.3-5c8.4,2.2,10.9-6.6,10.9-6.6c-0.6,1.6-2.1-1.1-2.1-1.1c-0.8-2.5-1.9,1.8-1.9,1.8
		c-1.4,1.3-2.2-0.5-2.2-0.5c1.5-5.7,3.2-5,4-3.3c0.8,1.6,2-0.1,2-0.1l-0.3-4.2l2.1,0.5l1.4,2.6l1.7-1.9l1.5,0.3l0.3,3.7l2.5,1.9
		c1.4-2.3,2.7-0.3,4.9,2.6c2.2,2.9-0.3,2.8-0.3,2.8c-1.9-5.7-3-2.4-3-2.4c-0.5,3.1-2.9-0.7-2.9-0.7c1.2,5.2,4.2,8.5,6.7,10.4l0-0.1
		c8.4,2.2,10.9-6.6,10.9-6.6c-0.6,1.6-2.1-1.1-2.1-1.1c-0.8-2.5-1.9,1.8-1.9,1.8c-1.4,1.3-2.2-0.5-2.2-0.5c1.5-5.7,3.2-5,4-3.3
		c0.8,1.6,2-0.1,2-0.1l-0.3-4.2l2.1,0.5l1.4,2.6l1.7-1.9l1.5,0.3l0.3,3.7l2.5,1.9c1.4-2.3,2.7-0.3,4.9,2.6c2.2,2.9-0.3,2.8-0.3,2.8
		c-1.9-5.7-3-2.4-3-2.4c-0.5,3.1-2.9-0.7-2.9-0.7c1.2,5.2,4.2,8.5,6.7,10.4l0-0.1c8.4,2.2,10.9-6.6,10.9-6.6
		c-0.6,1.6-2.1-1.1-2.1-1.1c-0.8-2.5-1.9,1.8-1.9,1.8c-1.4,1.3-2.2-0.5-2.2-0.5c1.5-5.7,3.2-5,4-3.3c0.8,1.6,2-0.1,2-0.1l-0.3-4.2
		l2.1,0.5l1.4,2.6l1.7-1.9l1.5,0.3l0.3,3.7l2.5,1.9c1.4-2.3,2.7-0.3,4.9,2.6c2.2,2.9-0.3,2.8-0.3,2.8c-1.9-5.7-3-2.4-3-2.4
		c-0.5,3.1-2.9-0.7-2.9-0.7c1.2,5.2,4.2,8.5,6.7,10.4l0-0.1c8.4,2.2,10.9-6.6,10.9-6.6c-0.6,1.6-2.1-1.1-2.1-1.1
		c-0.8-2.5-1.9,1.8-1.9,1.8c-1.4,1.3-2.2-0.5-2.2-0.5c1.5-5.7,3.2-5,4-3.3c0.8,1.6,2-0.1,2-0.1l-0.3-4.2l2.1,0.5l1.4,2.6l1.7-1.9
		l1.5,0.3l0.3,3.7l2.5,1.9c1.4-2.3,2.7-0.3,4.9,2.6c2.2,2.9-0.3,2.8-0.3,2.8c-1.9-5.7-3-2.4-3-2.4c-0.5,3.1-2.9-0.7-2.9-0.7
		c2.2,9.5,10.5,12.6,10.5,12.6l0.1,1.2l0.1,2.1l5.2,0V180.1z"/>
	<path class="st3" d="M660.5,216.5c0,0,0.2-4.9,5.5-4.9V207h-12.5h-3.2h-12.5v4.6c4.6,0,5.5,4.9,5.5,4.9v34.1h17.2V216.5z"/>
	<polygon class="st3" points="637.7,365.6 637.7,367.9 650.2,367.9 653.5,367.9 666,367.9 666,365.6 647.9,365.6 	"/>
	<path class="st3" d="M551.9,201.7c0,0,0.2-5.8,5.5-5.8v-5.5l-13.5-2.9h-14.8v5.5c4.6,0.3,5.5,8.8,5.5,8.8l0,13.1h17.2V201.7z"/>
	<path class="st3" d="M534.7,368.1c0,0-0.2,4.9-5.5,4.9v4.6h12.5h3.2h12.5v-4.6c-4.6,0-5.5-4.9-5.5-4.9v-2.4h-17.2V368.1z"/>
	<path class="st3" d="M371.2,147.8H405h102.9h33.8h2c0,0,122.7,28.8,122.7,28.8c-1.7-0.4-3.6-1.8-5.2-2.6
		c-8.4-4.3-16.8-8.6-25.1-12.8c-12.5-6.4-25-12.8-37.5-19.1c-13.4-6.8-26.8-13.7-40.2-20.5c-11.1-5.7-22.2-11.3-33.3-17
		c-3.7-1.9-7.4-3.8-11.1-5.6c-16.5-8.4-36.2-13.2-54.7-13.7c-9.8-0.3-19.6,0.8-29.1,3.2c-9.1,2.3-18.1,4.5-26.7,8.4
		c-1.5,0.7-3,1.4-4.5,2.2c-3.7,1.9-7.4,3.8-11.1,5.6c-11.1,5.7-22.2,11.3-33.3,17c-13.4,6.8-26.8,13.7-40.2,20.5
		c-12.5,6.4-25,12.8-37.5,19.1c-8.4,4.3-16.8,8.6-25.1,12.8c-1.6,0.8-3.5,2.2-5.2,2.6c0,0,122.7-28.8,122.7-28.8H371.2z"/>
	<polygon class="st3" points="541.3,380.8 370.8,380.8 358.1,380.8 245.4,371.9 246.1,415.9 354.7,438.9 370.8,438.9 541.3,438.9 
		557.4,438.9 666,415.9 666.7,371.9 554,380.8 	"/>
	<polygon class="st3" points="741.7,391 719.4,391 719.4,377.5 694.6,377.5 694.6,367.9 669.7,367.9 669.7,414.1 694.6,414.1 
		718.9,414.1 719.4,414.1 741.7,414.1 743.7,414.1 762.1,414.1 762.1,377.5 741.7,377.5 	"/>
	<path class="st3" d="M465,61.5c0,0,18.4,3.3,18.5,3.3c-0.1,0-0.6-2.3-0.6-2.4c-0.6-2.1-1.4-4.1-2.2-6c-2.5-5.4-6.1-10.4-11.3-13.4
		c-6.7-3.9-16.3-4-23.5-1.4c-5.8,2.1-10.1,7-13,12.2c-1.3,2.4-2.4,5-3.3,7.7c-0.1,0.2-0.7,3.3-0.9,3.3c0,0,18.5-3.3,18.5-3.3H465z"
		/>
	<polygon class="st3" points="479.4,85.6 483.5,86.5 483.5,67.4 479.4,67.4 	"/>
	<polygon class="st3" points="464.2,83.2 468.3,83.9 468.3,64 464.2,64 	"/>
	<path class="st3" d="M371.2,175.1v1.1v2.2c0.1,0,0.3,0,0.4,0.1v-3.4C371.4,175.1,371.2,175.1,371.2,175.1z"/>
	<path class="st3" d="M655.5,205.1l0-0.2l-1.7,0C654.4,205.1,654.9,205.2,655.5,205.1z"/>
	<g>
		<rect x="532.2" y="222.7" class="st4" width="23.9" height="24.2"/>
		<path class="st4" d="M765.6,256c-21.3,0-40.8,12.5-45.4,39.5v-6.3c0-21.8-13.8-33.1-31.6-33.1c-17.3,0-24.1,11.2-27.3,17.1h-0.3
			v-14.5H638v94c-2-1.7-3.4-5.3-3.4-14.4v-53.6c0-24.4-23.4-28.7-36.2-28.7c-18.6,0-37.9,4.3-40.7,34.6h23.1
			c0.7-5.8,2.7-13.8,14.7-13.8c6.1,0,15.7,0.6,15.7,11.5c0,5.6-4.6,7.3-8.4,7.8l-21.5,3.5c-12.3,2-22,8.8-25.3,21.5v-62.7h-20h-3.9
			h-21.5l-19.3,73H491l-18.8-73h-26.6l3.3,10c-7.5-10.4-22.2-12.6-31.5-12.6c-12.6,0-25.4,2-33.3,12.5v-12.2
			c-1.5-0.2-3.1-0.4-4.6-0.4c-14.5,0-20,9.7-24.9,19.7h-0.3v-17.1h-22.9v35.1C326.1,268,307,256,286.2,256
			c-20.9,0-39.9,12-45.1,37.7v-4.5c0-21.8-13.8-33.1-31.6-33.1c-14.5,0-21.2,11-24.3,15.8c-6.1-10.6-12.1-15.8-25.3-15.8
			c-16.1,0-22.7,10.6-25.8,17.1h-0.3v-14.5H111v99h23.9v-60.3c0-10.8,3.6-19.4,14.9-19.4c14.3,0,14.3,11.7,14.3,20.1v59.6H188v-59.4
			c0-11.7,4.3-20.3,16.2-20.3c7,0,13,4.8,13,19.5v60.1h23.9v-35.1c5.1,25.7,24.2,37.7,45.1,37.7c20.8,0,39.9-12,45.1-37.7v35.1h23.9
			v-51.6c0-11,3.4-23.6,22-23.6c0.2,0,0.5,0,0.8,0c-0.6,2.5-1,5.2-1.3,8.2h23.1c0.7-5.8,2.7-13.8,14.7-13.8
			c6.1,0,15.7,0.6,15.7,11.5c0,5.6-4.6,7.3-8.4,7.8l-21.5,3.5c-15.2,2.4-26.5,12.3-26.5,31.6c0,20.5,14,28.9,27.7,28.9
			c16.2,0,23.9-8.2,29.4-14.3c0.5,5.6,0.9,7.1,2.2,11.7h25.8v-3.9c-2.9-1.1-5.3-3.7-5.3-15.5v-53.6c0-0.6,0-1.3-0.1-1.9l24.7,74.8
			h25.1l28.9-87.2v87.2h23.9V341c3.7,13.6,15.2,19.3,26.5,19.3c16.2,0,23.9-8.2,29.4-14.3c0.5,5.6,0.9,7.1,2.2,11.7H638h1.9h22
			v-56.8c0-15.1,8.2-22.9,18.8-22.9c15.2,0,15.5,12.3,15.5,19.5v60.1h23.9v-36.9c4.6,27,24.1,39.5,45.4,39.5
			c24.4,0,46.5-16.4,46.5-52.1S790.1,256,765.6,256z M286.2,338.3c-18.4,0-21.9-17.5-21.9-30.2s3.4-30.2,21.9-30.2
			c18.4,0,21.9,17.5,21.9,30.2S304.6,338.3,286.2,338.3z M430.2,322.1c0,12.1-10.8,19.5-21.4,19.5c-4.6,0-11.1-2.8-11.1-11.9
			c0-10.8,7.3-13.2,16.2-14.9c9.9-1.7,13.8-3.4,16.2-5.4V322.1z M611.2,322.1c0,12.1-10.8,19.5-21.3,19.5c-4.6,0-11.1-2.8-11.1-11.9
			c0-10.8,7.3-13.2,16.2-14.9c9.9-1.7,13.8-3.4,16.2-5.4V322.1z M765.6,338.3c-18.4,0-21.9-17.5-21.9-30.2s3.4-30.2,21.9-30.2
			s21.9,17.5,21.9,30.2S784.1,338.3,765.6,338.3z"/>
	</g>
</g>
</svg>
