<svg id="Capa_1" data-name="Capa 1" xmlns="http://www.w3.org/2000/svg" viewBox="0 0 200 169"><defs><style>.cls-1{fill:#fff;}.cls-2{fill:#c1272d;}</style></defs><title>Mesa de trabajo 1 copia</title><circle class="cls-1" cx="122.92" cy="116.75" r="26.47"/><path class="cls-2" d="M108.85,3.42a87.13,87.13,0,0,0-43.4,11.41l40.19,28.72V63l8.28-2a55.89,55.89,0,0,1,56.6,25.3c4.8,7.48,6.8,15.09,7.39,23.87.94,13.85-.77,32.38-20.79,53A87.15,87.15,0,0,0,108.85,3.42Z"/><path class="cls-1" d="M24.9,43.24c0,6.12-.06,22.69-.09,36.64,0,11.83,0,21.77,0,21.83,0,4.09.09,8.59-1.55,12.42-2,4.58-7.11,5.42-11,2.36-.29-.14-.56-.2-.87-.37v44.65a33.66,33.66,0,0,0,12.33,2.86c15.87,0,29.9-11.58,36.31-25.55,4.25-9.26,5.13-19.72,5.16-29.78,0,0,.22-66.05.31-93.47Z"/></svg>