<svg id="Capa_1" data-name="Capa 1" xmlns="http://www.w3.org/2000/svg" viewBox="0 0 440 112"><defs><style>.cls-1{fill:#fff;}.cls-2{fill:#c1272d;}</style></defs><title>Mesa de trabajo 1 copia 3</title><circle class="cls-1" cx="74.67" cy="72.96" r="15.77"/><path class="cls-2" d="M66.3,5.47a51.89,51.89,0,0,0-25.85,6.79l23.93,17.1V40.93l4.93-1.2A33.29,33.29,0,0,1,103,54.79,28.69,28.69,0,0,1,107.43,69C108,77.26,107,88.29,95,100.57A51.9,51.9,0,0,0,66.3,5.47Z"/><path class="cls-1" d="M16.3,29.19c0,3.65,0,13.51-.06,21.82,0,7,0,13,0,13,0,2.43.06,5.12-.93,7.4-1.17,2.73-4.23,3.23-6.55,1.4-.17-.08-.34-.12-.52-.22V99.18a20,20,0,0,0,7.34,1.7c9.45,0,17.8-6.9,21.62-15.22,2.53-5.51,3.05-11.74,3.08-17.74,0,0,.13-39.33.18-55.66Z"/><path class="cls-1" d="M142.31,26.82V49.48q0,5.09-.11,6.55a5,5,0,0,1-1,2.63,4.36,4.36,0,0,1-2.31,1.62,15.86,15.86,0,0,1-4.38.45h-4.42V54.8q.8.06,1.15.06a2.23,2.23,0,0,0,1.49-.46,1.72,1.72,0,0,0,.63-1.13,25.64,25.64,0,0,0,.08-2.6V26.82Z"/><path class="cls-1" d="M164.08,47.32h-11v6a6.67,6.67,0,0,0,.27,2.43,1.06,1.06,0,0,0,1,.54,1.27,1.27,0,0,0,1.29-.72,7.92,7.92,0,0,0,.32-2.8V49.12h8v2.05a18.43,18.43,0,0,1-.32,4,8.06,8.06,0,0,1-1.52,3,7.39,7.39,0,0,1-3,2.36,11.7,11.7,0,0,1-4.6.79,13.35,13.35,0,0,1-4.73-.78,7.57,7.57,0,0,1-3.19-2.13,7.68,7.68,0,0,1-1.58-3,19.21,19.21,0,0,1-.44-4.72V42.53a13.81,13.81,0,0,1,1-5.75,6.76,6.76,0,0,1,3.23-3.23A11.37,11.37,0,0,1,154,32.43a11.53,11.53,0,0,1,5.88,1.35,7.43,7.43,0,0,1,3.25,3.58,16.8,16.8,0,0,1,.93,6.27ZM155.6,42.8v-2a10.21,10.21,0,0,0-.23-2.79.91.91,0,0,0-.94-.63q-.88,0-1.09.53a11.11,11.11,0,0,0-.21,2.88v2Z"/><path class="cls-1" d="M175,26.82v4.42h-8.71V26.82Zm0,6.12v27.8h-8.71V32.93Z"/><path class="cls-1" d="M194.76,41.81h-7.5V40.3a8,8,0,0,0-.22-2.44q-.22-.51-1.1-.51a1.25,1.25,0,0,0-1.07.47,2.33,2.33,0,0,0-.36,1.41,7.12,7.12,0,0,0,.18,1.88,3,3,0,0,0,1.07,1.31,23.27,23.27,0,0,0,3.66,2.07q3.69,1.8,4.84,3.39a7.84,7.84,0,0,1,1.15,4.63,11.66,11.66,0,0,1-.88,5.12,5.85,5.85,0,0,1-2.94,2.66,12,12,0,0,1-5,.93,13.69,13.69,0,0,1-5.52-1,6,6,0,0,1-3.15-2.72,12.09,12.09,0,0,1-.86-5.19V51h7.5v1.76a9.26,9.26,0,0,0,.28,2.91,1.1,1.1,0,0,0,1.12.67,1.52,1.52,0,0,0,1.26-.45,3.36,3.36,0,0,0,.36-1.9,4.21,4.21,0,0,0-.46-2.49,38.87,38.87,0,0,0-4.92-3q-3.73-2.09-4.55-3.8a9.32,9.32,0,0,1-.82-4.05,10.49,10.49,0,0,1,.88-4.91,5.71,5.71,0,0,1,3-2.44,12.89,12.89,0,0,1,4.89-.86,13.88,13.88,0,0,1,4.7.7,7.23,7.23,0,0,1,3,1.85,5,5,0,0,1,1.26,2.14,15.52,15.52,0,0,1,.22,3.08Z"/><path class="cls-1" d="M216.26,42.69V49.5a28.77,28.77,0,0,1-.38,5.5,7.72,7.72,0,0,1-1.61,3.27,7.29,7.29,0,0,1-3.17,2.24,12.7,12.7,0,0,1-4.45.72,15.87,15.87,0,0,1-4.75-.62,6.48,6.48,0,0,1-3-1.86,7.36,7.36,0,0,1-1.54-3,22.65,22.65,0,0,1-.46-5.31V43.3a17.42,17.42,0,0,1,.84-6.05,7,7,0,0,1,3-3.5,10.61,10.61,0,0,1,5.57-1.32,12.72,12.72,0,0,1,4.89.85,7.67,7.67,0,0,1,4.67,5A17.43,17.43,0,0,1,216.26,42.69ZM207.8,40.6a9.21,9.21,0,0,0-.23-2.69,1,1,0,0,0-1-.55,1,1,0,0,0-1,.55,8.48,8.48,0,0,0-.25,2.69V53.14a8.11,8.11,0,0,0,.25,2.57,1.14,1.14,0,0,0,2,.05,7.12,7.12,0,0,0,.24-2.35Z"/><path class="cls-1" d="M227.1,32.93,227,35.49a6.34,6.34,0,0,1,2.25-2.3,6,6,0,0,1,3.07-.77,5.82,5.82,0,0,1,3.56,1A4.57,4.57,0,0,1,237.61,36a23.63,23.63,0,0,1,.4,5.21V60.73h-8.46V41.48a17.88,17.88,0,0,0-.19-3.5q-.19-.63-1-.63a1,1,0,0,0-1.13.72,18.11,18.11,0,0,0-.23,3.86V60.73h-8.46V32.93Z"/><path class="cls-1" d="M247.62,26.82h8.8a23.2,23.2,0,0,1,6.32.65,6.26,6.26,0,0,1,3.47,2.63q1.32,2,1.32,6.37,0,3-.93,4.15a6.5,6.5,0,0,1-3.68,1.8q3.06.69,4.15,2.29a8.84,8.84,0,0,1,1.09,4.92v3.14a12.47,12.47,0,0,1-.79,5.09,4.23,4.23,0,0,1-2.5,2.26q-1.72.61-7,.61h-10.2Zm8.82,5.8v7.54l.88,0q1.3,0,1.65-.64a10.45,10.45,0,0,0,.36-3.65,5.89,5.89,0,0,0-.29-2.23,1.41,1.41,0,0,0-.76-.81A6.85,6.85,0,0,0,256.44,32.62Zm0,12.82v9.49a3.76,3.76,0,0,0,2.38-.59,4.11,4.11,0,0,0,.51-2.58V48.6q0-2.18-.46-2.64A4.14,4.14,0,0,0,256.44,45.44Z"/><path class="cls-1" d="M278.06,43.7h-7.94V41.83a13.14,13.14,0,0,1,.74-5,6.9,6.9,0,0,1,3-3.09,11.24,11.24,0,0,1,5.82-1.34q4.29,0,6.47,1.52a5.92,5.92,0,0,1,2.62,3.73,58.48,58.48,0,0,1,.44,9.1v14H281V58.25a5.17,5.17,0,0,1-4.92,3A7.16,7.16,0,0,1,272,60q-1.85-1.25-1.85-5.46V52.24q0-3.12,1-4.25T276,45.35q4.17-1.63,4.46-2.2a5.85,5.85,0,0,0,.29-2.3,7.75,7.75,0,0,0-.33-2.84,1.11,1.11,0,0,0-1.08-.66q-.86,0-1.07.55a11.27,11.27,0,0,0-.21,2.88Zm2.68,3.81A6.27,6.27,0,0,0,278.39,50a9.88,9.88,0,0,0-.33,2.89,8.42,8.42,0,0,0,.28,2.79,1.11,1.11,0,0,0,1.12.63,1,1,0,0,0,1-.49,8,8,0,0,0,.24-2.59Z"/><path class="cls-1" d="M300.27,26.82V60.73h-8.71V26.82Z"/><path class="cls-1" d="M311.47,26.82V60.73h-8.71V26.82Z"/><path class="cls-1" d="M333.11,47.32h-11v6a6.67,6.67,0,0,0,.27,2.43,1.06,1.06,0,0,0,1,.54,1.27,1.27,0,0,0,1.29-.72,7.92,7.92,0,0,0,.32-2.8V49.12h8v2.05a18.43,18.43,0,0,1-.32,4,8.06,8.06,0,0,1-1.52,3,7.39,7.39,0,0,1-3,2.36,11.7,11.7,0,0,1-4.6.79,13.35,13.35,0,0,1-4.73-.78,7.57,7.57,0,0,1-3.19-2.13,7.68,7.68,0,0,1-1.58-3,19.21,19.21,0,0,1-.44-4.72V42.53a13.81,13.81,0,0,1,1-5.75,6.76,6.76,0,0,1,3.23-3.23,11.37,11.37,0,0,1,5.15-1.12,11.53,11.53,0,0,1,5.88,1.35,7.43,7.43,0,0,1,3.25,3.58,16.8,16.8,0,0,1,.93,6.27Zm-8.48-4.52v-2A10.21,10.21,0,0,0,324.4,38a.91.91,0,0,0-.94-.63q-.88,0-1.09.53a11.11,11.11,0,0,0-.21,2.88v2Z"/><path class="cls-1" d="M352.6,41.81h-7.5V40.3a8,8,0,0,0-.22-2.44q-.22-.51-1.1-.51a1.25,1.25,0,0,0-1.07.47,2.33,2.33,0,0,0-.36,1.41,7.12,7.12,0,0,0,.18,1.88,3,3,0,0,0,1.07,1.31,23.27,23.27,0,0,0,3.66,2.07q3.69,1.8,4.84,3.39a7.84,7.84,0,0,1,1.15,4.63,11.66,11.66,0,0,1-.88,5.12,5.85,5.85,0,0,1-2.94,2.66,12,12,0,0,1-5,.93,13.69,13.69,0,0,1-5.52-1,6,6,0,0,1-3.15-2.72,12.09,12.09,0,0,1-.86-5.19V51h7.5v1.76a9.26,9.26,0,0,0,.28,2.91,1.1,1.1,0,0,0,1.12.67,1.52,1.52,0,0,0,1.26-.45,3.36,3.36,0,0,0,.36-1.9,4.21,4.21,0,0,0-.46-2.49,38.87,38.87,0,0,0-4.92-3q-3.73-2.09-4.55-3.8a9.32,9.32,0,0,1-.82-4.05,10.49,10.49,0,0,1,.88-4.91,5.71,5.71,0,0,1,3-2.44,12.89,12.89,0,0,1,4.89-.86,13.88,13.88,0,0,1,4.7.7,7.23,7.23,0,0,1,3,1.85,5,5,0,0,1,1.26,2.14,15.52,15.52,0,0,1,.22,3.08Z"/><path class="cls-1" d="M363.88,29.22V33.6h2.28V38h-2.28V52.87a8,8,0,0,0,.28,3.06q.28.31,2.36.31v4.48H363.1a24.33,24.33,0,0,1-4.13-.24,4.4,4.4,0,0,1-2.18-1.11,3.69,3.69,0,0,1-1.17-2,35.18,35.18,0,0,1-.23-5.27V38h-1.82V33.6h1.82V29.22Z"/><path class="cls-1" d="M386.63,47.32h-11v6a6.67,6.67,0,0,0,.27,2.43,1.06,1.06,0,0,0,1,.54,1.27,1.27,0,0,0,1.29-.72,7.92,7.92,0,0,0,.32-2.8V49.12h8v2.05a18.43,18.43,0,0,1-.32,4,8.06,8.06,0,0,1-1.52,3,7.39,7.39,0,0,1-3,2.36,11.7,11.7,0,0,1-4.6.79,13.35,13.35,0,0,1-4.73-.78,7.57,7.57,0,0,1-3.19-2.13,7.68,7.68,0,0,1-1.58-3,19.21,19.21,0,0,1-.44-4.72V42.53a13.81,13.81,0,0,1,1-5.75,6.76,6.76,0,0,1,3.23-3.23,11.37,11.37,0,0,1,5.15-1.12,11.53,11.53,0,0,1,5.88,1.35,7.43,7.43,0,0,1,3.25,3.58,16.8,16.8,0,0,1,.93,6.27Zm-8.48-4.52v-2a10.21,10.21,0,0,0-.23-2.79.91.91,0,0,0-.94-.63q-.88,0-1.09.53a11.11,11.11,0,0,0-.21,2.88v2Z"/><path class="cls-1" d="M397.3,32.93,397,36.59q1.84-3.93,5.34-4.16v9.78a7.09,7.09,0,0,0-3.41.63,2.64,2.64,0,0,0-1.34,1.75,31.44,31.44,0,0,0-.25,5.16v11h-8.46V32.93Z"/><path class="cls-1" d="M422.78,42.69V49.5a28.77,28.77,0,0,1-.38,5.5,7.72,7.72,0,0,1-1.61,3.27,7.29,7.29,0,0,1-3.17,2.24,12.7,12.7,0,0,1-4.45.72,15.87,15.87,0,0,1-4.75-.62,6.48,6.48,0,0,1-3-1.86,7.36,7.36,0,0,1-1.54-3,22.65,22.65,0,0,1-.46-5.31V43.3a17.42,17.42,0,0,1,.84-6.05,7,7,0,0,1,3-3.5,10.61,10.61,0,0,1,5.57-1.32,12.72,12.72,0,0,1,4.89.85,7.67,7.67,0,0,1,4.67,5A17.43,17.43,0,0,1,422.78,42.69Zm-8.46-2.09a9.21,9.21,0,0,0-.23-2.69,1,1,0,0,0-1-.55,1,1,0,0,0-1,.55,8.48,8.48,0,0,0-.25,2.69V53.14a8.11,8.11,0,0,0,.25,2.57,1.14,1.14,0,0,0,2,.05,7.12,7.12,0,0,0,.24-2.35Z"/><path class="cls-1" d="M138.16,68.5c7.78,0,7.78,11.85,0,11.85h-4V68.5Zm0,11.6c7.44,0,7.44-11.34,0-11.34h-3.75V80.09Z"/><path class="cls-1" d="M138.16,80.6h-4.25V68.25h4.25a6.18,6.18,0,0,1,0,12.35Zm-3.5-.75h3.5a5.42,5.42,0,0,0,0-10.84h-3.5Z"/><path class="cls-1" d="M146.17,80.09h6.31v.25H145.9V68.5h6.54v.25h-6.27v5.53h6.14v.27h-6.14Z"/><polygon class="cls-1" points="152.73 80.6 145.68 80.6 145.65 80.35 145.65 68.25 152.69 68.25 152.69 69 146.42 69 146.42 74.03 152.56 74.03 152.56 74.8 146.42 74.8 146.42 79.84 152.73 79.84 152.73 80.6"/><path class="cls-1" d="M161.67,71a2.66,2.66,0,0,0-.64-1.29A4.4,4.4,0,0,0,155,70a2.5,2.5,0,0,0-.53,1.81c.3,4.15,7,.9,7.76,4.7.54,2.51-1.83,4-4.08,4-1.73,0-3.83-1-4-2.9l0-.12.27,0,0,.12c.19,1.78,2.17,2.68,3.78,2.68,2.07,0,4.31-1.34,3.81-3.7-.76-3.53-7.46-.31-7.76-4.73a2.79,2.79,0,0,1,.56-2c1.73-2.24,6.61-1.95,7.19,1.12l0,.14-.25.05Z"/><path class="cls-1" d="M158.11,80.71c-1.92,0-4.07-1.09-4.28-3.12l-.05-.36.77-.1.05.36c.18,1.7,2.17,2.46,3.53,2.46a4,4,0,0,0,3.1-1.3,2.4,2.4,0,0,0,.47-2.1c-.32-1.48-1.87-1.63-3.51-1.8-1.92-.19-4.09-.41-4.26-3a3,3,0,0,1,.61-2.15,4.9,4.9,0,0,1,4.87-1.42,3.41,3.41,0,0,1,2.77,2.64l0,.38-.74.15-.05-.39a2.43,2.43,0,0,0-.58-1.16,3.72,3.72,0,0,0-2.7-1h-.08a3.8,3.8,0,0,0-2.91,1.26,2.25,2.25,0,0,0-.47,1.64c.14,1.92,1.75,2.08,3.61,2.27s3.72.37,4.15,2.4a3.12,3.12,0,0,1-.61,2.7A4.83,4.83,0,0,1,158.11,80.71Z"/><path class="cls-1" d="M171.47,76.36h-6l-1.61,4h-.29l4.76-12h.29l4.76,12h-.29Zm-5.88-.25h5.78l-2.9-7.44Z"/><path class="cls-1" d="M173.75,80.6h-.82l-1.63-4h-5.66l-1.61,4h-.83l5-12.54h.27l0-.08,0,.08h.29ZM166,75.86H171l-2.53-6.5Z"/><path class="cls-1" d="M175.2,80.35h-.25V68.48h4.1a3.47,3.47,0,1,1,0,6.93h-1.92l5.46,4.93h-.39l-5.46-4.93v-.25h2.31a3.21,3.21,0,1,0,0-6.41H175.2Z"/><path class="cls-1" d="M183.24,80.6h-1.14l-5.61-5.07v-.62h2.56a2.88,2.88,0,0,0,3.06-3,2.88,2.88,0,0,0-3.06-3h-3.6V80.6h-.75V68.23h4.35a3.64,3.64,0,0,1,3.81,3.72,3.62,3.62,0,0,1-3.81,3.72h-1.27Z"/><path class="cls-1" d="M184.85,80.35h-.25V68.48h4.1a3.47,3.47,0,1,1,0,6.93h-1.92l5.46,4.93h-.39l-5.46-4.93v-.25h2.31a3.21,3.21,0,1,0,0-6.41h-3.85Z"/><path class="cls-1" d="M192.89,80.6h-1.14l-5.61-5.07v-.62h2.56a2.88,2.88,0,0,0,3.06-3,2.88,2.88,0,0,0-3.06-3h-3.6V80.6h-.75V68.23h4.35a3.64,3.64,0,0,1,3.81,3.72,3.62,3.62,0,0,1-3.81,3.72h-1.27Z"/><path class="cls-1" d="M195.37,70.11a6,6,0,0,1,8.56,0,6.1,6.1,0,0,1,0,8.61,6,6,0,0,1-8.56,0,6.1,6.1,0,0,1,0-8.61Zm8.38.2a5.71,5.71,0,0,0-8.19,0,5.81,5.81,0,0,0,0,8.21,5.71,5.71,0,0,0,8.19,0,5.85,5.85,0,0,0,0-8.21Z"/><path class="cls-1" d="M199.64,80.77a6.23,6.23,0,0,1-4.45-1.87,6.35,6.35,0,0,1,0-9h0a6.25,6.25,0,0,1,8.92,0,6.35,6.35,0,0,1,0,9A6.23,6.23,0,0,1,199.64,80.77Zm0-11.93a5.46,5.46,0,0,0-3.91,1.65,5.56,5.56,0,0,0,0,7.85,5.46,5.46,0,0,0,7.83,0,5.6,5.6,0,0,0,0-7.85h0A5.47,5.47,0,0,0,199.64,68.83Z"/><path class="cls-1" d="M208.26,80.07h6.37v.27H208V68.5h.27Z"/><polygon class="cls-1" points="214.88 80.6 207.74 80.6 207.74 68.25 208.51 68.25 208.51 79.82 214.88 79.82 214.88 80.6"/><path class="cls-1" d="M216.65,80.07H223v.27h-6.65V68.5h.27Z"/><polygon class="cls-1" points="223.28 80.6 216.13 80.6 216.13 68.25 216.9 68.25 216.9 79.82 223.28 79.82 223.28 80.6"/><path class="cls-1" d="M231.95,76.36h-6l-1.61,4H224l4.76-12h.29l4.76,12h-.29Zm-5.88-.25h5.78l-2.9-7.44Z"/><path class="cls-1" d="M234.23,80.6h-.82l-1.63-4h-5.66l-1.61,4h-.83l5-12.54h.27l0-.08,0,.08h.29Zm-7.8-4.74h5.05l-2.53-6.5Z"/><path class="cls-1" d="M239.41,68.5c7.78,0,7.78,11.85,0,11.85h-4V68.5Zm0,11.6c7.44,0,7.44-11.34,0-11.34h-3.75V80.09Z"/><path class="cls-1" d="M239.41,80.6h-4.25V68.25h4.25a6.18,6.18,0,0,1,0,12.35Zm-3.5-.75h3.5a5.42,5.42,0,0,0,0-10.84h-3.5Z"/><path class="cls-1" d="M248.62,70.11a6,6,0,0,1,8.56,0,6.1,6.1,0,0,1,0,8.61,6,6,0,0,1-8.56,0,6.1,6.1,0,0,1,0-8.61Zm8.37.2a5.71,5.71,0,0,0-8.19,0,5.81,5.81,0,0,0,0,8.21,5.71,5.71,0,0,0,8.19,0,5.85,5.85,0,0,0,0-8.21Z"/><path class="cls-1" d="M252.89,80.77a6.23,6.23,0,0,1-4.45-1.87,6.35,6.35,0,0,1,0-9h0a6.25,6.25,0,0,1,8.92,0,6.35,6.35,0,0,1,0,9A6.23,6.23,0,0,1,252.89,80.77Zm0-11.93A5.46,5.46,0,0,0,249,70.49a5.56,5.56,0,0,0,0,7.85,5.46,5.46,0,0,0,7.83,0,5.6,5.6,0,0,0,0-7.85h0A5.47,5.47,0,0,0,252.89,68.83Z"/><path class="cls-1" d="M261.14,80.35h-.25V68.48H265a3.47,3.47,0,1,1,0,6.93h-1.92l5.46,4.93h-.39l-5.46-4.93v-.25H265a3.21,3.21,0,1,0,0-6.41h-3.85Z"/><path class="cls-1" d="M269.18,80.6H268l-5.61-5.07v-.62H265A2.88,2.88,0,0,0,268,72,2.88,2.88,0,0,0,265,69h-3.6V80.6h-.75V68.23H265a3.64,3.64,0,0,1,3.81,3.72A3.62,3.62,0,0,1,265,75.66h-1.27Z"/><path class="cls-1" d="M275.25,68.5l4.17,6.68,4.17-6.68h.32l-4.36,7v4.9h-.27v-4.9l-4.36-7Z"/><polygon class="cls-1" points="279.8 80.6 279.03 80.6 279.03 75.52 274.47 68.25 275.39 68.25 279.42 74.7 283.45 68.25 284.36 68.25 279.8 75.52 279.8 80.6"/><path class="cls-1" d="M294.58,68.5c7.78,0,7.78,11.85,0,11.85h-4V68.5Zm0,11.6c7.44,0,7.44-11.34,0-11.34h-3.75V80.09Z"/><path class="cls-1" d="M294.58,80.6h-4.25V68.25h4.25a6.18,6.18,0,0,1,0,12.35Zm-3.5-.75h3.5a5.42,5.42,0,0,0,0-10.84h-3.5Z"/><path class="cls-1" d="M306.52,68.73H304V80.09h2.53v.25h-5.31v-.25h2.53V68.73h-2.53V68.5h5.31Z"/><polygon class="cls-1" points="306.77 80.6 300.96 80.6 300.96 79.84 303.49 79.84 303.49 68.98 300.96 68.98 300.96 68.25 306.77 68.25 306.77 68.98 304.24 68.98 304.24 79.84 306.77 79.84 306.77 80.6"/><path class="cls-1" d="M315.66,71a2.66,2.66,0,0,0-.64-1.29,4.4,4.4,0,0,0-6.07.27,2.5,2.5,0,0,0-.53,1.81c.3,4.15,7,.9,7.76,4.7.54,2.51-1.83,4-4.08,4-1.73,0-3.83-1-4-2.9l0-.12.27,0,0,.12c.19,1.78,2.17,2.68,3.78,2.68,2.07,0,4.31-1.34,3.81-3.7-.76-3.53-7.46-.31-7.76-4.73a2.79,2.79,0,0,1,.56-2c1.73-2.24,6.61-1.95,7.19,1.12l0,.14-.25.05Z"/><path class="cls-1" d="M312.1,80.71c-1.92,0-4.07-1.09-4.28-3.12l-.05-.36.77-.1.05.36c.18,1.7,2.17,2.46,3.53,2.46a4,4,0,0,0,3.1-1.3,2.4,2.4,0,0,0,.47-2.1c-.32-1.48-1.87-1.63-3.51-1.8-1.92-.19-4.09-.41-4.26-3a3,3,0,0,1,.61-2.15,4.9,4.9,0,0,1,4.87-1.42,3.41,3.41,0,0,1,2.77,2.64l0,.38-.74.15-.05-.39a2.43,2.43,0,0,0-.58-1.16,4.15,4.15,0,0,0-5.69.25,2.25,2.25,0,0,0-.47,1.64c.14,1.92,1.75,2.08,3.61,2.27s3.72.37,4.15,2.4a3.12,3.12,0,0,1-.61,2.7A4.83,4.83,0,0,1,312.1,80.71Z"/><path class="cls-1" d="M318.56,80.09h6.31v.25h-6.58V68.5h6.54v.25h-6.27v5.53h6.14v.27h-6.14Z"/><polygon class="cls-1" points="325.12 80.6 318.07 80.6 318.04 80.35 318.04 68.25 325.08 68.25 325.08 69 318.81 69 318.81 74.03 324.95 74.03 324.95 74.8 318.81 74.8 318.81 79.84 325.12 79.84 325.12 80.6"/><path class="cls-1" d="M326.79,80.35V68.46l.24,0,7.88,11.39V68.48h.25V80.35h-.27L327.06,69V80.35Zm2.8-12.66a.87.87,0,0,1,.51-.66,1,1,0,0,1,1.14.34.67.67,0,0,0,1.15-.31l.19.05a.87.87,0,0,1-1.51.42.88.88,0,0,0-.92-.29.63.63,0,0,0-.36.49Z"/><path class="cls-1" d="M335.16,80.67l-.05-.08h-.34l-.08-.11-7.38-10.67V80.6h-.77V68.19l.63,0,7.5,10.83V68.23h.75V80.6h-.25Zm-3.43-12.59a1.17,1.17,0,0,1-.85-.38.64.64,0,0,0-.64-.23.4.4,0,0,0-.21.31L330,68l-.7-.17.05-.24a1.1,1.1,0,0,1,.67-.84,1.29,1.29,0,0,1,1.41.4.42.42,0,0,0,.73-.19l.05-.26.67.18-.05.23a1.11,1.11,0,0,1-.7.84A1,1,0,0,1,331.72,68.08Z"/><path class="cls-1" d="M344.61,76.36h-6l-1.61,4h-.29l4.76-12h.29l4.76,12h-.29Zm-5.88-.25h5.78l-2.9-7.44Z"/><path class="cls-1" d="M346.89,80.6h-.82l-1.63-4h-5.66l-1.61,4h-.83l5-12.54h.27l0-.08,0,.08h.29Zm-7.8-4.74h5.05l-2.53-6.5Z"/><path class="cls-1" d="M352.07,68.5c7.78,0,7.78,11.85,0,11.85h-4V68.5Zm0,11.6c7.44,0,7.44-11.34,0-11.34h-3.75V80.09Z"/><path class="cls-1" d="M352.07,80.6h-4.25V68.25h4.25a6.18,6.18,0,0,1,0,12.35Zm-3.5-.75h3.5a5.42,5.42,0,0,0,0-10.84h-3.5Z"/><path class="cls-1" d="M361.28,70.11a6,6,0,0,1,8.56,0,6.1,6.1,0,0,1,0,8.61,6,6,0,0,1-8.56,0,6.1,6.1,0,0,1,0-8.61Zm8.38.2a5.71,5.71,0,0,0-8.19,0,5.81,5.81,0,0,0,0,8.21,5.71,5.71,0,0,0,8.19,0,5.85,5.85,0,0,0,0-8.21Z"/><path class="cls-1" d="M365.55,80.77a6.23,6.23,0,0,1-4.45-1.87,6.35,6.35,0,0,1,0-9h0a6.25,6.25,0,0,1,8.92,0,6.35,6.35,0,0,1,0,9A6.23,6.23,0,0,1,365.55,80.77Zm0-11.93a5.46,5.46,0,0,0-3.91,1.65,5.56,5.56,0,0,0,0,7.85,5.46,5.46,0,0,0,7.83,0,5.6,5.6,0,0,0,0-7.85h0A5.47,5.47,0,0,0,365.55,68.83Z"/><path class="cls-1" d="M373.8,80.35h-.25V68.48h4.1a3.47,3.47,0,1,1,0,6.93h-1.92l5.46,4.93h-.39l-5.46-4.93v-.25h2.31a3.21,3.21,0,1,0,0-6.41H373.8Z"/><path class="cls-1" d="M381.84,80.6H380.7l-5.61-5.07v-.62h2.56a2.88,2.88,0,0,0,3.06-3,2.88,2.88,0,0,0-3.06-3H374V80.6h-.75V68.23h4.35a3.64,3.64,0,0,1,3.81,3.72,3.62,3.62,0,0,1-3.81,3.72h-1.27Z"/><path class="cls-1" d="M394.71,72.17l-2.92,8.29h-.24l-4-12h.27L391.67,80,394.52,72h.37L397.74,80l3.83-11.53h.27l-4,12h-.24Z"/><polygon class="cls-1" points="391.67 80.8 391.64 80.72 391.37 80.72 387.24 68.25 388.04 68.25 391.68 79.25 394.35 71.7 394.61 71.7 394.71 71.42 394.81 71.7 395.07 71.7 397.74 79.25 401.39 68.25 402.19 68.25 398.06 80.72 397.77 80.72 397.75 80.8 397.72 80.72 397.46 80.72 394.71 72.93 391.97 80.72 391.69 80.72 391.67 80.8"/><path class="cls-1" d="M403.7,80.09H410v.25h-6.58V68.5H410v.25H403.7v5.53h6.14v.27H403.7Z"/><polygon class="cls-1" points="410.25 80.6 403.21 80.6 403.18 80.35 403.18 68.25 410.22 68.25 410.22 69 403.95 69 403.95 74.03 410.08 74.03 410.08 74.8 403.95 74.8 403.95 79.84 410.25 79.84 410.25 80.6"/><path class="cls-1" d="M419.21,70.17a3.33,3.33,0,0,1,0,2.29,2.58,2.58,0,0,1-1.39,1.47c3.48.61,3.27,6.41-.63,6.41h-5.27V68.5h4.8A2.55,2.55,0,0,1,419.21,70.17Zm-7,3.7h4.53A2.32,2.32,0,0,0,419,72.36a3,3,0,0,0,0-2.08,2.32,2.32,0,0,0-2.25-1.51H412.2Zm0,6.22h5c3.78,0,3.78-6,0-6h-5Z"/><path class="cls-1" d="M417.2,80.6h-5.52V68.25h5a2.79,2.79,0,0,1,2.72,1.84h0a3.61,3.61,0,0,1,0,2.46,2.92,2.92,0,0,1-1,1.31,3.46,3.46,0,0,1,2,3.61A3.25,3.25,0,0,1,417.2,80.6Zm-4.75-.75h4.75a2.73,2.73,0,0,0,0-5.45h-4.75Zm0-6.22h4.28a2.06,2.06,0,0,0,2-1.35,2.69,2.69,0,0,0,0-1.9,2.06,2.06,0,0,0-2-1.35h-4.28Z"/></svg>