<?xml version="1.0" encoding="utf-8"?>
<!-- Generator: Adobe Illustrator 22.0.0, SVG Export Plug-In . SVG Version: 6.00 Build 0)  -->
<svg version="1.1" id="Capa_1" xmlns="http://www.w3.org/2000/svg" xmlns:xlink="http://www.w3.org/1999/xlink" x="0px" y="0px"
	 viewBox="0 0 440 112" style="enable-background:new 0 0 440 112;" xml:space="preserve">
<style type="text/css">
	.st0{fill:#C1272D;}
</style>
<title>Mesa de trabajo 1 copia 4</title>
<circle cx="81.5" cy="72.9" r="15.9"/>
<path class="st0" d="M73.1,4.8c-9.1,0-18.1,2.3-26.1,6.9l24.1,17.3v11.6l5-1.2c13.4-2.3,26.8,3.7,34,15.2c2.7,4.3,4.2,9.2,4.4,14.3
	c0.6,8.3-0.5,19.4-12.5,31.8c24.1-16,30.6-48.5,14.6-72.6C107,13.6,90.6,4.8,73.1,4.8L73.1,4.8z"/>
<path d="M22.6,28.8c0,3.7,0,13.6-0.1,22c0,7.1,0,13.1,0,13.1c0,2.4,0.1,5.2-0.9,7.5c-1.2,2.8-4.3,3.3-6.6,1.4
	c-0.2-0.1-0.3-0.1-0.5-0.2v26.8c2.3,1,4.8,1.6,7.4,1.7c9.5,0,18-7,21.8-15.3c2.5-5.6,3.1-11.8,3.1-17.9c0,0,0.1-39.7,0.2-56.1
	L22.6,28.8z"/>
<path d="M148.8,27v22.7c0,3.4,0,5.6-0.1,6.5c-0.1,1-0.4,1.9-1,2.6c-0.6,0.8-1.4,1.4-2.3,1.6c-1.4,0.4-2.9,0.5-4.4,0.5h-4.4V55
	c0.5,0,0.9,0.1,1.1,0.1c0.5,0,1.1-0.1,1.5-0.5c0.3-0.3,0.6-0.7,0.6-1.1c0.1-0.9,0.1-1.7,0.1-2.6V27H148.8z"/>
<path d="M170.5,47.5h-11v6c-0.1,0.8,0,1.6,0.3,2.4c0.2,0.4,0.6,0.6,1,0.5c0.5,0.1,1.1-0.2,1.3-0.7c0.3-0.9,0.4-1.9,0.3-2.8v-3.7h8v2
	c0,1.3-0.1,2.7-0.3,4c-0.3,1.1-0.8,2.1-1.5,3c-0.8,1-1.8,1.8-3,2.4c-1.5,0.6-3,0.8-4.6,0.8c-1.6,0-3.2-0.2-4.7-0.8
	c-1.2-0.5-2.3-1.2-3.1-2.2c-0.7-0.9-1.3-1.9-1.6-3c-0.3-1.5-0.5-3.1-0.4-4.7v-8.1c-0.1-2,0.3-3.9,1-5.8c0.7-1.4,1.8-2.6,3.2-3.2
	c1.6-0.8,3.3-1.1,5.1-1.1c2-0.1,4.1,0.4,5.9,1.3c1.5,0.8,2.6,2,3.3,3.6c0.7,2,1,4.1,0.9,6.3L170.5,47.5z M162.1,43v-2
	c0.1-0.9,0-1.9-0.2-2.8c-0.1-0.4-0.5-0.7-0.9-0.6c-0.6,0-1,0.2-1.1,0.5c-0.2,0.9-0.3,1.9-0.2,2.9v2L162.1,43z"/>
<path d="M181.5,27v4.4h-8.7V27H181.5z M181.5,33.1v27.8h-8.7V33.1H181.5z"/>
<path d="M201.2,42h-7.5v-1.5c0.1-0.8,0-1.6-0.2-2.4c-0.1-0.3-0.5-0.5-1.1-0.5c-0.4,0-0.8,0.1-1.1,0.5c-0.3,0.4-0.4,0.9-0.4,1.4
	c0,0.6,0,1.3,0.2,1.9c0.2,0.5,0.6,1,1.1,1.3c1.2,0.8,2.4,1.5,3.7,2.1c2.5,1.2,4.1,2.3,4.8,3.4c0.9,1.4,1.3,3,1.1,4.6
	c0.1,1.8-0.2,3.5-0.9,5.1c-0.6,1.2-1.7,2.2-2.9,2.7c-1.6,0.7-3.3,1-5,0.9c-1.9,0.1-3.8-0.3-5.5-1c-1.3-0.5-2.5-1.5-3.1-2.7
	c-0.7-1.6-1-3.4-0.9-5.2v-1.4h7.5v1.8c-0.1,1,0,2,0.3,2.9c0.2,0.5,0.7,0.8,1.2,0.7c0.5,0.1,0.9-0.1,1.3-0.5c0.3-0.6,0.4-1.2,0.4-1.9
	c0.1-0.9-0.1-1.7-0.5-2.5c-1.6-1.1-3.2-2.1-4.9-3c-2.5-1.4-4-2.7-4.6-3.8c-0.6-1.3-0.9-2.7-0.8-4c-0.1-1.7,0.2-3.4,0.9-4.9
	c0.7-1.1,1.7-2,3-2.4c1.6-0.6,3.2-0.9,4.9-0.9c1.6,0,3.2,0.2,4.7,0.7c1.1,0.4,2.2,1,3,1.8c0.6,0.6,1,1.3,1.3,2.1
	c0.2,1,0.2,2,0.2,3.1L201.2,42z"/>
<path d="M222.7,42.9v6.8c0,1.8-0.1,3.7-0.4,5.5c-0.3,1.2-0.8,2.3-1.6,3.3c-0.8,1-1.9,1.8-3.2,2.2c-1.4,0.5-2.9,0.7-4.4,0.7
	c-1.6,0-3.2-0.2-4.8-0.6c-1.2-0.3-2.2-1-3-1.9c-0.7-0.9-1.3-1.9-1.5-3c-0.4-1.7-0.5-3.5-0.5-5.3v-7.1c-0.1-2.1,0.2-4.1,0.8-6
	c0.6-1.5,1.6-2.7,3-3.5c1.7-0.9,3.6-1.4,5.6-1.3c1.7,0,3.3,0.2,4.9,0.8c2.3,0.8,4,2.7,4.7,5C222.6,39.9,222.8,41.4,222.7,42.9z
	 M214.3,40.8c0.1-0.9,0-1.8-0.2-2.7c-0.2-0.4-0.6-0.6-1-0.5c-0.4,0-0.8,0.2-1,0.5c-0.2,0.9-0.3,1.8-0.3,2.7v12.5
	c-0.1,0.9,0,1.7,0.3,2.6c0.3,0.6,1,0.8,1.5,0.5c0.2-0.1,0.4-0.3,0.5-0.4c0.2-0.8,0.3-1.6,0.2-2.3L214.3,40.8z"/>
<path d="M233.6,33.1l-0.1,2.6c0.5-0.9,1.3-1.7,2.3-2.3c0.9-0.5,2-0.8,3.1-0.8c1.3-0.1,2.5,0.3,3.6,1c0.9,0.6,1.5,1.5,1.8,2.6
	c0.3,1.7,0.5,3.5,0.4,5.2v19.5h-8.5V41.6c0.1-1.2,0-2.3-0.2-3.5c-0.1-0.4-0.5-0.6-1-0.6c-0.5-0.1-1,0.2-1.1,0.7
	c-0.2,1.3-0.3,2.6-0.2,3.9v18.8h-8.5V33.1H233.6z"/>
<path d="M254.1,27h8.8c2.1-0.1,4.3,0.1,6.3,0.6c1.4,0.4,2.7,1.4,3.5,2.6c0.9,1.3,1.3,3.5,1.3,6.4c0,2-0.3,3.4-0.9,4.2
	c-1,1-2.3,1.6-3.7,1.8c2,0.5,3.4,1.2,4.1,2.3c0.8,1.5,1.2,3.2,1.1,4.9v3.1c0.1,1.7-0.2,3.5-0.8,5.1c-0.5,1.1-1.4,1.9-2.5,2.3
	c-1.1,0.4-3.5,0.6-7,0.6h-10.2L254.1,27z M262.9,32.8v7.5h0.9c0.9,0,1.4-0.2,1.6-0.6c0.3-1.2,0.5-2.4,0.4-3.7c0-0.8-0.1-1.5-0.3-2.2
	c-0.1-0.4-0.4-0.7-0.8-0.8C264.1,32.8,263.5,32.8,262.9,32.8z M262.9,45.6v9.5c0.8,0.1,1.7-0.1,2.4-0.6c0.4-0.8,0.6-1.7,0.5-2.6
	v-3.1c0-1.5-0.2-2.3-0.5-2.6C264.6,45.7,263.7,45.5,262.9,45.6z"/>
<path d="M284.5,43.9h-7.9V42c-0.1-1.7,0.2-3.4,0.7-5c0.6-1.3,1.7-2.4,3-3.1c1.8-1,3.8-1.4,5.8-1.3c2.9,0,5,0.5,6.5,1.5
	c1.3,0.8,2.3,2.2,2.6,3.7c0.4,3,0.5,6.1,0.4,9.1v14h-8.2v-2.5c-0.9,1.9-2.8,3.1-4.9,3c-1.5,0-2.9-0.4-4.1-1.3
	c-1.2-0.8-1.9-2.7-1.9-5.5v-2.3c0-2.1,0.3-3.5,1-4.3c0.7-0.8,2.3-1.6,4.9-2.7c2.8-1.1,4.3-1.8,4.5-2.2c0.2-0.7,0.3-1.5,0.3-2.3
	c0.1-1,0-1.9-0.3-2.8c-0.2-0.4-0.6-0.7-1.1-0.7c-0.6,0-0.9,0.2-1.1,0.5c-0.2,0.9-0.3,1.9-0.2,2.9L284.5,43.9z M287.2,47.7
	c-1,0.6-1.8,1.5-2.4,2.5c-0.3,0.9-0.4,1.9-0.3,2.9c-0.1,0.9,0,1.9,0.3,2.8c0.2,0.4,0.7,0.7,1.1,0.6c0.4,0.1,0.8-0.1,1-0.5
	c0.2-0.8,0.3-1.7,0.2-2.6L287.2,47.7z"/>
<path d="M306.7,27v33.9H298V27H306.7z"/>
<path d="M317.9,27v33.9h-8.7V27H317.9z"/>
<path d="M339.6,47.5h-11v6c-0.1,0.8,0,1.6,0.3,2.4c0.2,0.4,0.6,0.6,1,0.5c0.5,0.1,1.1-0.2,1.3-0.7c0.3-0.9,0.4-1.9,0.3-2.8v-3.7h8v2
	c0,1.3-0.1,2.7-0.3,4c-0.3,1.1-0.8,2.1-1.5,3c-0.8,1-1.8,1.8-3,2.4c-1.5,0.6-3,0.8-4.6,0.8c-1.6,0-3.2-0.2-4.7-0.8
	c-1.2-0.5-2.3-1.2-3.1-2.2c-0.7-0.9-1.3-1.9-1.6-3c-0.3-1.5-0.5-3.1-0.4-4.7v-8.1c-0.1-2,0.3-3.9,1-5.8c0.7-1.4,1.8-2.6,3.2-3.2
	c1.6-0.8,3.4-1.2,5.1-1.1c2-0.1,4.1,0.4,5.9,1.3c1.4,0.8,2.6,2,3.2,3.6c0.7,2,1,4.1,0.9,6.3V47.5z M331.1,43v-2
	c0.1-0.9,0-1.9-0.2-2.8c-0.1-0.4-0.5-0.7-0.9-0.6c-0.6,0-0.9,0.2-1.1,0.5c-0.2,0.9-0.3,1.9-0.2,2.9v2L331.1,43z"/>
<path d="M359.1,42h-7.5v-1.5c0.1-0.8,0-1.6-0.2-2.4c-0.1-0.3-0.5-0.5-1.1-0.5c-0.4,0-0.8,0.1-1.1,0.5c-0.3,0.4-0.4,0.9-0.4,1.4
	c0,0.6,0,1.3,0.2,1.9c0.2,0.5,0.6,1,1.1,1.3c1.2,0.8,2.4,1.5,3.7,2.1c2.5,1.2,4.1,2.3,4.8,3.4c0.9,1.4,1.3,3,1.1,4.6
	c0.1,1.8-0.2,3.5-0.9,5.1c-0.6,1.2-1.7,2.2-2.9,2.7c-1.6,0.7-3.3,1-5,0.9c-1.9,0.1-3.8-0.3-5.5-1c-1.3-0.5-2.5-1.5-3.1-2.7
	c-0.7-1.6-1-3.4-0.9-5.2v-1.4h7.5v1.8c-0.1,1,0,2,0.3,2.9c0.2,0.4,0.6,0.7,1.1,0.7c0.5,0.1,0.9-0.1,1.3-0.5c0.3-0.6,0.4-1.2,0.4-1.9
	c0.1-0.9-0.1-1.7-0.5-2.5c-1.6-1.1-3.2-2.1-4.9-3c-2.5-1.4-4-2.7-4.5-3.8c-0.6-1.3-0.9-2.7-0.8-4c-0.1-1.7,0.2-3.4,0.9-4.9
	c0.7-1.1,1.7-2,3-2.4c1.6-0.6,3.2-0.9,4.9-0.9c1.6,0,3.2,0.2,4.7,0.7c1.1,0.4,2.2,1,3,1.8c0.6,0.6,1,1.3,1.3,2.1
	c0.2,1,0.2,2,0.2,3.1L359.1,42z"/>
<path d="M370.3,29.4v4.4h2.3v4.4h-2.3V53c-0.1,1,0,2.1,0.3,3.1c0.2,0.2,1,0.3,2.4,0.3v4.5h-3.4c-1.4,0-2.8,0-4.1-0.2
	c-0.8-0.2-1.6-0.6-2.2-1.2c-0.6-0.5-1-1.2-1.2-2c-0.2-1.7-0.3-3.5-0.2-5.3V38.2H360v-4.4h1.8v-4.4H370.3z"/>
<path d="M393.1,47.5h-11v6c-0.1,0.8,0,1.6,0.3,2.4c0.2,0.4,0.6,0.6,1,0.5c0.5,0.1,1.1-0.2,1.3-0.7c0.3-0.9,0.4-1.9,0.3-2.8v-3.7h8v2
	c0,1.3-0.1,2.7-0.3,4c-0.3,1.1-0.8,2.1-1.5,3c-0.8,1-1.8,1.8-3,2.4c-1.5,0.6-3,0.8-4.6,0.8c-1.6,0-3.2-0.2-4.7-0.8
	c-1.2-0.5-2.3-1.2-3.1-2.2c-0.7-0.9-1.3-1.9-1.6-3c-0.3-1.5-0.5-3.1-0.4-4.7v-8.1c-0.1-2,0.3-3.9,1-5.8c0.7-1.4,1.8-2.6,3.2-3.2
	c1.6-0.8,3.4-1.2,5.1-1.1c2-0.1,4.1,0.4,5.9,1.3c1.4,0.8,2.6,2,3.2,3.6c0.7,2,1,4.1,0.9,6.3V47.5z M384.6,43v-2
	c0.1-0.9,0-1.9-0.2-2.8c-0.1-0.4-0.5-0.7-0.9-0.7c-0.6,0-0.9,0.2-1.1,0.5c-0.2,0.9-0.3,1.9-0.2,2.9v2L384.6,43z"/>
<path d="M403.8,33.1l-0.3,3.7c1.2-2.6,3-4,5.3-4.2v9.8c-1.2-0.1-2.3,0.1-3.4,0.6c-0.7,0.4-1.2,1-1.3,1.8c-0.2,1.7-0.3,3.4-0.3,5.2
	v11h-8.5V33.1H403.8z"/>
<path d="M429.2,42.9v6.8c0,1.8-0.1,3.7-0.4,5.5c-0.3,1.2-0.8,2.3-1.6,3.3c-0.8,1-1.9,1.8-3.2,2.2c-1.4,0.5-2.9,0.7-4.5,0.7
	c-1.6,0-3.2-0.2-4.8-0.6c-1.2-0.3-2.2-1-3-1.9c-0.7-0.9-1.3-1.9-1.5-3c-0.4-1.7-0.5-3.5-0.5-5.3v-7.1c-0.1-2.1,0.2-4.1,0.8-6
	c0.6-1.5,1.6-2.7,3-3.5c1.7-0.9,3.6-1.4,5.6-1.3c1.7,0,3.3,0.2,4.9,0.8c2.3,0.8,4,2.7,4.7,5C429.2,39.9,429.3,41.4,429.2,42.9z
	 M420.8,40.8c0.1-0.9,0-1.8-0.2-2.7c-0.2-0.4-0.6-0.6-1-0.5c-0.4,0-0.8,0.2-1,0.5c-0.2,0.9-0.3,1.8-0.3,2.7v12.5
	c-0.1,0.9,0,1.7,0.3,2.6c0.3,0.6,1,0.8,1.5,0.5c0.2-0.1,0.4-0.3,0.5-0.4c0.2-0.8,0.3-1.6,0.2-2.3L420.8,40.8z"/>
<path d="M144.6,68.7c7.8,0,7.8,11.8,0,11.8h-4V68.7H144.6z M144.6,80.3c7.4,0,7.4-11.3,0-11.3h-3.8v11.3H144.6z"/>
<path d="M144.6,80.8h-4.3V68.4h4.3c3.4,0.1,6.1,3,5.9,6.4C150.4,78.1,147.8,80.6,144.6,80.8z M141.1,80h3.5c3,0,5.4-2.4,5.4-5.4
	c0-3-2.4-5.4-5.4-5.4l0,0h-3.5V80z"/>
<path d="M152.6,80.3h6.3v0.2h-6.6V68.7h6.5v0.3h-6.3v5.5h6.1v0.3h-6.1L152.6,80.3z"/>
<polygon points="159.2,80.8 152.1,80.8 152.1,80.5 152.1,68.4 159.2,68.4 159.2,69.2 152.9,69.2 152.9,74.2 159,74.2 159,75 
	152.9,75 152.9,80 159.2,80 "/>
<path d="M168.1,71.1c-0.1-0.5-0.3-0.9-0.6-1.3c-1.8-1.5-4.4-1.4-6.1,0.3c-0.4,0.5-0.6,1.2-0.5,1.8c0.3,4.2,7,0.9,7.8,4.7
	c0.5,2.5-1.8,4-4.1,4c-1.7,0-3.8-1-4-2.9v-0.1h0.3v0.1c0.2,1.8,2.2,2.7,3.8,2.7c2.1,0,4.3-1.3,3.8-3.7c-0.8-3.5-7.5-0.3-7.8-4.7
	c-0.1-0.7,0.1-1.4,0.6-2c1.7-2.2,6.6-1.9,7.2,1.1v0.1l-0.3,0.1L168.1,71.1z"/>
<path d="M164.6,80.9c-1.9,0-4.1-1.1-4.3-3.1l-0.1-0.4l0.8-0.1l0.1,0.4c0.2,1.7,2.2,2.5,3.5,2.5c1.2,0,2.3-0.4,3.1-1.3
	c0.5-0.6,0.7-1.4,0.5-2.1c-0.3-1.5-1.9-1.6-3.5-1.8c-1.9-0.2-4.1-0.4-4.3-3c-0.1-0.8,0.1-1.5,0.6-2.2c1.2-1.3,3.1-1.9,4.9-1.4
	c1.4,0.2,2.5,1.3,2.8,2.6v0.4l-0.7,0.2l-0.1-0.4c-0.1-0.4-0.3-0.8-0.6-1.2c-0.7-0.7-1.7-1-2.7-1h-0.1c-1.1,0-2.2,0.4-2.9,1.3
	c-0.4,0.5-0.5,1.1-0.5,1.6c0.1,1.9,1.8,2.1,3.6,2.3s3.7,0.4,4.1,2.4c0.2,0.9,0,1.9-0.6,2.7C167.3,80.3,166,80.9,164.6,80.9z"/>
<path d="M177.9,76.5h-6l-1.6,4H170l4.8-12h0.3l4.8,12h-0.3L177.9,76.5z M172.1,76.3h5.8l-2.9-7.4L172.1,76.3z"/>
<path d="M180.2,80.8h-0.8l-1.6-4h-5.7l-1.6,4h-0.8l5-12.5h0.3v-0.1v0.1h0.3L180.2,80.8z M172.5,76h5l-2.5-6.5L172.5,76z"/>
<path d="M181.7,80.5h-0.3V68.7h4.1c1.9-0.1,3.5,1.4,3.7,3.3c0.1,1.9-1.4,3.5-3.3,3.7c-0.1,0-0.2,0-0.4,0h-1.9l5.5,4.9h-0.4l-5.5-4.9
	v-0.3h2.3c1.8,0.1,3.3-1.3,3.4-3c0.1-1.8-1.3-3.3-3-3.4c-0.1,0-0.2,0-0.4,0h-3.8V80.5z"/>
<path d="M189.7,80.8h-1.1l-5.6-5.1v-0.6h2.6c1.6,0.1,3-1.1,3.1-2.7c0-0.1,0-0.2,0-0.3c0.1-1.6-1.2-2.9-2.8-3c-0.1,0-0.2,0-0.3,0
	h-3.6v11.6h-0.8V68.4h4.4c2-0.1,3.7,1.5,3.8,3.5c0,0.1,0,0.2,0,0.3c0.1,2-1.5,3.7-3.5,3.7c-0.1,0-0.2,0-0.3,0h-1.3L189.7,80.8z"/>
<path d="M191.3,80.5h-0.3V68.7h4.1c1.9-0.1,3.5,1.4,3.7,3.3c0.1,1.9-1.4,3.5-3.3,3.7c-0.1,0-0.2,0-0.4,0h-1.9l5.5,4.9h-0.4l-5.5-4.9
	v-0.3h2.3c1.8,0.1,3.3-1.3,3.4-3c0.1-1.8-1.3-3.3-3-3.4c-0.1,0-0.2,0-0.4,0h-3.9L191.3,80.5z"/>
<path d="M199.4,80.8h-1.1l-5.6-5.1v-0.6h2.6c1.6,0.1,3-1.1,3.1-2.7c0-0.1,0-0.2,0-0.3c0.1-1.6-1.2-2.9-2.8-3c-0.1,0-0.2,0-0.3,0
	h-3.6v11.6h-0.8V68.4h4.4c2-0.1,3.7,1.5,3.8,3.5c0,0.1,0,0.2,0,0.3c0.1,2-1.5,3.7-3.5,3.7c-0.1,0-0.2,0-0.3,0h-1.3L199.4,80.8z"/>
<path d="M201.8,70.3c2.3-2.4,6.1-2.4,8.5-0.1c0,0,0.1,0,0.1,0.1c2.4,2.4,2.4,6.2,0,8.6c-2.3,2.4-6.1,2.4-8.5,0.1c0,0-0.1,0-0.1-0.1
	C199.5,76.5,199.5,72.7,201.8,70.3z M210.2,70.5c-2.2-2.3-5.8-2.3-8.1-0.1c0,0-0.1,0.1-0.1,0.1c-2.3,2.3-2.3,5.9,0,8.2
	c2.2,2.3,5.8,2.3,8.1,0.1c0,0,0.1-0.1,0.1-0.1C212.5,76.4,212.5,72.7,210.2,70.5z"/>
<path d="M206.1,80.9c-1.7,0-3.3-0.7-4.4-1.9c-2.5-2.5-2.5-6.5,0-9c0,0,0,0,0,0l0,0c2.4-2.5,6.4-2.5,8.8-0.1c0,0,0.1,0.1,0.1,0.1
	c2.5,2.5,2.5,6.5,0,9c0,0,0,0,0,0C209.4,80.3,207.8,80.9,206.1,80.9z M206.1,69c-1.5,0-2.9,0.6-3.9,1.7c-2.2,2.2-2.2,5.7,0,7.8
	c2.1,2.2,5.6,2.2,7.7,0.1c0,0,0.1-0.1,0.1-0.1c2.1-2.2,2.1-5.7,0-7.8l0,0C209,69.6,207.6,69,206.1,69z"/>
<path d="M214.7,80.2h6.4v0.3h-6.6V68.7h0.3L214.7,80.2z"/>
<polygon points="221.3,80.8 214.2,80.8 214.2,68.4 215,68.4 215,80 221.3,80 "/>
<path d="M223.1,80.2h6.4v0.3h-6.6V68.7h0.3L223.1,80.2z"/>
<polygon points="229.7,80.8 222.6,80.8 222.6,68.4 223.4,68.4 223.4,80 229.7,80 "/>
<path d="M238.4,76.5h-6l-1.6,4h-0.3l4.8-12h0.3l4.8,12H240L238.4,76.5z M232.5,76.3h5.8l-2.9-7.4L232.5,76.3z"/>
<path d="M240.7,80.8h-0.8l-1.6-4h-5.7l-1.6,4h-0.8l5-12.5h0.3v-0.1v0.1h0.3L240.7,80.8z M232.9,76h5.1l-2.5-6.5L232.9,76z"/>
<path d="M245.9,68.7c7.8,0,7.8,11.8,0,11.8h-4V68.7H245.9z M245.9,80.3c7.4,0,7.4-11.3,0-11.3h-3.8v11.3H245.9z"/>
<path d="M245.9,80.8h-4.3V68.4h4.3c3.4,0.1,6.1,3,5.9,6.4C251.7,78.1,249.1,80.6,245.9,80.8z M242.4,80h3.5c3,0,5.4-2.4,5.4-5.4
	c0-3-2.4-5.4-5.4-5.4l0,0h-3.5V80z"/>
<path d="M255.1,70.3c2.3-2.4,6.1-2.4,8.5-0.1c0,0,0.1,0,0.1,0.1c2.4,2.4,2.4,6.2,0,8.6c-2.3,2.4-6.1,2.4-8.5,0.1c0,0-0.1,0-0.1-0.1
	C252.7,76.5,252.7,72.7,255.1,70.3z M263.5,70.5c-2.2-2.3-5.8-2.3-8.1-0.1c0,0-0.1,0.1-0.1,0.1c-2.3,2.3-2.3,5.9,0,8.2
	c2.2,2.3,5.8,2.3,8.1,0.1c0,0,0.1-0.1,0.1-0.1C265.7,76.4,265.7,72.8,263.5,70.5z"/>
<path d="M259.4,80.9c-1.7,0-3.3-0.7-4.4-1.9c-2.5-2.5-2.5-6.5,0-9c0,0,0,0,0,0l0,0c2.4-2.5,6.4-2.5,8.8-0.1c0,0,0.1,0.1,0.1,0.1
	c2.5,2.5,2.5,6.5,0,9c0,0,0,0,0,0C262.6,80.3,261,80.9,259.4,80.9z M259.4,69c-1.5,0-2.9,0.6-3.9,1.7c-2.2,2.2-2.2,5.7,0,7.8
	c2.1,2.2,5.6,2.2,7.7,0.1c0,0,0.1-0.1,0.1-0.1c2.1-2.2,2.1-5.7,0-7.8l0,0C262.3,69.6,260.8,69,259.4,69z"/>
<path d="M267.6,80.5h-0.3V68.7h4.1c1.9-0.1,3.5,1.4,3.7,3.3c0.1,1.9-1.4,3.5-3.3,3.7c-0.1,0-0.2,0-0.4,0h-1.9l5.5,4.9h-0.4l-5.5-4.9
	v-0.3h2.3c1.8,0.1,3.3-1.3,3.4-3c0.1-1.8-1.3-3.3-3-3.4c-0.1,0-0.2,0-0.4,0h-3.9L267.6,80.5z"/>
<path d="M275.6,80.8h-1.2l-5.6-5.1v-0.6h2.6c1.6,0.1,3-1.1,3.1-2.7c0-0.1,0-0.2,0-0.3c0.1-1.6-1.2-2.9-2.8-3c-0.1,0-0.2,0-0.3,0
	h-3.6v11.6h-0.8V68.4h4.4c2-0.1,3.7,1.5,3.8,3.5c0,0.1,0,0.2,0,0.3c0.1,2-1.5,3.7-3.5,3.7c-0.1,0-0.2,0-0.3,0h-1.3L275.6,80.8z"/>
<path d="M281.7,68.7l4.2,6.7l4.2-6.7h0.3l-4.4,7v4.8h-0.3v-4.9l-4.4-7L281.7,68.7z"/>
<polygon points="286.3,80.8 285.5,80.8 285.5,75.7 280.9,68.4 281.9,68.4 285.9,74.9 289.9,68.4 290.8,68.4 286.3,75.7 "/>
<path d="M301,68.7c7.8,0,7.8,11.8,0,11.8h-4V68.7H301z M301,80.3c7.4,0,7.4-11.3,0-11.3h-3.8v11.3H301z"/>
<path d="M301,80.8h-4.3V68.4h4.3c3.4,0.1,6.1,3,5.9,6.4C306.8,78.1,304.3,80.6,301,80.8z M297.5,80h3.5c3,0,5.4-2.4,5.4-5.4
	c0-3-2.4-5.4-5.4-5.4h-3.5V80z"/>
<path d="M313,68.9h-2.5v11.4h2.5v0.2h-5.3v-0.3h2.5V68.9h-2.5v-0.2h5.3L313,68.9z"/>
<polygon points="313.2,80.8 307.4,80.8 307.4,80 310,80 310,69.2 307.4,69.2 307.4,68.4 313.2,68.4 313.2,69.2 310.7,69.2 310.7,80 
	313.2,80 "/>
<path d="M322.1,71.1c-0.1-0.5-0.3-0.9-0.6-1.3c-1.8-1.5-4.4-1.4-6.1,0.3c-0.4,0.5-0.6,1.2-0.5,1.8c0.3,4.2,7,0.9,7.8,4.7
	c0.5,2.5-1.8,4-4.1,4c-1.7,0-3.8-1-4-2.9v-0.1h0.3v0.1c0.2,1.8,2.2,2.7,3.8,2.7c2.1,0,4.3-1.3,3.8-3.7c-0.8-3.5-7.5-0.3-7.8-4.7
	c-0.1-0.7,0.1-1.4,0.6-2c1.7-2.2,6.6-1.9,7.2,1.1v0.1l-0.3,0.1L322.1,71.1z"/>
<path d="M318.6,80.9c-1.9,0-4.1-1.1-4.3-3.1l0-0.4l0.8-0.1l0,0.4c0.2,1.7,2.2,2.5,3.5,2.5c1.2,0,2.3-0.4,3.1-1.3
	c0.5-0.6,0.7-1.4,0.5-2.1c-0.3-1.5-1.9-1.6-3.5-1.8c-1.9-0.2-4.1-0.4-4.3-3c-0.1-0.8,0.1-1.5,0.6-2.2c1.2-1.3,3.1-1.9,4.9-1.4
	c1.4,0.2,2.5,1.3,2.8,2.6v0.4l-0.7,0.2l0-0.4c-0.1-0.4-0.3-0.8-0.6-1.2c-1.7-1.4-4.2-1.3-5.7,0.3c-0.4,0.5-0.5,1.1-0.5,1.6
	c0.1,1.9,1.8,2.1,3.6,2.3s3.7,0.4,4.1,2.4c0.2,0.9,0,1.9-0.6,2.7C321.3,80.3,320,80.9,318.6,80.9z"/>
<path d="M325,80.3h6.3v0.2h-6.6V68.7h6.5v0.3H325v5.5h6.1v0.3H325L325,80.3z"/>
<polygon points="331.6,80.8 324.5,80.8 324.5,80.5 324.5,68.4 331.5,68.4 331.5,69.2 325.3,69.2 325.3,74.2 331.4,74.2 331.4,75 
	325.3,75 325.3,80 331.6,80 "/>
<path d="M333.3,80.5V68.6h0.2l7.9,11.4V68.7h0.3v11.8h-0.3l-7.8-11.3v11.3H333.3z M336.1,67.8c0-0.3,0.2-0.5,0.5-0.7
	c0.4-0.1,0.9,0,1.1,0.3c0.2,0.3,0.7,0.3,0.9,0c0.1-0.1,0.2-0.2,0.2-0.4l0.2,0.1c-0.1,0.5-0.5,0.8-1,0.7c-0.2,0-0.4-0.1-0.5-0.3
	c-0.2-0.3-0.6-0.4-0.9-0.3c-0.2,0.1-0.3,0.3-0.4,0.5L336.1,67.8z"/>
<path d="M341.6,80.8L341.6,80.8l-0.4-0.1l-0.1-0.1L333.8,70v10.8H333V68.4h0.6l7.5,10.8V68.4h0.8v12.4L341.6,80.8L341.6,80.8z
	 M338.2,68.3c-0.3,0-0.6-0.1-0.9-0.4c-0.2-0.2-0.4-0.3-0.6-0.2c-0.1,0.1-0.2,0.2-0.2,0.3l0,0.3l-0.7-0.2l0-0.2
	c0.1-0.4,0.3-0.7,0.7-0.8c0.5-0.2,1.1,0,1.4,0.4c0.2,0.2,0.4,0.2,0.6,0c0.1-0.1,0.1-0.1,0.1-0.2l0-0.3l0.7,0.2l0,0.2
	c-0.1,0.4-0.3,0.7-0.7,0.8C338.4,68.2,338.3,68.2,338.2,68.3L338.2,68.3z"/>
<path d="M351.1,76.5h-6l-1.6,4h-0.3l4.8-12h0.3l4.8,12h-0.3L351.1,76.5z M345.2,76.3h5.8l-2.9-7.4L345.2,76.3z"/>
<path d="M353.4,80.8h-0.8l-1.6-4h-5.7l-1.6,4h-0.8l5-12.5h0.3v-0.1v0.1h0.3L353.4,80.8z M345.6,76h5l-2.5-6.5L345.6,76z"/>
<path d="M358.5,68.7c7.8,0,7.8,11.8,0,11.8h-4V68.7H358.5z M358.5,80.3c7.4,0,7.4-11.3,0-11.3h-3.8v11.3H358.5z"/>
<path d="M358.5,80.8h-4.3V68.4h4.3c3.4,0.1,6.1,3,5.9,6.4C364.3,78.1,361.8,80.6,358.5,80.8z M355,80h3.5c3,0,5.4-2.4,5.4-5.4
	c0-3-2.4-5.4-5.4-5.4H355V80z"/>
<path d="M367.7,70.3c2.3-2.4,6.1-2.4,8.5-0.1c0,0,0.1,0,0.1,0.1c2.4,2.4,2.4,6.2,0,8.6c-2.3,2.4-6.1,2.4-8.5,0.1c0,0-0.1,0-0.1-0.1
	C365.4,76.5,365.4,72.7,367.7,70.3z M376.1,70.5c-2.2-2.3-5.8-2.3-8.1-0.1c0,0-0.1,0.1-0.1,0.1c-2.3,2.3-2.3,5.9,0,8.2
	c2.2,2.3,5.8,2.3,8.1,0.1c0,0,0.1-0.1,0.1-0.1C378.4,76.4,378.4,72.7,376.1,70.5z"/>
<path d="M372,80.9c-1.7,0-3.3-0.7-4.5-1.9c-2.5-2.5-2.5-6.5,0-9c0,0,0,0,0,0l0,0c2.4-2.5,6.4-2.5,8.8-0.1c0,0,0.1,0.1,0.1,0.1
	c2.5,2.5,2.5,6.5,0,9c0,0,0,0,0,0C375.3,80.3,373.7,80.9,372,80.9z M372,69c-1.5,0-2.9,0.6-3.9,1.7c-2.2,2.2-2.2,5.7,0,7.8
	c2.1,2.2,5.6,2.2,7.7,0.1c0,0,0.1-0.1,0.1-0.1c2.1-2.2,2.1-5.7,0-7.8l0,0C374.9,69.6,373.5,69,372,69z"/>
<path d="M380.3,80.5H380V68.7h4.1c1.9-0.1,3.5,1.4,3.7,3.3c0.1,1.9-1.4,3.5-3.3,3.7c-0.1,0-0.2,0-0.4,0h-1.9l5.5,4.9h-0.4l-5.5-4.9
	v-0.3h2.3c1.8,0.1,3.3-1.3,3.4-3c0.1-1.8-1.3-3.3-3-3.4c-0.1,0-0.2,0-0.4,0h-3.9V80.5z"/>
<path d="M388.3,80.8h-1.1l-5.6-5.1v-0.6h2.6c1.6,0.1,3-1.1,3.1-2.7c0-0.1,0-0.2,0-0.3c0.1-1.6-1.2-2.9-2.8-3c-0.1,0-0.2,0-0.3,0
	h-3.7v11.6h-0.8V68.4h4.4c2-0.1,3.7,1.5,3.8,3.5c0,0.1,0,0.2,0,0.3c0.1,2-1.5,3.7-3.5,3.7c-0.1,0-0.2,0-0.3,0h-1.3L388.3,80.8z"/>
<path d="M401.2,72.3l-2.9,8.3H398l-4-12h0.3l3.8,11.5l2.9-8.1h0.4l2.9,8.1l3.8-11.5h0.3l-4,12H404L401.2,72.3z"/>
<polygon points="398.1,81 398.1,80.9 397.8,80.9 393.7,68.4 394.5,68.4 398.1,79.4 400.8,71.9 401.1,71.9 401.2,71.6 401.3,71.9 
	401.5,71.9 404.2,79.4 407.9,68.4 408.7,68.4 404.5,80.9 404.2,80.9 404.2,81 404.2,80.9 403.9,80.9 401.2,73.1 398.4,80.9 
	398.2,80.9 "/>
<path d="M410.2,80.3h6.3v0.2h-6.6V68.7h6.6v0.3h-6.3v5.5h6.1v0.3h-6.1V80.3z"/>
<polygon points="416.7,80.8 409.7,80.8 409.6,80.5 409.6,68.4 416.7,68.4 416.7,69.2 410.4,69.2 410.4,74.2 416.5,74.2 416.5,75 
	410.4,75 410.4,80 416.7,80 "/>
<path d="M425.7,70.3c0.3,0.7,0.3,1.6,0,2.3c-0.2,0.7-0.7,1.2-1.4,1.5c3.5,0.6,3.3,6.4-0.6,6.4h-5.3V68.7h4.8
	C424.3,68.6,425.3,69.3,425.7,70.3z M418.7,74h4.5c1,0,1.9-0.6,2.3-1.5c0.2-0.7,0.2-1.4,0-2.1c-0.3-0.9-1.3-1.5-2.3-1.5h-4.5
	L418.7,74z M418.7,80.3h5c3.8,0,3.8-6,0-6h-5V80.3z"/>
<path d="M423.7,80.8h-5.5V68.4h5c1.2,0,2.3,0.7,2.7,1.8l0,0c0.3,0.8,0.3,1.7,0,2.5c-0.2,0.5-0.5,1-1,1.3c1.4,0.6,2.2,2.1,2,3.6
	C426.8,79.4,425.4,80.7,423.7,80.8z M418.9,80h4.8c1.5-0.1,2.7-1.4,2.6-2.9c-0.1-1.4-1.2-2.5-2.6-2.6h-4.8V80z M418.9,73.8h4.3
	c0.9,0,1.7-0.5,2-1.3c0.2-0.6,0.2-1.3,0-1.9c-0.3-0.8-1.1-1.4-2-1.3h-4.3V73.8z"/>
</svg>
