<?xml version="1.0" encoding="utf-8"?>
<!-- Generator: Adobe Illustrator 22.0.0, SVG Export Plug-In . SVG Version: 6.00 Build 0)  -->
<svg version="1.1" id="Capa_1" xmlns="http://www.w3.org/2000/svg" xmlns:xlink="http://www.w3.org/1999/xlink" x="0px" y="0px"
	 viewBox="0 0 336.5 214.6" style="enable-background:new 0 0 336.5 214.6;" xml:space="preserve">
<style type="text/css">
	.st0{fill:#C1272D;}
</style>
<g>
	<circle cx="177.7" cy="82.2" r="15.9"/>
	<path class="st0" d="M169.3,14.2c-9.1,0-18.1,2.3-26.1,6.9l24.1,17.3v11.7l5-1.2c13.4-2.3,26.8,3.7,34,15.2
		c2.7,4.3,4.2,9.2,4.4,14.3c0.6,8.3-0.5,19.4-12.5,31.8c24.1-16,30.6-48.5,14.6-72.6C203.2,22.9,186.8,14.1,169.3,14.2L169.3,14.2z"
		/>
	<path d="M118.9,38.1c0,3.7,0,13.6-0.1,22c0,7.1,0,13.1,0,13.1c0,2.4,0.1,5.2-0.9,7.5c-1.2,2.8-4.3,3.3-6.6,1.4
		c-0.2-0.1-0.3-0.1-0.5-0.2v26.8c2.3,1,4.8,1.6,7.4,1.7c9.5,0,18-7,21.8-15.3c2.6-5.6,3.1-11.8,3.1-17.9c0,0,0.1-39.7,0.2-56.1
		L118.9,38.1z"/>
</g>
<g>
	<path d="M32.1,132.3V155c0,3.4,0,5.6-0.1,6.6c-0.1,1-0.4,1.9-1,2.6c-0.6,0.8-1.4,1.4-2.3,1.6c-1.4,0.4-2.9,0.5-4.4,0.4h-4.4v-5.9
		c0.5,0,0.9,0.1,1.1,0.1c0.5,0,1.1-0.1,1.5-0.5c0.3-0.3,0.6-0.7,0.6-1.1c0.1-0.9,0.1-1.7,0.1-2.6v-23.9H32.1z"/>
	<path d="M53.8,152.8h-11v6c-0.1,0.8,0,1.6,0.3,2.4c0.2,0.4,0.6,0.6,1,0.5c0.5,0.1,1.1-0.2,1.3-0.7c0.3-0.9,0.4-1.9,0.3-2.8v-3.7h8
		v2.1c0,1.3-0.1,2.7-0.3,4c-0.3,1.1-0.8,2.1-1.5,3c-0.8,1-1.8,1.8-3,2.4c-1.5,0.6-3,0.8-4.6,0.8c-1.6,0-3.2-0.2-4.7-0.8
		c-1.2-0.5-2.3-1.2-3.1-2.2c-0.7-0.9-1.3-1.9-1.6-3c-0.3-1.5-0.5-3.1-0.4-4.7V148c-0.1-2,0.3-3.9,1-5.8c0.7-1.4,1.8-2.6,3.2-3.2
		c1.6-0.8,3.3-1.1,5.1-1.1c2-0.1,4.1,0.4,5.9,1.4c1.5,0.8,2.6,2,3.3,3.6c0.7,2,1,4.1,0.9,6.3L53.8,152.8z M45.4,148.3v-2
		c0.1-0.9,0-1.9-0.2-2.8c-0.1-0.4-0.5-0.7-0.9-0.6c-0.6,0-1,0.2-1.1,0.5c-0.2,0.9-0.3,1.9-0.2,2.9v2L45.4,148.3z"/>
	<path d="M64.8,132.3v4.4H56v-4.4H64.8z M64.8,138.4v27.8H56v-27.8H64.8z"/>
	<path d="M84.5,147.3H77v-1.5c0.1-0.8,0-1.6-0.2-2.4c-0.1-0.3-0.5-0.5-1.1-0.5c-0.4,0-0.8,0.1-1.1,0.5c-0.3,0.4-0.4,0.9-0.4,1.4
		c0,0.6,0,1.3,0.2,1.9c0.2,0.5,0.6,1,1.1,1.3c1.2,0.8,2.4,1.5,3.7,2.1c2.5,1.2,4.1,2.3,4.8,3.4c0.9,1.4,1.3,3,1.1,4.6
		c0.1,1.8-0.2,3.5-0.9,5.1c-0.6,1.2-1.7,2.2-2.9,2.7c-1.6,0.7-3.3,1-5,0.9c-1.9,0.1-3.8-0.3-5.5-1c-1.3-0.5-2.5-1.5-3.1-2.7
		c-0.7-1.6-1-3.4-0.9-5.2v-1.4h7.5v1.8c-0.1,1,0,2,0.3,2.9c0.2,0.5,0.7,0.8,1.2,0.7c0.5,0.1,0.9-0.1,1.3-0.4
		c0.3-0.6,0.4-1.2,0.4-1.9c0.1-0.9-0.1-1.7-0.5-2.5c-1.6-1.1-3.2-2.1-4.9-3c-2.5-1.4-4-2.7-4.6-3.8c-0.6-1.3-0.9-2.7-0.8-4.1
		c-0.1-1.7,0.2-3.4,0.9-4.9c0.7-1.1,1.7-2,3-2.4c1.6-0.6,3.2-0.9,4.9-0.9c1.6,0,3.2,0.2,4.7,0.7c1.1,0.4,2.2,1,3,1.8
		c0.6,0.6,1,1.3,1.3,2.1c0.2,1,0.2,2,0.2,3.1L84.5,147.3z"/>
	<path d="M106,148.2v6.8c0,1.8-0.1,3.7-0.4,5.5c-0.3,1.2-0.8,2.3-1.6,3.3c-0.8,1-1.9,1.8-3.2,2.2c-1.4,0.5-2.9,0.7-4.4,0.7
		c-1.6,0-3.2-0.2-4.8-0.6c-1.2-0.3-2.2-1-3-1.9c-0.7-0.9-1.3-1.9-1.5-3c-0.4-1.7-0.5-3.5-0.5-5.3v-7.1c-0.1-2.1,0.2-4.1,0.8-6.1
		c0.6-1.5,1.6-2.7,3-3.5c1.7-0.9,3.6-1.4,5.6-1.3c1.7,0,3.3,0.2,4.9,0.8c2.3,0.8,4,2.7,4.7,5C105.9,145.2,106.1,146.7,106,148.2z
		 M97.6,146.1c0.1-0.9,0-1.8-0.2-2.7c-0.2-0.4-0.6-0.6-1-0.6c-0.4,0-0.8,0.2-1,0.6c-0.2,0.9-0.3,1.8-0.3,2.7v12.5
		c-0.1,0.9,0,1.7,0.3,2.6c0.3,0.6,1,0.8,1.5,0.5c0.2-0.1,0.4-0.3,0.5-0.4c0.2-0.8,0.3-1.6,0.2-2.3L97.6,146.1z"/>
	<path d="M116.9,138.4l-0.1,2.6c0.5-0.9,1.3-1.7,2.3-2.3c0.9-0.5,2-0.8,3.1-0.8c1.3-0.1,2.5,0.3,3.6,1c0.9,0.6,1.5,1.5,1.8,2.6
		c0.3,1.7,0.5,3.5,0.4,5.2v19.5h-8.5V147c0.1-1.2,0-2.3-0.2-3.5c-0.1-0.4-0.5-0.6-1-0.6c-0.5-0.1-1,0.2-1.1,0.7
		c-0.2,1.3-0.3,2.6-0.2,3.9v18.8h-8.5v-27.8H116.9z"/>
	<path d="M137.4,132.3h8.8c2.1-0.1,4.3,0.1,6.3,0.7c1.4,0.4,2.7,1.4,3.5,2.6c0.9,1.3,1.3,3.5,1.3,6.4c0,2-0.3,3.4-0.9,4.2
		c-1,1-2.3,1.6-3.7,1.8c2,0.5,3.4,1.2,4.1,2.3c0.8,1.5,1.2,3.2,1.1,4.9v3.1c0.1,1.7-0.2,3.5-0.8,5.1c-0.5,1.1-1.4,1.9-2.5,2.3
		c-1.1,0.4-3.5,0.6-7,0.6h-10.2L137.4,132.3z M146.2,138.1v7.5h0.9c0.9,0,1.4-0.2,1.6-0.6c0.3-1.2,0.5-2.4,0.4-3.6
		c0-0.8-0.1-1.5-0.3-2.2c-0.1-0.4-0.4-0.7-0.8-0.8C147.4,138.2,146.8,138.1,146.2,138.1z M146.2,150.9v9.5c0.8,0.1,1.7-0.1,2.4-0.6
		c0.4-0.8,0.6-1.7,0.5-2.6v-3.1c0-1.5-0.2-2.3-0.5-2.6C147.9,151,147,150.8,146.2,150.9z"/>
	<path d="M167.8,149.2h-7.9v-1.9c-0.1-1.7,0.2-3.4,0.7-5c0.6-1.3,1.7-2.4,3-3.1c1.8-1,3.8-1.4,5.8-1.3c2.9,0,5,0.5,6.5,1.5
		c1.3,0.8,2.3,2.2,2.6,3.7c0.4,3,0.5,6.1,0.4,9.1v14h-8.2v-2.5c-0.9,1.9-2.8,3.1-4.9,3c-1.5,0-2.9-0.4-4.1-1.3
		c-1.2-0.8-1.9-2.7-1.9-5.5v-2.3c0-2.1,0.3-3.5,1-4.3c0.7-0.8,2.3-1.6,4.9-2.7c2.8-1.1,4.3-1.8,4.5-2.2c0.2-0.7,0.3-1.5,0.3-2.3
		c0.1-1,0-1.9-0.3-2.8c-0.2-0.4-0.6-0.7-1.1-0.7c-0.6,0-0.9,0.2-1.1,0.6c-0.2,0.9-0.3,1.9-0.2,2.9L167.8,149.2z M170.5,153
		c-1,0.6-1.8,1.5-2.4,2.5c-0.3,0.9-0.4,1.9-0.3,2.9c-0.1,0.9,0,1.9,0.3,2.8c0.2,0.4,0.7,0.7,1.1,0.6c0.4,0.1,0.8-0.1,1-0.5
		c0.2-0.8,0.3-1.7,0.2-2.6L170.5,153z"/>
	<path d="M190,132.3v33.9h-8.7v-33.9H190z"/>
	<path d="M201.2,132.3v33.9h-8.7v-33.9H201.2z"/>
	<path d="M222.9,152.8h-11v6c-0.1,0.8,0,1.6,0.3,2.4c0.2,0.4,0.6,0.6,1,0.5c0.5,0.1,1.1-0.2,1.3-0.7c0.3-0.9,0.4-1.9,0.3-2.8v-3.7h8
		v2.1c0,1.3-0.1,2.7-0.3,4c-0.3,1.1-0.8,2.1-1.5,3c-0.8,1-1.8,1.8-3,2.4c-1.5,0.6-3,0.8-4.6,0.8c-1.6,0-3.2-0.2-4.7-0.8
		c-1.2-0.5-2.3-1.2-3.1-2.2c-0.7-0.9-1.3-1.9-1.6-3c-0.3-1.5-0.5-3.1-0.4-4.7V148c-0.1-2,0.3-3.9,1-5.8c0.7-1.4,1.8-2.6,3.2-3.2
		c1.6-0.8,3.4-1.2,5.1-1.1c2-0.1,4.1,0.4,5.9,1.4c1.4,0.8,2.6,2,3.2,3.6c0.7,2,1,4.1,0.9,6.3V152.8z M214.4,148.3v-2
		c0.1-0.9,0-1.9-0.2-2.8c-0.1-0.4-0.5-0.7-0.9-0.6c-0.6,0-0.9,0.2-1.1,0.5c-0.2,0.9-0.3,1.9-0.2,2.9v2L214.4,148.3z"/>
	<path d="M242.4,147.3h-7.5v-1.5c0.1-0.8,0-1.6-0.2-2.4c-0.1-0.3-0.5-0.5-1.1-0.5c-0.4,0-0.8,0.1-1.1,0.5c-0.3,0.4-0.4,0.9-0.4,1.4
		c0,0.6,0,1.3,0.2,1.9c0.2,0.5,0.6,1,1.1,1.3c1.2,0.8,2.4,1.5,3.7,2.1c2.5,1.2,4.1,2.3,4.8,3.4c0.9,1.4,1.3,3,1.1,4.6
		c0.1,1.8-0.2,3.5-0.9,5.1c-0.6,1.2-1.7,2.2-2.9,2.7c-1.6,0.7-3.3,1-5,0.9c-1.9,0.1-3.8-0.3-5.5-1c-1.3-0.5-2.5-1.5-3.1-2.7
		c-0.7-1.6-1-3.4-0.9-5.2v-1.4h7.5v1.8c-0.1,1,0,2,0.3,2.9c0.2,0.4,0.6,0.7,1.1,0.7c0.5,0.1,0.9-0.1,1.3-0.5
		c0.3-0.6,0.4-1.2,0.4-1.9c0.1-0.9-0.1-1.7-0.5-2.5c-1.6-1.1-3.2-2.1-4.9-3c-2.5-1.4-4-2.7-4.5-3.8c-0.6-1.3-0.9-2.7-0.8-4
		c-0.1-1.7,0.2-3.4,0.9-4.9c0.7-1.1,1.7-2,3-2.4c1.6-0.6,3.2-0.9,4.9-0.9c1.6,0,3.2,0.2,4.7,0.7c1.1,0.4,2.2,1,3,1.9
		c0.6,0.6,1,1.3,1.3,2.1c0.2,1,0.2,2,0.2,3.1L242.4,147.3z"/>
	<path d="M253.6,134.7v4.4h2.3v4.4h-2.3v14.9c-0.1,1,0,2.1,0.3,3.1c0.2,0.2,1,0.3,2.4,0.3v4.5h-3.4c-1.4,0-2.8,0-4.1-0.2
		c-0.8-0.2-1.6-0.6-2.2-1.1c-0.6-0.5-1-1.2-1.2-2c-0.2-1.7-0.3-3.5-0.2-5.3v-14.1h-1.8v-4.4h1.8v-4.4H253.6z"/>
	<path d="M276.4,152.8h-11v6c-0.1,0.8,0,1.6,0.3,2.4c0.2,0.4,0.6,0.6,1,0.5c0.5,0.1,1.1-0.2,1.3-0.7c0.3-0.9,0.4-1.9,0.3-2.8v-3.7h8
		v2.1c0,1.3-0.1,2.7-0.3,4c-0.3,1.1-0.8,2.1-1.5,3c-0.8,1-1.8,1.8-3,2.4c-1.5,0.6-3,0.8-4.6,0.8c-1.6,0-3.2-0.2-4.7-0.8
		c-1.2-0.5-2.3-1.2-3.1-2.2c-0.7-0.9-1.3-1.9-1.6-3c-0.3-1.5-0.5-3.1-0.4-4.7V148c-0.1-2,0.3-3.9,1-5.8c0.7-1.4,1.8-2.6,3.2-3.2
		c1.6-0.8,3.4-1.2,5.1-1.1c2-0.1,4.1,0.4,5.9,1.4c1.4,0.8,2.6,2,3.2,3.6c0.7,2,1,4.1,0.9,6.3V152.8z M267.9,148.3v-2
		c0.1-0.9,0-1.9-0.2-2.8c-0.1-0.4-0.5-0.7-0.9-0.7c-0.6,0-0.9,0.2-1.1,0.5c-0.2,0.9-0.3,1.9-0.2,2.9v2L267.9,148.3z"/>
	<path d="M287.1,138.4l-0.3,3.7c1.2-2.6,3-4,5.3-4.2v9.8c-1.2-0.1-2.3,0.1-3.4,0.6c-0.7,0.4-1.2,1-1.3,1.8c-0.2,1.7-0.3,3.4-0.3,5.2
		v11h-8.5v-27.8H287.1z"/>
	<path d="M312.5,148.2v6.8c0,1.8-0.1,3.7-0.4,5.5c-0.3,1.2-0.8,2.3-1.6,3.3c-0.8,1-1.9,1.8-3.2,2.2c-1.4,0.5-2.9,0.7-4.5,0.7
		c-1.6,0-3.2-0.2-4.8-0.6c-1.2-0.3-2.2-1-3-1.9c-0.7-0.9-1.3-1.9-1.5-3c-0.4-1.7-0.5-3.5-0.5-5.3v-7.1c-0.1-2.1,0.2-4.1,0.8-6.1
		c0.6-1.5,1.6-2.7,3-3.5c1.7-0.9,3.6-1.4,5.6-1.3c1.7,0,3.3,0.2,4.9,0.8c2.3,0.8,4,2.7,4.7,5C312.5,145.2,312.6,146.7,312.5,148.2z
		 M304.1,146.1c0.1-0.9,0-1.8-0.2-2.7c-0.2-0.4-0.6-0.6-1-0.6c-0.4,0-0.8,0.2-1,0.6c-0.2,0.9-0.3,1.8-0.3,2.7v12.5
		c-0.1,0.9,0,1.7,0.3,2.6c0.3,0.6,1,0.8,1.5,0.5c0.2-0.1,0.4-0.3,0.5-0.4c0.2-0.8,0.3-1.6,0.2-2.3L304.1,146.1z"/>
	<path d="M27.9,174c7.8,0,7.8,11.8,0,11.8h-4V174H27.9z M27.9,185.6c7.4,0,7.4-11.3,0-11.3h-3.8v11.3H27.9z"/>
	<path d="M27.9,186.1h-4.3v-12.3h4.3c3.4,0.1,6.1,3,5.9,6.4C33.7,183.4,31.1,186,27.9,186.1z M24.4,185.3h3.5c3,0,5.4-2.4,5.4-5.4
		s-2.4-5.4-5.4-5.4l0,0h-3.5V185.3z"/>
	<path d="M35.9,185.6h6.3v0.2h-6.6V174h6.5v0.3h-6.3v5.5h6.1v0.3h-6.1L35.9,185.6z"/>
	<polygon points="42.5,186.1 35.4,186.1 35.4,185.8 35.4,173.7 42.4,173.7 42.4,174.5 36.2,174.5 36.2,179.5 42.3,179.5 42.3,180.3 
		36.2,180.3 36.2,185.3 42.5,185.3 	"/>
	<path d="M51.4,176.5c-0.1-0.5-0.3-0.9-0.6-1.3c-1.8-1.5-4.4-1.4-6.1,0.3c-0.4,0.5-0.6,1.2-0.5,1.8c0.3,4.1,7,0.9,7.8,4.7
		c0.5,2.5-1.8,4-4.1,4c-1.7,0-3.8-1-4-2.9v-0.1h0.3v0.1c0.2,1.8,2.2,2.7,3.8,2.7c2.1,0,4.3-1.3,3.8-3.7c-0.8-3.5-7.5-0.3-7.8-4.7
		c-0.1-0.7,0.1-1.4,0.6-2c1.7-2.2,6.6-1.9,7.2,1.1v0.1l-0.3,0.1L51.4,176.5z"/>
	<path d="M47.9,186.2c-1.9,0-4.1-1.1-4.3-3.1l-0.1-0.4l0.8-0.1l0.1,0.4c0.2,1.7,2.2,2.5,3.5,2.5c1.2,0,2.3-0.4,3.1-1.3
		c0.5-0.6,0.7-1.4,0.5-2.1c-0.3-1.5-1.9-1.6-3.5-1.8c-1.9-0.2-4.1-0.4-4.3-3c-0.1-0.8,0.1-1.5,0.6-2.1c1.2-1.3,3.1-1.9,4.9-1.4
		c1.4,0.2,2.5,1.3,2.8,2.6v0.4l-0.7,0.2l-0.1-0.4c-0.1-0.4-0.3-0.8-0.6-1.2c-0.7-0.7-1.7-1-2.7-1h-0.1c-1.1,0-2.2,0.4-2.9,1.3
		c-0.4,0.5-0.5,1.1-0.5,1.6c0.1,1.9,1.8,2.1,3.6,2.3c1.9,0.2,3.7,0.4,4.1,2.4c0.2,0.9,0,1.9-0.6,2.7
		C50.6,185.6,49.3,186.2,47.9,186.2z"/>
	<path d="M61.2,181.8h-6l-1.6,4h-0.3l4.8-12h0.3l4.8,12h-0.3L61.2,181.8z M55.3,181.6h5.8l-2.9-7.4L55.3,181.6z"/>
	<path d="M63.5,186.1h-0.8l-1.6-4h-5.7l-1.6,4H53l5-12.5h0.3v-0.1v0.1h0.3L63.5,186.1z M55.8,181.3h5l-2.5-6.5L55.8,181.3z"/>
	<path d="M65,185.8h-0.3V174h4.1c1.9-0.1,3.5,1.4,3.7,3.3c0.1,1.9-1.4,3.5-3.3,3.7c-0.1,0-0.2,0-0.4,0h-1.9l5.5,4.9H72l-5.5-4.9
		v-0.3h2.3c1.8,0.1,3.3-1.3,3.4-3c0.1-1.8-1.3-3.3-3-3.4c-0.1,0-0.2,0-0.4,0H65V185.8z"/>
	<path d="M73,186.1h-1.1l-5.6-5.1v-0.6h2.6c1.6,0.1,3-1.1,3.1-2.7c0-0.1,0-0.2,0-0.3c0.1-1.6-1.2-2.9-2.8-3c-0.1,0-0.2,0-0.3,0h-3.6
		V186h-0.8v-12.3h4.4c2-0.1,3.7,1.5,3.8,3.5c0,0.1,0,0.2,0,0.3c0.1,2-1.5,3.7-3.5,3.7c-0.1,0-0.2,0-0.3,0h-1.3L73,186.1z"/>
	<path d="M74.6,185.8h-0.3V174h4.1c1.9-0.1,3.5,1.4,3.7,3.3c0.1,1.9-1.4,3.5-3.3,3.7c-0.1,0-0.2,0-0.4,0h-1.9l5.5,4.9h-0.4l-5.5-4.9
		v-0.3h2.3c1.8,0.1,3.3-1.3,3.4-3c0.1-1.8-1.3-3.3-3-3.4c-0.1,0-0.2,0-0.4,0h-3.9L74.6,185.8z"/>
	<path d="M82.6,186.1h-1.1l-5.6-5.1v-0.6h2.6c1.6,0.1,3-1.1,3.1-2.7c0-0.1,0-0.2,0-0.3c0.1-1.6-1.2-2.9-2.8-3c-0.1,0-0.2,0-0.3,0
		h-3.6V186h-0.8v-12.3h4.4c2-0.1,3.7,1.5,3.8,3.5c0,0.1,0,0.2,0,0.3c0.1,2-1.5,3.7-3.5,3.7c-0.1,0-0.2,0-0.3,0h-1.3L82.6,186.1z"/>
	<path d="M85.1,175.6c2.3-2.4,6.1-2.4,8.5-0.1c0,0,0.1,0,0.1,0.1c2.4,2.4,2.4,6.2,0,8.6c-2.3,2.4-6.1,2.4-8.5,0.1c0,0-0.1,0-0.1-0.1
		C82.8,181.8,82.8,178,85.1,175.6z M93.5,175.8c-2.2-2.3-5.8-2.3-8.1-0.1c0,0-0.1,0.1-0.1,0.1c-2.3,2.3-2.3,5.9,0,8.2
		c2.2,2.3,5.8,2.3,8.1,0.1c0,0,0.1-0.1,0.1-0.1C95.8,181.7,95.8,178.1,93.5,175.8z"/>
	<path d="M89.4,186.3c-1.7,0-3.3-0.7-4.4-1.9c-2.5-2.5-2.5-6.5,0-9c0,0,0,0,0,0l0,0c2.4-2.5,6.4-2.5,8.8-0.1c0,0,0.1,0.1,0.1,0.1
		c2.5,2.5,2.5,6.5,0,9c0,0,0,0,0,0C92.7,185.6,91.1,186.3,89.4,186.3z M89.4,174.3c-1.5,0-2.9,0.6-3.9,1.6c-2.2,2.2-2.2,5.7,0,7.9
		c2.1,2.2,5.6,2.2,7.7,0.1c0,0,0.1-0.1,0.1-0.1c2.1-2.2,2.1-5.7,0-7.9l0,0C92.3,174.9,90.9,174.3,89.4,174.3z"/>
	<path d="M98,185.6h6.4v0.3h-6.6V174H98L98,185.6z"/>
	<polygon points="104.6,186.1 97.5,186.1 97.5,173.7 98.3,173.7 98.3,185.3 104.6,185.3 	"/>
	<path d="M106.4,185.6h6.4v0.3h-6.6V174h0.3L106.4,185.6z"/>
	<polygon points="113,186.1 105.9,186.1 105.9,173.7 106.7,173.7 106.7,185.3 113,185.3 	"/>
	<path d="M121.7,181.8h-6l-1.6,4h-0.3l4.8-12h0.3l4.8,12h-0.3L121.7,181.8z M115.8,181.6h5.8l-2.9-7.4L115.8,181.6z"/>
	<path d="M124,186.1h-0.8l-1.6-4h-5.7l-1.6,4h-0.8l5-12.5h0.3v-0.1v0.1h0.3L124,186.1z M116.2,181.3h5.1l-2.5-6.5L116.2,181.3z"/>
	<path d="M129.2,174c7.8,0,7.8,11.8,0,11.8h-4V174H129.2z M129.2,185.6c7.4,0,7.4-11.3,0-11.3h-3.7v11.3H129.2z"/>
	<path d="M129.2,186.1h-4.2v-12.3h4.2c3.4,0.1,6.1,3,5.9,6.4C135,183.4,132.4,186,129.2,186.1z M125.7,185.3h3.5
		c3,0,5.4-2.4,5.4-5.4s-2.4-5.4-5.4-5.4l0,0h-3.5V185.3z"/>
	<path d="M138.4,175.6c2.3-2.4,6.1-2.4,8.5-0.1c0,0,0.1,0,0.1,0.1c2.4,2.4,2.4,6.2,0,8.6c-2.3,2.4-6.1,2.4-8.5,0.1
		c0,0-0.1,0-0.1-0.1C136,181.8,136,178,138.4,175.6z M146.8,175.8c-2.2-2.3-5.8-2.3-8.1-0.1c0,0-0.1,0.1-0.1,0.1
		c-2.3,2.3-2.3,5.9,0,8.2c2.2,2.3,5.8,2.3,8.1,0.1c0,0,0.1-0.1,0.1-0.1C149,181.8,149,178.1,146.8,175.8z"/>
	<path d="M142.6,186.3c-1.7,0-3.3-0.7-4.4-1.9c-2.5-2.5-2.5-6.5,0-9c0,0,0,0,0,0l0,0c2.4-2.5,6.4-2.5,8.8-0.1c0,0,0.1,0.1,0.1,0.1
		c2.5,2.5,2.5,6.5,0,9c0,0,0,0,0,0C145.9,185.6,144.3,186.3,142.6,186.3z M142.6,174.3c-1.5,0-2.9,0.6-3.9,1.6
		c-2.2,2.2-2.2,5.7,0,7.9c2.1,2.2,5.6,2.2,7.7,0.1c0,0,0.1-0.1,0.1-0.1c2.1-2.2,2.1-5.7,0-7.9l0,0
		C145.6,174.9,144.1,174.3,142.6,174.3z"/>
	<path d="M150.9,185.8h-0.3V174h4.1c1.9-0.1,3.5,1.4,3.7,3.3s-1.4,3.5-3.3,3.7c-0.1,0-0.2,0-0.4,0h-1.9l5.5,4.9h-0.4l-5.5-4.9v-0.3
		h2.3c1.8,0.1,3.3-1.3,3.4-3s-1.3-3.3-3-3.4c-0.1,0-0.2,0-0.4,0h-3.9L150.9,185.8z"/>
	<path d="M158.9,186.1h-1.2l-5.6-5.1v-0.6h2.6c1.6,0.1,3-1.1,3.1-2.7c0-0.1,0-0.2,0-0.3c0.1-1.6-1.2-2.9-2.8-3c-0.1,0-0.2,0-0.3,0
		h-3.6V186h-0.8v-12.3h4.4c2-0.1,3.7,1.5,3.8,3.5c0,0.1,0,0.2,0,0.3c0.1,2-1.5,3.7-3.5,3.7c-0.1,0-0.2,0-0.3,0h-1.3L158.9,186.1z"/>
	<path d="M165,174l4.2,6.7l4.2-6.7h0.3l-4.4,7v4.8H169v-4.9l-4.4-7L165,174z"/>
	<polygon points="169.6,186.1 168.8,186.1 168.8,181 164.2,173.7 165.1,173.7 169.2,180.2 173.2,173.7 174.1,173.7 169.6,181 	"/>
	<path d="M184.3,174c7.8,0,7.8,11.8,0,11.8h-4V174H184.3z M184.3,185.6c7.4,0,7.4-11.3,0-11.3h-3.8v11.3H184.3z"/>
	<path d="M184.3,186.1h-4.3v-12.3h4.3c3.4,0.1,6.1,3,5.9,6.4C190.1,183.4,187.6,186,184.3,186.1z M180.8,185.3h3.5
		c3,0,5.4-2.4,5.4-5.4s-2.4-5.4-5.4-5.4h-3.5V185.3z"/>
	<path d="M196.3,174.2h-2.5v11.4h2.5v0.2H191v-0.3h2.5v-11.4H191V174h5.3L196.3,174.2z"/>
	<polygon points="196.5,186.1 190.7,186.1 190.7,185.3 193.2,185.3 193.2,174.5 190.7,174.5 190.7,173.7 196.5,173.7 196.5,174.5 
		194,174.5 194,185.3 196.5,185.3 	"/>
	<path d="M205.4,176.5c-0.1-0.5-0.3-0.9-0.6-1.3c-1.8-1.5-4.4-1.4-6.1,0.3c-0.4,0.5-0.6,1.2-0.5,1.8c0.3,4.1,7,0.9,7.8,4.7
		c0.5,2.5-1.8,4-4.1,4c-1.7,0-3.8-1-4-2.9v-0.1h0.3v0.1c0.2,1.8,2.2,2.7,3.8,2.7c2.1,0,4.3-1.3,3.8-3.7c-0.8-3.5-7.5-0.3-7.8-4.7
		c-0.1-0.7,0.1-1.4,0.6-2c1.7-2.2,6.6-1.9,7.2,1.1v0.1l-0.3,0.1L205.4,176.5z"/>
	<path d="M201.9,186.2c-1.9,0-4.1-1.1-4.3-3.1l0-0.4l0.8-0.1l0,0.4c0.2,1.7,2.2,2.5,3.5,2.5c1.2,0,2.3-0.4,3.1-1.3
		c0.5-0.6,0.7-1.4,0.5-2.1c-0.3-1.5-1.9-1.6-3.5-1.8c-1.9-0.2-4.1-0.4-4.3-3c-0.1-0.8,0.1-1.5,0.6-2.1c1.2-1.3,3.1-1.9,4.9-1.4
		c1.4,0.2,2.5,1.3,2.8,2.6v0.4l-0.7,0.2l0-0.4c-0.1-0.4-0.3-0.8-0.6-1.2c-1.7-1.4-4.2-1.3-5.7,0.3c-0.4,0.5-0.5,1.1-0.5,1.6
		c0.1,1.9,1.8,2.1,3.6,2.3c1.9,0.2,3.7,0.4,4.1,2.4c0.2,0.9,0,1.9-0.6,2.7C204.6,185.6,203.3,186.2,201.9,186.2z"/>
	<path d="M208.3,185.6h6.3v0.2H208V174h6.5v0.3h-6.3v5.5h6.1v0.3h-6.1L208.3,185.6z"/>
	<polygon points="214.9,186.1 207.8,186.1 207.8,185.8 207.8,173.7 214.8,173.7 214.8,174.5 208.6,174.5 208.6,179.5 214.7,179.5 
		214.7,180.3 208.6,180.3 208.6,185.3 214.9,185.3 	"/>
	<path d="M216.5,185.8V174h0.2l7.9,11.4V174h0.3v11.9h-0.3l-7.8-11.3v11.3H216.5z M219.3,173.2c0-0.3,0.2-0.5,0.5-0.7
		c0.4-0.1,0.9,0,1.1,0.3c0.2,0.3,0.7,0.3,0.9,0c0.1-0.1,0.2-0.2,0.2-0.4l0.2,0.1c-0.1,0.5-0.5,0.8-1,0.7c-0.2,0-0.4-0.1-0.5-0.3
		c-0.2-0.3-0.6-0.4-0.9-0.3c-0.2,0.1-0.3,0.3-0.4,0.5L219.3,173.2z"/>
	<path d="M224.9,186.2L224.9,186.2l-0.4-0.1l-0.1-0.1l-7.4-10.7v10.8h-0.8v-12.4h0.6l7.5,10.8v-10.8h0.8v12.4L224.9,186.2
		L224.9,186.2z M221.5,173.6c-0.3,0-0.6-0.1-0.9-0.4c-0.2-0.2-0.4-0.3-0.6-0.2c-0.1,0.1-0.2,0.2-0.2,0.3l0,0.3l-0.7-0.2l0-0.2
		c0.1-0.4,0.3-0.7,0.7-0.8c0.5-0.2,1.1,0,1.4,0.4c0.2,0.2,0.4,0.2,0.6,0c0.1-0.1,0.1-0.1,0.1-0.2l0-0.3l0.7,0.2l0,0.2
		c-0.1,0.4-0.3,0.7-0.7,0.8C221.7,173.5,221.6,173.6,221.5,173.6L221.5,173.6z"/>
	<path d="M234.4,181.8h-6l-1.6,4h-0.3l4.8-12h0.3l4.8,12H236L234.4,181.8z M228.5,181.6h5.8l-2.9-7.4L228.5,181.6z"/>
	<path d="M236.6,186.1h-0.8l-1.6-4h-5.7l-1.6,4h-0.8l5-12.5h0.3v-0.1v0.1h0.3L236.6,186.1z M228.8,181.3h5l-2.5-6.5L228.8,181.3z"/>
	<path d="M241.8,174c7.8,0,7.8,11.8,0,11.8h-4V174H241.8z M241.8,185.6c7.4,0,7.4-11.3,0-11.3h-3.8v11.3H241.8z"/>
	<path d="M241.8,186.1h-4.3v-12.3h4.3c3.4,0.1,6.1,3,5.9,6.4C247.6,183.4,245,186,241.8,186.1z M238.3,185.3h3.5
		c3,0,5.4-2.4,5.4-5.4s-2.4-5.4-5.4-5.4h-3.5V185.3z"/>
	<path d="M251,175.6c2.3-2.4,6.1-2.4,8.5-0.1c0,0,0.1,0,0.1,0.1c2.4,2.4,2.4,6.2,0,8.6c-2.3,2.4-6.1,2.4-8.5,0.1c0,0-0.1,0-0.1-0.1
		C248.7,181.8,248.7,178,251,175.6z M259.4,175.8c-2.2-2.3-5.8-2.3-8.1-0.1c0,0-0.1,0.1-0.1,0.1c-2.3,2.3-2.3,5.9,0,8.2
		c2.2,2.3,5.8,2.3,8.1,0.1c0,0,0.1-0.1,0.1-0.1C261.7,181.7,261.7,178.1,259.4,175.8z"/>
	<path d="M255.3,186.3c-1.7,0-3.3-0.7-4.5-1.9c-2.5-2.5-2.5-6.5,0-9c0,0,0,0,0,0l0,0c2.4-2.5,6.4-2.5,8.8-0.1c0,0,0.1,0.1,0.1,0.1
		c2.5,2.5,2.5,6.5,0,9c0,0,0,0,0,0C258.6,185.6,257,186.3,255.3,186.3z M255.3,174.3c-1.5,0-2.9,0.6-3.9,1.6c-2.2,2.2-2.2,5.7,0,7.9
		c2.1,2.2,5.6,2.2,7.7,0.1c0,0,0.1-0.1,0.1-0.1c2.1-2.2,2.1-5.7,0-7.9l0,0C258.2,174.9,256.8,174.3,255.3,174.3z"/>
	<path d="M263.6,185.8h-0.3V174h4.1c1.9-0.1,3.5,1.4,3.7,3.3s-1.4,3.5-3.3,3.7c-0.1,0-0.2,0-0.4,0h-1.9l5.5,4.9h-0.4l-5.5-4.9v-0.3
		h2.3c1.8,0.1,3.3-1.3,3.4-3s-1.3-3.3-3-3.4c-0.1,0-0.2,0-0.4,0h-3.9V185.8z"/>
	<path d="M271.6,186.1h-1.1l-5.6-5.1v-0.6h2.6c1.6,0.1,3-1.1,3.1-2.7c0-0.1,0-0.2,0-0.3c0.1-1.6-1.2-2.9-2.8-3c-0.1,0-0.2,0-0.3,0
		h-3.7V186H263v-12.3h4.4c2-0.1,3.7,1.5,3.8,3.5c0,0.1,0,0.2,0,0.3c0.1,2-1.5,3.7-3.5,3.7c-0.1,0-0.2,0-0.3,0h-1.3L271.6,186.1z"/>
	<path d="M284.5,177.7l-2.9,8.3h-0.2l-4-12h0.3l3.8,11.5l2.9-8.1h0.4l2.9,8.1l3.8-11.5h0.3l-4,12h-0.2L284.5,177.7z"/>
	<polygon points="281.4,186.3 281.4,186.2 281.1,186.2 277,173.7 277.8,173.7 281.4,184.7 284.1,177.2 284.4,177.2 284.5,176.9 
		284.6,177.2 284.8,177.2 287.5,184.7 291.1,173.7 291.9,173.7 287.8,186.2 287.5,186.2 287.5,186.3 287.5,186.2 287.2,186.2 
		284.5,178.4 281.7,186.2 281.4,186.2 	"/>
	<path d="M293.5,185.6h6.3v0.2h-6.6V174h6.6v0.3h-6.3v5.5h6.1v0.3h-6.1V185.6z"/>
	<polygon points="300,186.1 293,186.1 292.9,185.8 292.9,173.7 300,173.7 300,174.5 293.7,174.5 293.7,179.5 299.8,179.5 
		299.8,180.3 293.7,180.3 293.7,185.3 300,185.3 	"/>
	<path d="M309,175.7c0.3,0.7,0.3,1.6,0,2.3c-0.2,0.7-0.7,1.2-1.4,1.5c3.5,0.6,3.3,6.4-0.6,6.4h-5.3V174h4.8
		C307.6,173.9,308.6,174.6,309,175.7z M302,179.4h4.5c1,0,1.9-0.6,2.3-1.5c0.2-0.7,0.2-1.4,0-2.1c-0.3-0.9-1.3-1.5-2.3-1.5H302
		L302,179.4z M302,185.6h5c3.8,0,3.8-6,0-6h-5V185.6z"/>
	<path d="M307,186.1h-5.5v-12.3h5c1.2,0,2.3,0.7,2.7,1.8l0,0c0.3,0.8,0.3,1.7,0,2.5c-0.2,0.5-0.5,1-1,1.3c1.4,0.6,2.2,2.1,2,3.6
		C310.1,184.7,308.7,186.1,307,186.1z M302.2,185.3h4.8c1.5-0.1,2.7-1.4,2.6-2.9c-0.1-1.4-1.2-2.5-2.6-2.6h-4.8V185.3z M302.2,179.1
		h4.3c0.9,0,1.7-0.5,2-1.3c0.2-0.6,0.2-1.3,0-1.9c-0.3-0.8-1.1-1.4-2-1.3h-4.3V179.1z"/>
</g>
</svg>
