<svg id="Capa_1" data-name="Capa 1" xmlns="http://www.w3.org/2000/svg" viewBox="0 0 200 166"><defs><style>.cls-1{fill:#c1272d;}</style></defs><title>Mesa de trabajo 1</title><circle cx="118.27" cy="112.21" r="24.73"/><path class="cls-1" d="M105.12,6.34A81.39,81.39,0,0,0,64.58,17l37.54,26.83V62l7.74-1.88a52.21,52.21,0,0,1,52.88,23.63c4.48,7,6.35,14.1,6.91,22.3.88,12.94-.72,30.24-19.42,49.51A81.41,81.41,0,0,0,105.12,6.34Z"/><path d="M26.7,43.54c0,5.72-.06,21.2-.09,34.22,0,11,0,20.33,0,20.4,0,3.82.09,8-1.45,11.6-1.84,4.28-6.64,5.06-10.28,2.2-.27-.13-.53-.19-.81-.34v41.71A31.44,31.44,0,0,0,25.55,156c14.82,0,27.93-10.82,33.92-23.87,4-8.65,4.79-18.42,4.82-27.82,0,0,.2-61.7.29-87.32Z"/></svg>