<?xml version="1.0" encoding="utf-8"?>
<!-- Generator: Adobe Illustrator 22.0.0, SVG Export Plug-In . SVG Version: 6.00 Build 0)  -->
<svg version="1.1" id="Capa_1" xmlns="http://www.w3.org/2000/svg" xmlns:xlink="http://www.w3.org/1999/xlink" x="0px" y="0px"
	 viewBox="0 0 229.3 274" style="enable-background:new 0 0 229.3 274;" xml:space="preserve">
<style type="text/css">
	.st0{display:none;fill:#E17600;}
	.st1{display:none;fill:none;}
	.st2{fill:#FFE100;}
	.st3{fill:#F8C300;}
	.st4{fill:#EA9201;}
	.st5{fill:#DF7400;}
	.st6{fill:url(#SVGID_1_);}
	.st7{fill:url(#SVGID_2_);}
	.st8{fill:url(#SVGID_3_);}
	.st9{fill:url(#SVGID_4_);}
	.st10{fill:#FFFFFF;}
	.st11{fill:#A7A4A9;}
</style>
<circle class="st0" cx="178" cy="215.1" r="10.3"/>
<circle class="st1" cx="157.5" cy="192.9" r="10.3"/>
<g>
	<circle class="st2" cx="59.5" cy="87.4" r="24"/>
	<circle class="st3" cx="59.5" cy="149.5" r="24"/>
	<circle class="st4" cx="117" cy="149.5" r="24"/>
	<circle class="st5" cx="174.4" cy="149.5" r="24"/>
	
		<linearGradient id="SVGID_1_" gradientUnits="userSpaceOnUse" x1="91.4452" y1="-16011.7227" x2="198.4337" y2="-16011.7227" gradientTransform="matrix(1 0 0 -1 0 -15950.667)">
		<stop  offset="0" style="stop-color:#FCD700"/>
		<stop  offset="1" style="stop-color:#E27C00"/>
	</linearGradient>
	<path class="st6" d="M191.2,74.9C191.2,74.9,191.2,74.9,191.2,74.9c-36.1-2.5-50.4-20.5-56.1-35.8c0,0,0-0.1,0.1-0.1
		c-0.1,0-0.1-0.1-0.2-0.1c-4.4-12-3.4-22.4-3.4-22.4c0,0,0,0,0,0c-4.2-5.1-10.5-8.4-17.6-8.4c-12.5,0-22.7,10.2-22.7,22.7
		c0,7.4,3.6,14,9.1,18.1c0.1-0.1,10-1.1,21.1,2.3l1.4,0.4c15.6,5.2,34.2,19.2,36.7,55.9c0,0,0,0,0,0c0,0,0,0,0,0v0l0,0
		c4.1,4.1,9.8,6.7,16.1,6.7c12.5,0,22.7-10.2,22.7-22.7C198.4,84.9,195.7,79,191.2,74.9z"/>
</g>
<g>
	<circle class="st2" cx="-624.3" cy="-147" r="24"/>
	<circle class="st3" cx="-624.3" cy="-84.8" r="24"/>
	<circle class="st4" cx="-566.9" cy="-84.8" r="24"/>
	<circle class="st5" cx="-509.4" cy="-84.8" r="24"/>
	
		<linearGradient id="SVGID_2_" gradientUnits="userSpaceOnUse" x1="-592.3663" y1="-15777.3926" x2="-485.3779" y2="-15777.3926" gradientTransform="matrix(1 0 0 -1 0 -15950.667)">
		<stop  offset="0" style="stop-color:#FCD700"/>
		<stop  offset="1" style="stop-color:#E27C00"/>
	</linearGradient>
	<path class="st7" d="M-492.6-159.5C-492.6-159.5-492.6-159.5-492.6-159.5c-36.1-2.5-50.4-20.5-56.1-35.8c0,0,0-0.1,0.1-0.1
		c-0.1,0-0.1-0.1-0.2-0.1c-4.4-12-3.4-22.4-3.4-22.4c0,0,0,0,0,0c-4.2-5.1-10.5-8.4-17.6-8.4c-12.5,0-22.7,10.2-22.7,22.7
		c0,7.4,3.6,14,9.1,18.1c0.1-0.1,10-1.1,21.1,2.3l1.4,0.4c15.6,5.2,34.2,19.2,36.7,55.9c0,0,0,0,0,0c0,0,0,0,0,0v0l0,0
		c4.1,4.1,9.8,6.7,16.1,6.7c12.5,0,22.7-10.2,22.7-22.7C-485.4-149.4-488.1-155.3-492.6-159.5z"/>
</g>
<g>
	<g>
		<path class="st2" d="M58.8,217.3c0,0.6-0.1,1.3-0.1,2c-0.3,6.3-2.4,11.1-9.6,11.1c-10.5,0-11.2-6.7-11.2-15.8v-4.9
			c0.3-8.7,1-15.2,11.2-15.2c5.7,0.1,8.9,3,9.4,8.9c0.1,0.9,0.2,1.7,0.1,2.6h-6.3c-0.3-2.2,0-6.3-3.2-6.3c-5,0-4.6,6-4.6,8.6v9.5
			c0,2.8,0.2,7.4,4.6,7.4c3.5,0,3.1-5.7,3.2-7.9H58.8z"/>
		<path class="st2" d="M63.2,212.6c-0.3-6.1,2.8-9.6,8.7-9.6c8.3,0,9.1,4.3,9.1,11.3v3.5H69.1v3.7c0,3.4,1.3,4,3.1,4
			c2.2,0,2.8-1.6,2.7-4.8h5.9c0.2,5.8-2.1,9.4-8.2,9.4c-6.9,0-9.6-3.2-9.5-10.8V212.6z M75.1,213.3v-2.2c0-2.6-0.7-3.4-3.1-3.4
			c-3,0-2.8,2.3-2.8,4.6v1.1H75.1z"/>
		<path class="st2" d="M92.4,206.4L92.4,206.4c1.4-3,4.1-3.3,5.4-3.3c3.4,0,6.1,2,5.9,6.6v19.9h-5.9v-17.2c0-2.5-0.3-4.2-2.5-4.3
			c-2.2-0.1-3,2-2.9,4.8v16.7h-5.9v-25.8h5.9V206.4z"/>
		<path class="st2" d="M107.4,208.1v-4.3h2.3v-2.6c0-4.7,1.9-5.9,6.3-5.9h2.2v4.8c-0.5-0.1-1-0.3-1.3-0.3c-0.9,0-1.2,0.4-1.2,1v3
			h2.6v4.3h-2.6v21.4h-5.9v-21.4H107.4z"/>
		<path class="st2" d="M121.6,217.6c0-8.8,0.1-14.5,9.1-14.5c8.8,0,8.9,5.7,8.9,14.5c0,9-1.2,12.8-8.9,12.7
			C122.9,230.4,121.6,226.5,121.6,217.6z M127.6,221.1c0,3.2,0.3,4.5,3.2,4.5c2.7,0,3-1.4,3-4.5v-8.6c0-2.4,0-4.9-3-4.9
			c-3.2,0-3.2,2.5-3.2,4.9V221.1z"/>
		<path class="st2" d="M153.6,229.6c-3.5,0.4-8.5,0.7-8.5-4.1v-17.5h-2.4v-4.3h2.4v-7.1h6v7.1h2.5v4.3H151v16c0.1,1.1,1.8,1,2.5,0.9
			V229.6z"/>
		<path class="st2" d="M157.2,212.6c-0.3-6.1,2.8-9.6,8.7-9.6c8.3,0,9.1,4.3,9.1,11.3v3.5h-11.9v3.7c0,3.4,1.3,4,3.1,4
			c2.2,0,2.8-1.6,2.7-4.8h5.9c0.2,5.8-2.1,9.4-8.2,9.4c-6.9,0-9.6-3.2-9.5-10.8V212.6z M169.1,213.3v-2.2c0-2.6-0.7-3.4-3.1-3.4
			c-3,0-2.8,2.3-2.8,4.6v1.1H169.1z"/>
		<path class="st2" d="M190.1,212.7v-2.9c-0.1-1.4-0.8-2.2-2.1-2.2c-2.3,0-2.3,2.6-2.2,5.8v6.1c-0.1,5,0.5,5.9,2.2,6.2
			c1.8,0,1.9-1.7,2.1-3.8v-2.4h5.9v2.4c0,5.4-2.2,8.4-8.1,8.4c-5.3,0-8.3-2.8-8-9.6v-8.4c0-7.2,3.5-9.1,8-9.1c6,0,8.2,3.7,8.1,7.6
			v2.1H190.1z"/>
	</g>
	<g>
		<path d="M47.5,240.9c0-1.5-0.1-3.1-1.9-3.1c-1.1,0-1.8,0.4-1.8,1.6c0,1.3,0.8,1.8,1.8,2.5c1.1,0.7,3,2,3.9,2.8
			c1.1,1.1,1.4,2.1,1.4,3.6c0,3.3-2.2,5-5.3,5c-3.9,0-5.2-2.2-5.2-5.2v-1.3h3.2v1c-0.1,1.7,0.4,2.9,2,2.9c1.4,0,2-0.7,2-2
			c0-1-0.5-1.7-1.3-2.3c-1.7-1.3-3.8-2.3-5.1-4c-0.5-0.8-0.8-1.7-0.8-2.6c0-2.9,1.7-4.5,5.1-4.5c5.1,0,5,4,5,5.6H47.5z"/>
		<path d="M53.3,246.8c0-4.4,0.1-7.3,4.6-7.3c4.4,0,4.5,2.8,4.5,7.3c0,4.5-0.6,6.4-4.5,6.4C54,253.3,53.3,251.3,53.3,246.8z
			 M56.3,248.6c0,1.6,0.1,2.3,1.6,2.3c1.4,0,1.5-0.7,1.5-2.3v-4.3c0-1.2,0-2.5-1.5-2.5c-1.6,0-1.6,1.2-1.6,2.5V248.6z"/>
		<path d="M64.1,242.1v-2.2h1.1v-1.3c0-2.3,1-3,3.1-3h1.1v2.4c-0.2-0.1-0.5-0.1-0.7-0.1c-0.4,0-0.6,0.2-0.6,0.5v1.5h1.3v2.2h-1.3
			v10.8h-3v-10.8H64.1z"/>
		<path d="M75.8,252.9c-1.8,0.2-4.2,0.4-4.2-2v-8.8h-1.2v-2.2h1.2v-3.6h3v3.6h1.3v2.2h-1.3v8c0.1,0.6,0.9,0.5,1.3,0.4V252.9z"/>
		<path d="M86.6,247.8c0.2,0.9,0.3,1.8,0.3,2.8h0.1c0-0.6,0.2-2.5,0.3-2.9l1-7.9h3l-2.6,13h-3.3l-1-5.2c-0.2-1.1-0.3-2.2-0.4-3.3
			h-0.1c0,1-0.1,2.1-0.3,3.1l-0.9,5.4h-3.3l-2.7-13h3.1l1.1,7.9c0.1,0.4,0.3,2.3,0.3,2.9h0c0-0.9,0.1-1.9,0.3-2.8l1.2-8h2.5
			L86.6,247.8z"/>
		<path d="M99,252.8c-0.2-0.4-0.2-0.9-0.2-1.3h0c-0.3,0.5-0.7,1-1.2,1.2c-0.4,0.3-0.9,0.4-1.4,0.4c-2.4,0-3.5-1.2-3.5-3.9
			c0-3,2.1-3.7,4.4-4.6c1.3-0.5,1.7-1.1,1.5-2.2c-0.1-0.6-0.6-0.7-1.4-0.7c-1.4,0-1.6,0.7-1.6,1.9h-2.8c0-2.5,0.8-4.2,4.5-4.2
			c4.1,0,4.3,2.1,4.3,3.8v7.6c0,0.6,0.1,1.2,0.3,1.8H99z M98.6,246c-0.7,0.5-1.6,1-2.4,1.7c-0.4,0.4-0.5,1-0.5,1.6
			c0,1,0.3,1.7,1.4,1.7c1.8,0,1.4-2.2,1.5-3.5V246z"/>
		<path d="M107.4,242.2L107.4,242.2c0.4-0.9,0.8-1.5,1.2-1.8c0.9-0.7,1.4-0.7,1.9-0.7v3.5c-1.7-0.2-2.9,0.3-3,2.2v7.5h-3v-13h2.9
			V242.2z"/>
		<path d="M112,244.4c-0.1-3.1,1.4-4.8,4.4-4.8c4.2,0,4.6,2.2,4.6,5.7v1.7h-6v1.9c0,1.7,0.7,2,1.6,2c1.1,0,1.4-0.8,1.4-2.4h3
			c0.1,2.9-1.1,4.7-4.1,4.7c-3.4,0-4.8-1.6-4.8-5.4V244.4z M118,244.7v-1.1c0-1.3-0.4-1.7-1.6-1.7c-1.5,0-1.4,1.1-1.4,2.3v0.5H118z"
			/>
	</g>
	<g>
		<path d="M139.2,252.8v-17.2h3.2v6.8h4.5v-6.8h3.2v17.2h-3.2V245h-4.5v7.9H139.2z"/>
		<path d="M152.9,246.8c0-4.4,0.1-7.3,4.6-7.3c4.4,0,4.5,2.8,4.5,7.3c0,4.5-0.6,6.4-4.5,6.4C153.5,253.3,152.8,251.3,152.9,246.8z
			 M155.8,248.6c0,1.6,0.1,2.3,1.6,2.3c1.4,0,1.5-0.7,1.5-2.3v-4.3c0-1.2,0-2.5-1.5-2.5c-1.6,0-1.6,1.2-1.6,2.5V248.6z"/>
		<path d="M170.2,250.9L170.2,250.9c-0.5,1.5-1.4,2.3-2.8,2.3c-2.4,0-2.9-1.2-2.9-3.4v-9.9h3v8.9c0,0.6,0,1.2,0.3,1.7
			c0.3,0.3,0.5,0.4,0.9,0.4c1.4,0,1.4-1.6,1.4-2.6v-8.4h3v13h-2.8V250.9z"/>
		<path d="M178.3,248.6c-0.2,2.4,0.7,2.3,1.4,2.3c0.8,0,1.4-0.6,1.2-1.4c0-0.7-0.9-1.1-1.5-1.5l-1.6-1.1c-1.5-1-2.5-2.2-2.5-4.1
			c0-2,1.6-3.1,4.5-3.1c2.9,0,4.2,1.5,4.2,4.3h-3c0.1-1.4-0.3-2-1.4-2c-0.7,0-1.3,0.3-1.3,1.1c0,0.8,0.6,1.1,1.1,1.5l2.4,1.7
			c0.8,0.4,2,1.7,2,2.5c0.3,2.3-0.3,4.6-4.4,4.6c-1.6,0-4.5-0.7-4.2-4.6H178.3z"/>
		<path d="M186,244.4c-0.1-3.1,1.4-4.8,4.4-4.8c4.2,0,4.6,2.2,4.6,5.7v1.7h-6v1.9c0,1.7,0.7,2,1.6,2c1.1,0,1.4-0.8,1.4-2.4h3
			c0.1,2.9-1.1,4.7-4.1,4.7c-3.4,0-4.8-1.6-4.8-5.4V244.4z M192,244.7v-1.1c0-1.3-0.4-1.7-1.6-1.7c-1.5,0-1.4,1.1-1.4,2.3v0.5H192z"
			/>
	</g>
</g>
<g>
	<g>
		<path class="st2" d="M-410.4-158.9c-0.1,1.5-0.2,3.1-0.3,4.6c-0.8,14.7-5.7,25.9-22.4,25.9c-24.7,0-26.3-15.7-26.3-37.1v-11.5
			c0.6-20.5,2.3-35.7,26.3-35.7c13.4,0.2,20.9,7.1,22,20.8c0.2,2,0.4,4.1,0.3,6.1h-14.8c-0.6-5.1-0.1-14.8-7.5-14.8
			c-11.8,0-10.8,14-10.8,20.3v22.3c0,6.6,0.5,17.5,10.8,17.5c8.3,0,7.3-13.3,7.6-18.4H-410.4z"/>
		<path class="st2" d="M-400-169.9c-0.6-14.3,6.6-22.4,20.4-22.4c19.4,0,21.4,10.1,21.4,26.6v8.1h-27.9v8.8c0.1,7.9,3.1,9.4,7.3,9.4
			c5.1,0,6.6-3.8,6.4-11.4h13.9c0.5,13.5-5,22.1-19.3,22.1c-16.1,0-22.6-7.6-22.3-25.4V-169.9z M-372.1-168.3v-5.3
			c-0.1-6.1-1.7-8-7.3-8c-7,0-6.6,5.4-6.6,10.8v2.5H-372.1z"/>
		<path class="st2" d="M-331.6-184.5h0.2c3.1-7,9.3-7.8,12.5-7.8c7.9,0,14.4,4.6,13.9,15.4v46.6h-13.9v-40.3c0-5.9-0.6-9.8-5.9-10
			c-5.3-0.2-7.1,4.7-6.9,11.1v39.1h-13.9v-60.5h13.9V-184.5z"/>
		<path class="st2" d="M-296.2-180.5v-10.2h5.4v-6c0-10.9,4.5-13.9,14.7-13.9h5.3v11.1c-1.1-0.3-2.3-0.6-3.1-0.6c-2,0-2.9,1-2.9,2.4
			v7.1h6v10.2h-6v50.3h-13.9v-50.3H-296.2z"/>
		<path class="st2" d="M-263-158.3c0.1-20.7,0.3-34,21.3-34c20.7,0,20.8,13.3,20.9,34c0.1,21-2.9,30-20.9,29.7
			C-260-128.3-263.1-137.3-263-158.3z M-249-150c0,7.4,0.6,10.6,7.4,10.6c6.4,0,7-3.2,7-10.6v-20.2c0-5.7,0-11.5-7-11.5
			c-7.4,0-7.4,5.8-7.4,11.5V-150z"/>
		<path class="st2" d="M-188-130c-8.3,1-19.8,1.7-19.8-9.5v-41h-5.7v-10.2h5.6v-16.6h14v16.6h5.9v10.2h-5.9v37.5
			c0.3,2.6,4.2,2.3,5.9,2V-130z"/>
		<path class="st2" d="M-179.6-169.9c-0.6-14.3,6.6-22.4,20.4-22.4c19.4,0,21.4,10.1,21.4,26.6v8.1h-27.9v8.8
			c0.1,7.9,3.1,9.4,7.3,9.4c5.1,0,6.6-3.8,6.4-11.4h13.9c0.5,13.5-5,22.1-19.3,22.1c-16.1,0-22.6-7.6-22.3-25.4V-169.9z
			 M-151.7-168.3v-5.3c-0.1-6.1-1.7-8-7.3-8c-7,0-6.6,5.4-6.6,10.8v2.5H-151.7z"/>
		<path class="st2" d="M-102.4-169.7v-6.8c-0.2-3.3-1.8-5.1-4.8-5.1c-5.4,0-5.4,6.1-5.3,13.5v14.3c-0.3,11.8,1.1,13.9,5.3,14.5
			c4.3-0.1,4.4-4.1,4.8-8.9v-5.6h13.9v5.6c0,12.7-5.3,19.6-19.1,19.6c-12.3,0-19.4-6.5-18.9-22.6v-19.6
			c-0.1-16.9,8.3-21.4,18.9-21.4c14,0,19.2,8.8,19.1,17.8v4.8H-102.4z"/>
	</g>
	<g>
		<path d="M-436.9-103.6c0.1-3.6-0.3-7.2-4.4-7.2c-2.5,0-4.1,1-4.1,3.8c0,3.1,1.9,4.3,4.3,5.8c2.5,1.6,7.1,4.6,9.2,6.6
			c2.6,2.5,3.4,5,3.4,8.5c0,7.6-5.1,11.6-12.4,11.6c-9.1,0-12.3-5.1-12.3-12.3v-3h7.5v2.4c-0.2,3.9,1,6.8,4.7,6.8
			c3.2,0,4.7-1.7,4.7-4.7c0-2.4-1.1-4-3-5.3c-3.9-3.1-8.8-5.3-11.9-9.3c-1.2-1.8-1.9-4-1.9-6.2c0-6.9,3.9-10.7,11.9-10.7
			c12,0,11.7,9.3,11.7,13.3H-436.9z"/>
		<path d="M-423.2-89.6c0.1-10.4,0.2-17.1,10.7-17.1c10.4,0,10.5,6.7,10.5,17.1c0.1,10.6-1.5,15.1-10.5,14.9
			C-421.7-74.6-423.2-79.1-423.2-89.6z M-416.2-85.4c0,3.7,0.3,5.3,3.7,5.3c3.2,0,3.5-1.6,3.5-5.3v-10.1c0-2.9,0-5.8-3.5-5.8
			c-3.7,0-3.7,2.9-3.7,5.8V-85.4z"/>
		<path d="M-398-100.8v-5.1h2.7v-3c0-5.5,2.3-7,7.4-7h2.6v5.6c-0.5-0.2-1.1-0.3-1.6-0.3c-1,0-1.5,0.5-1.5,1.2v3.6h3v5.1h-3v25.3h-7
			v-25.3H-398z"/>
		<path d="M-370.5-75.4c-4.1,0.5-10,0.9-10-4.8v-20.6h-2.9v-5.1h2.8v-8.4h7.1v8.4h3v5.1h-3v18.9c0.2,1.3,2.1,1.1,3,1V-75.4z"/>
		<path d="M-345.2-87.3c0.4,2.2,0.6,4.3,0.7,6.5h0.2c0-1.3,0.4-5.8,0.6-6.7l2.3-18.4h7.1l-6.1,30.4h-7.7l-2.3-12.3
			c-0.5-2.5-0.7-5.1-0.9-7.6h-0.2c-0.1,2.4-0.3,4.8-0.7,7.2l-2.2,12.7h-7.8l-6.2-30.4h7.4l2.5,18.5c0.2,0.9,0.6,5.4,0.6,6.7h0.1
			c0.1-2.2,0.3-4.4,0.7-6.5l2.9-18.7h5.8L-345.2-87.3z"/>
		<path d="M-316.1-75.5c-0.5-1-0.5-2-0.4-3.1h-0.1c-0.8,1.2-1.7,2.3-2.8,2.9c-1,0.6-2.2,1-3.3,1c-5.7,0-8.1-2.9-8.1-9.1
			c0-7,4.9-8.6,10.4-10.9c3-1.2,4-2.6,3.4-5.1c-0.3-1.3-1.4-1.6-3.3-1.6c-3.2,0-3.7,1.7-3.7,4.4h-6.7c-0.1-5.8,1.8-9.8,10.6-9.8
			c9.5,0,10.1,5,10,9v17.9c0,1.5,0.2,2.9,0.6,4.3H-316.1z M-317.1-91.5c-1.7,1.2-3.8,2.4-5.7,3.9c-1,0.9-1.2,2.4-1.2,3.7
			c0,2.3,0.7,3.9,3.3,3.9c4.1,0,3.4-5.2,3.6-8.1V-91.5z"/>
		<path d="M-296.3-100.5h0.1c0.9-2.2,1.7-3.4,2.7-4.3c2-1.7,3.3-1.6,4.4-1.6v8.3c-3.9-0.4-6.8,0.6-6.9,5.1v17.6h-7v-30.4h6.7V-100.5
			z"/>
		<path d="M-285.4-95.5c-0.3-7.2,3.3-11.3,10.2-11.3c9.8,0,10.8,5.1,10.8,13.4v4.1h-14v4.4c0.1,4,1.6,4.7,3.7,4.7
			c2.6,0,3.3-1.9,3.2-5.7h7c0.3,6.8-2.5,11.1-9.7,11.1c-8.1,0-11.4-3.8-11.2-12.8V-95.5z M-271.4-94.7v-2.6c-0.1-3.1-0.9-4-3.7-4
			c-3.5,0-3.3,2.7-3.3,5.4v1.2H-271.4z"/>
	</g>
	<g>
		<path d="M-221.8-75.5v-40.4h7.5v16h10.6v-16h7.5v40.4h-7.5V-94h-10.6v18.5H-221.8z"/>
		<path d="M-189.7-89.6c0.1-10.4,0.2-17.1,10.7-17.1c10.4,0,10.4,6.7,10.5,17.1c0.1,10.6-1.5,15.1-10.5,14.9
			C-188.2-74.6-189.7-79.1-189.7-89.6z M-182.7-85.4c0,3.7,0.3,5.3,3.7,5.3c3.2,0,3.5-1.6,3.5-5.3v-10.1c0-2.9,0-5.8-3.5-5.8
			c-3.7,0-3.7,2.9-3.7,5.8V-85.4z"/>
		<path d="M-149.1-80.1h-0.1c-1.1,3.6-3.1,5.3-6.5,5.3c-5.5,0-6.8-2.9-6.8-7.9v-23.3h7v20.8c0,1.3-0.1,2.9,0.7,4
			c0.6,0.6,1.2,1,2.2,1c3.3,0,3.2-3.7,3.2-6.1v-19.7h7v30.4h-6.7V-80.1z"/>
		<path d="M-130.1-85.5c-0.5,5.6,1.6,5.4,3.2,5.4c2,0,3.4-1.5,2.9-3.4c-0.1-1.7-2.1-2.7-3.4-3.6l-3.8-2.6c-3.5-2.4-5.8-5.2-5.8-9.6
			c0-4.7,3.7-7.4,10.5-7.4c6.8,0,9.9,3.6,9.8,10.1h-7c0.2-3.4-0.8-4.7-3.2-4.7c-1.7,0-3,0.8-3,2.5c0,1.8,1.3,2.6,2.6,3.5l5.7,3.9
			c1.8,1,4.6,3.9,4.8,6c0.6,5.3-0.7,10.8-10.4,10.8c-3.7,0-10.7-1.6-9.9-10.8H-130.1z"/>
		<path d="M-111.9-95.5c-0.3-7.2,3.3-11.3,10.2-11.3c9.8,0,10.8,5.1,10.8,13.4v4.1h-14v4.4c0.1,4,1.6,4.7,3.7,4.7
			c2.6,0,3.3-1.9,3.2-5.7h7c0.3,6.8-2.5,11.1-9.7,11.1c-8.1,0-11.4-3.8-11.2-12.8V-95.5z M-97.9-94.7v-2.6c-0.1-3.1-0.9-4-3.7-4
			c-3.5,0-3.3,2.7-3.3,5.4v1.2H-97.9z"/>
	</g>
</g>
<g>
	<circle class="st2" cx="149.7" cy="-186.2" r="4.2"/>
	<circle class="st3" cx="149.7" cy="-175.4" r="4.2"/>
	<circle class="st4" cx="159.7" cy="-175.4" r="4.2"/>
	<circle class="st5" cx="169.7" cy="-175.4" r="4.2"/>
	
		<linearGradient id="SVGID_3_" gradientUnits="userSpaceOnUse" x1="155.2465" y1="-15759.8574" x2="173.851" y2="-15759.8574" gradientTransform="matrix(1 0 0 -1 0 -15950.667)">
		<stop  offset="0" style="stop-color:#FCD700"/>
		<stop  offset="1" style="stop-color:#E27C00"/>
	</linearGradient>
	<path class="st8" d="M172.6-188.4C172.6-188.4,172.6-188.4,172.6-188.4c-6.3-0.4-8.8-3.6-9.7-6.2c0,0,0,0,0,0c0,0,0,0,0,0
		c-0.8-2.1-0.6-3.9-0.6-3.9c0,0,0,0,0,0c-0.7-0.9-1.8-1.5-3.1-1.5c-2.2,0-3.9,1.8-3.9,3.9c0,1.3,0.6,2.4,1.6,3.2
		c0,0,1.7-0.2,3.7,0.4l0.2,0.1c2.7,0.9,5.9,3.3,6.4,9.7c0,0,0,0,0,0c0,0,0,0,0,0v0l0,0c0.7,0.7,1.7,1.2,2.8,1.2
		c2.2,0,3.9-1.8,3.9-3.9C173.9-186.7,173.4-187.7,172.6-188.4z"/>
</g>
<g>
	<path class="st2" d="M196.8-181.8c0,0.4-0.1,0.7-0.1,1.1c-0.2,3.5-1.3,6.1-5.3,6.1c-5.8,0-6.2-3.7-6.2-8.8v-2.7
		c0.2-4.8,0.5-8.4,6.2-8.4c3.2,0.1,4.9,1.7,5.2,4.9c0.1,0.5,0.1,1,0.1,1.4h-3.5c-0.2-1.2,0-3.5-1.8-3.5c-2.8,0-2.6,3.3-2.6,4.8v5.3
		c0,1.6,0.1,4.1,2.6,4.1c1.9,0,1.7-3.1,1.8-4.4H196.8z"/>
	<path class="st2" d="M199.3-184.5c-0.2-3.4,1.6-5.3,4.8-5.3c4.6,0,5.1,2.4,5.1,6.3v1.9h-6.6v2.1c0,1.9,0.7,2.2,1.7,2.2
		c1.2,0,1.6-0.9,1.5-2.7h3.3c0.1,3.2-1.2,5.2-4.6,5.2c-3.8,0-5.3-1.8-5.3-6V-184.5z M205.9-184.1v-1.2c0-1.4-0.4-1.9-1.7-1.9
		c-1.6,0-1.6,1.3-1.6,2.6v0.6H205.9z"/>
	<path class="st2" d="M215.4-187.9L215.4-187.9c0.8-1.6,2.3-1.8,3-1.8c1.9,0,3.4,1.1,3.3,3.6v11h-3.3v-9.5c0-1.4-0.2-2.3-1.4-2.4
		c-1.2-0.1-1.7,1.1-1.6,2.6v9.2h-3.3v-14.3h3.3V-187.9z"/>
	<path class="st2" d="M223.8-187v-2.4h1.3v-1.4c0-2.6,1.1-3.3,3.5-3.3h1.2v2.6c-0.3-0.1-0.5-0.2-0.7-0.2c-0.5,0-0.7,0.2-0.7,0.6v1.7
		h1.4v2.4h-1.4v11.9h-3.3V-187H223.8z"/>
	<path class="st2" d="M231.6-181.7c0-4.9,0.1-8,5-8c4.9,0,4.9,3.1,4.9,8c0,5-0.7,7.1-4.9,7C232.3-174.6,231.6-176.8,231.6-181.7z
		 M234.9-179.7c0,1.7,0.2,2.5,1.7,2.5c1.5,0,1.6-0.8,1.6-2.5v-4.8c0-1.3,0-2.7-1.6-2.7c-1.7,0-1.7,1.4-1.7,2.7V-179.7z"/>
	<path class="st2" d="M249.3-175c-1.9,0.2-4.7,0.4-4.7-2.3v-9.7h-1.3v-2.4h1.3v-3.9h3.3v3.9h1.4v2.4h-1.4v8.9c0.1,0.6,1,0.5,1.4,0.5
		V-175z"/>
	<path class="st2" d="M251.3-184.5c-0.2-3.4,1.6-5.3,4.8-5.3c4.6,0,5.1,2.4,5.1,6.3v1.9h-6.6v2.1c0,1.9,0.7,2.2,1.7,2.2
		c1.2,0,1.6-0.9,1.5-2.7h3.3c0.1,3.2-1.2,5.2-4.6,5.2c-3.8,0-5.3-1.8-5.3-6V-184.5z M257.9-184.1v-1.2c0-1.4-0.4-1.9-1.7-1.9
		c-1.6,0-1.6,1.3-1.6,2.6v0.6H257.9z"/>
	<path class="st2" d="M269.5-184.4v-1.6c-0.1-0.8-0.4-1.2-1.1-1.2c-1.3,0-1.3,1.4-1.2,3.2v3.4c-0.1,2.8,0.3,3.3,1.2,3.4
		c1,0,1-1,1.1-2.1v-1.3h3.3v1.3c0,3-1.2,4.6-4.5,4.6c-2.9,0-4.6-1.5-4.5-5.3v-4.6c0-4,1.9-5.1,4.5-5.1c3.3,0,4.5,2.1,4.5,4.2v1.1
		H269.5z"/>
</g>
<g>
	<path class="st5" d="M292.4-187.3c0-1.5-0.1-3.1-1.9-3.1c-1.1,0-1.8,0.4-1.8,1.6c0,1.3,0.8,1.8,1.8,2.5c1.1,0.7,3,2,3.9,2.8
		c1.1,1.1,1.4,2.1,1.4,3.6c0,3.3-2.2,5-5.3,5c-3.9,0-5.2-2.2-5.2-5.2v-1.3h3.2v1c-0.1,1.7,0.4,2.9,2,2.9c1.4,0,2-0.7,2-2
		c0-1-0.5-1.7-1.3-2.3c-1.7-1.3-3.8-2.3-5.1-4c-0.5-0.8-0.8-1.7-0.8-2.6c0-2.9,1.7-4.5,5.1-4.5c5.1,0,5,4,5,5.6H292.4z"/>
	<path class="st5" d="M298.3-181.3c0-4.4,0.1-7.3,4.6-7.3c4.4,0,4.5,2.8,4.5,7.3c0,4.5-0.6,6.4-4.5,6.4
		C298.9-174.9,298.3-176.8,298.3-181.3z M301.3-179.5c0,1.6,0.1,2.3,1.6,2.3c1.4,0,1.5-0.7,1.5-2.3v-4.3c0-1.2,0-2.5-1.5-2.5
		c-1.6,0-1.6,1.2-1.6,2.5V-179.5z"/>
	<path class="st5" d="M309-186.1v-2.2h1.1v-1.3c0-2.3,1-3,3.1-3h1.1v2.4c-0.2-0.1-0.5-0.1-0.7-0.1c-0.4,0-0.6,0.2-0.6,0.5v1.5h1.3
		v2.2h-1.3v10.8h-3v-10.8H309z"/>
	<path class="st5" d="M320.7-175.2c-1.8,0.2-4.2,0.4-4.2-2v-8.8h-1.2v-2.2h1.2v-3.6h3v3.6h1.3v2.2h-1.3v8c0.1,0.6,0.9,0.5,1.3,0.4
		V-175.2z"/>
	<path class="st5" d="M331.5-180.3c0.2,0.9,0.3,1.8,0.3,2.8h0.1c0-0.6,0.2-2.5,0.3-2.9l1-7.9h3l-2.6,13h-3.3l-1-5.2
		c-0.2-1.1-0.3-2.2-0.4-3.3h-0.1c0,1-0.1,2.1-0.3,3.1l-0.9,5.4h-3.3l-2.7-13h3.1l1.1,7.9c0.1,0.4,0.3,2.3,0.3,2.9h0
		c0-0.9,0.1-1.9,0.3-2.8l1.2-8h2.5L331.5-180.3z"/>
	<path class="st5" d="M343.9-175.3c-0.2-0.4-0.2-0.9-0.2-1.3h0c-0.3,0.5-0.7,1-1.2,1.2c-0.4,0.3-0.9,0.4-1.4,0.4
		c-2.4,0-3.5-1.2-3.5-3.9c0-3,2.1-3.7,4.4-4.6c1.3-0.5,1.7-1.1,1.5-2.2c-0.1-0.6-0.6-0.7-1.4-0.7c-1.4,0-1.6,0.7-1.6,1.9h-2.8
		c0-2.5,0.8-4.2,4.5-4.2c4.1,0,4.3,2.1,4.3,3.8v7.6c0,0.6,0.1,1.2,0.3,1.8H343.9z M343.5-182.1c-0.7,0.5-1.6,1-2.4,1.7
		c-0.4,0.4-0.5,1-0.5,1.6c0,1,0.3,1.7,1.4,1.7c1.8,0,1.4-2.2,1.5-3.5V-182.1z"/>
	<path class="st5" d="M352.4-185.9L352.4-185.9c0.4-0.9,0.8-1.5,1.2-1.8c0.9-0.7,1.4-0.7,1.9-0.7v3.5c-1.7-0.2-2.9,0.3-3,2.2v7.5h-3
		v-13h2.9V-185.9z"/>
	<path class="st5" d="M357-183.8c-0.1-3.1,1.4-4.8,4.4-4.8c4.2,0,4.6,2.2,4.6,5.7v1.7h-6v1.9c0,1.7,0.7,2,1.6,2
		c1.1,0,1.4-0.8,1.4-2.4h3c0.1,2.9-1.1,4.7-4.1,4.7c-3.4,0-4.8-1.6-4.8-5.4V-183.8z M363-183.4v-1.1c0-1.3-0.4-1.7-1.6-1.7
		c-1.5,0-1.4,1.1-1.4,2.3v0.5H363z"/>
</g>
<g>
	<path class="st5" d="M376-175.3v-17.2h3.2v6.8h4.5v-6.8h3.2v17.2h-3.2v-7.9h-4.5v7.9H376z"/>
	<path class="st5" d="M389.7-181.3c0-4.4,0.1-7.3,4.6-7.3c4.4,0,4.5,2.8,4.5,7.3c0,4.5-0.6,6.4-4.5,6.4
		C390.3-174.9,389.6-176.8,389.7-181.3z M392.7-179.5c0,1.6,0.1,2.3,1.6,2.3c1.4,0,1.5-0.7,1.5-2.3v-4.3c0-1.2,0-2.5-1.5-2.5
		c-1.6,0-1.6,1.2-1.6,2.5V-179.5z"/>
	<path class="st5" d="M407-177.2L407-177.2c-0.5,1.5-1.4,2.3-2.8,2.3c-2.4,0-2.9-1.2-2.9-3.4v-9.9h3v8.9c0,0.6,0,1.2,0.3,1.7
		c0.3,0.3,0.5,0.4,0.9,0.4c1.4,0,1.4-1.6,1.4-2.6v-8.4h3v13H407V-177.2z"/>
	<path class="st5" d="M415.1-179.6c-0.2,2.4,0.7,2.3,1.4,2.3c0.8,0,1.4-0.6,1.2-1.4c0-0.7-0.9-1.1-1.5-1.5l-1.6-1.1
		c-1.5-1-2.5-2.2-2.5-4.1c0-2,1.6-3.1,4.5-3.1c2.9,0,4.2,1.5,4.2,4.3h-3c0.1-1.4-0.3-2-1.4-2c-0.7,0-1.3,0.3-1.3,1.1
		c0,0.8,0.6,1.1,1.1,1.5l2.4,1.7c0.8,0.4,2,1.7,2,2.5c0.3,2.3-0.3,4.6-4.4,4.6c-1.6,0-4.5-0.7-4.2-4.6H415.1z"/>
	<path class="st5" d="M422.8-183.8c-0.1-3.1,1.4-4.8,4.4-4.8c4.2,0,4.6,2.2,4.6,5.7v1.7h-6v1.9c0,1.7,0.7,2,1.6,2
		c1.1,0,1.4-0.8,1.4-2.4h3c0.1,2.9-1.1,4.7-4.1,4.7c-3.4,0-4.8-1.6-4.8-5.4V-183.8z M428.8-183.4v-1.1c0-1.3-0.4-1.7-1.6-1.7
		c-1.5,0-1.4,1.1-1.4,2.3v0.5H428.8z"/>
</g>
<g>
	<circle class="st2" cx="149.7" cy="-230.1" r="4.2"/>
	<circle class="st3" cx="149.7" cy="-219.3" r="4.2"/>
	<circle class="st4" cx="159.7" cy="-219.3" r="4.2"/>
	<circle class="st5" cx="169.7" cy="-219.3" r="4.2"/>
	
		<linearGradient id="SVGID_4_" gradientUnits="userSpaceOnUse" x1="155.2465" y1="-15715.9629" x2="173.851" y2="-15715.9629" gradientTransform="matrix(1 0 0 -1 0 -15950.667)">
		<stop  offset="0" style="stop-color:#FCD700"/>
		<stop  offset="1" style="stop-color:#E27C00"/>
	</linearGradient>
	<path class="st9" d="M172.6-232.3C172.6-232.3,172.6-232.3,172.6-232.3c-6.3-0.4-8.8-3.6-9.7-6.2c0,0,0,0,0,0c0,0,0,0,0,0
		c-0.8-2.1-0.6-3.9-0.6-3.9l0,0c-0.7-0.9-1.8-1.5-3.1-1.5c-2.2,0-3.9,1.8-3.9,3.9c0,1.3,0.6,2.4,1.6,3.2c0,0,1.7-0.2,3.7,0.4
		l0.2,0.1c2.7,0.9,5.9,3.3,6.4,9.7c0,0,0,0,0,0c0,0,0,0,0,0v0l0,0c0.7,0.7,1.7,1.2,2.8,1.2c2.2,0,3.9-1.8,3.9-3.9
		C173.9-230.6,173.4-231.6,172.6-232.3z"/>
</g>
<g>
	<path d="M196.8-225.7c0,0.4-0.1,0.7-0.1,1.1c-0.2,3.5-1.3,6.1-5.3,6.1c-5.8,0-6.2-3.7-6.2-8.8v-2.7c0.2-4.8,0.5-8.4,6.2-8.4
		c3.2,0.1,4.9,1.7,5.2,4.9c0.1,0.5,0.1,1,0.1,1.4h-3.5c-0.2-1.2,0-3.5-1.8-3.5c-2.8,0-2.6,3.3-2.6,4.8v5.3c0,1.6,0.1,4.1,2.6,4.1
		c1.9,0,1.7-3.1,1.8-4.4H196.8z"/>
	<path d="M199.3-228.3c-0.2-3.4,1.6-5.3,4.8-5.3c4.6,0,5.1,2.4,5.1,6.3v1.9h-6.6v2.1c0,1.9,0.7,2.2,1.7,2.2c1.2,0,1.6-0.9,1.5-2.7
		h3.3c0.1,3.2-1.2,5.2-4.6,5.2c-3.8,0-5.3-1.8-5.3-6V-228.3z M205.9-228v-1.2c0-1.4-0.4-1.9-1.7-1.9c-1.6,0-1.6,1.3-1.6,2.6v0.6
		H205.9z"/>
	<path d="M215.4-231.8L215.4-231.8c0.8-1.6,2.3-1.8,3-1.8c1.9,0,3.4,1.1,3.3,3.6v11h-3.3v-9.5c0-1.4-0.2-2.3-1.4-2.4
		c-1.2-0.1-1.7,1.1-1.6,2.6v9.2h-3.3v-14.3h3.3V-231.8z"/>
	<path d="M223.8-230.9v-2.4h1.3v-1.4c0-2.6,1.1-3.3,3.5-3.3h1.2v2.6c-0.3-0.1-0.5-0.2-0.7-0.2c-0.5,0-0.7,0.2-0.7,0.6v1.7h1.4v2.4
		h-1.4v11.9h-3.3v-11.9H223.8z"/>
	<path d="M231.6-225.6c0-4.9,0.1-8,5-8c4.9,0,4.9,3.1,4.9,8c0,5-0.7,7.1-4.9,7C232.3-218.5,231.6-220.7,231.6-225.6z M234.9-223.6
		c0,1.7,0.2,2.5,1.7,2.5c1.5,0,1.6-0.8,1.6-2.5v-4.8c0-1.3,0-2.7-1.6-2.7c-1.7,0-1.7,1.4-1.7,2.7V-223.6z"/>
	<path d="M249.3-218.9c-1.9,0.2-4.7,0.4-4.7-2.3v-9.7h-1.3v-2.4h1.3v-3.9h3.3v3.9h1.4v2.4h-1.4v8.9c0.1,0.6,1,0.5,1.4,0.5V-218.9z"
		/>
	<path d="M251.3-228.3c-0.2-3.4,1.6-5.3,4.8-5.3c4.6,0,5.1,2.4,5.1,6.3v1.9h-6.6v2.1c0,1.9,0.7,2.2,1.7,2.2c1.2,0,1.6-0.9,1.5-2.7
		h3.3c0.1,3.2-1.2,5.2-4.6,5.2c-3.8,0-5.3-1.8-5.3-6V-228.3z M257.9-228v-1.2c0-1.4-0.4-1.9-1.7-1.9c-1.6,0-1.6,1.3-1.6,2.6v0.6
		H257.9z"/>
	<path d="M269.5-228.3v-1.6c-0.1-0.8-0.4-1.2-1.1-1.2c-1.3,0-1.3,1.4-1.2,3.2v3.4c-0.1,2.8,0.3,3.3,1.2,3.4c1,0,1-1,1.1-2.1v-1.3
		h3.3v1.3c0,3-1.2,4.6-4.5,4.6c-2.9,0-4.6-1.5-4.5-5.3v-4.6c0-4,1.9-5.1,4.5-5.1c3.3,0,4.5,2.1,4.5,4.2v1.1H269.5z"/>
</g>
<g>
	<path d="M292.4-231.2c0-1.5-0.1-3.1-1.9-3.1c-1.1,0-1.8,0.4-1.8,1.6c0,1.3,0.8,1.8,1.8,2.5c1.1,0.7,3,2,3.9,2.8
		c1.1,1.1,1.4,2.1,1.4,3.6c0,3.3-2.2,5-5.3,5c-3.9,0-5.2-2.2-5.2-5.2v-1.3h3.2v1c-0.1,1.7,0.4,2.9,2,2.9c1.4,0,2-0.7,2-2
		c0-1-0.5-1.7-1.3-2.3c-1.7-1.3-3.8-2.3-5.1-4c-0.5-0.8-0.8-1.7-0.8-2.6c0-2.9,1.7-4.5,5.1-4.5c5.1,0,5,4,5,5.6H292.4z"/>
	<path d="M298.3-225.2c0-4.4,0.1-7.3,4.6-7.3c4.4,0,4.5,2.8,4.5,7.3c0,4.5-0.6,6.4-4.5,6.4C298.9-218.8,298.3-220.7,298.3-225.2z
		 M301.3-223.4c0,1.6,0.1,2.3,1.6,2.3c1.4,0,1.5-0.7,1.5-2.3v-4.3c0-1.2,0-2.5-1.5-2.5c-1.6,0-1.6,1.2-1.6,2.5V-223.4z"/>
	<path d="M309-230v-2.2h1.1v-1.3c0-2.3,1-3,3.1-3h1.1v2.4c-0.2-0.1-0.5-0.1-0.7-0.1c-0.4,0-0.6,0.2-0.6,0.5v1.5h1.3v2.2h-1.3v10.8
		h-3V-230H309z"/>
	<path d="M320.7-219.1c-1.8,0.2-4.2,0.4-4.2-2v-8.8h-1.2v-2.2h1.2v-3.6h3v3.6h1.3v2.2h-1.3v8c0.1,0.6,0.9,0.5,1.3,0.4V-219.1z"/>
	<path d="M331.5-224.2c0.2,0.9,0.3,1.8,0.3,2.8h0.1c0-0.6,0.2-2.5,0.3-2.9l1-7.9h3l-2.6,13h-3.3l-1-5.2c-0.2-1.1-0.3-2.2-0.4-3.3
		h-0.1c0,1-0.1,2.1-0.3,3.1l-0.9,5.4h-3.3l-2.7-13h3.1l1.1,7.9c0.1,0.4,0.3,2.3,0.3,2.9h0c0-0.9,0.1-1.9,0.3-2.8l1.2-8h2.5
		L331.5-224.2z"/>
	<path d="M343.9-219.2c-0.2-0.4-0.2-0.9-0.2-1.3h0c-0.3,0.5-0.7,1-1.2,1.2c-0.4,0.3-0.9,0.4-1.4,0.4c-2.4,0-3.5-1.2-3.5-3.9
		c0-3,2.1-3.7,4.4-4.6c1.3-0.5,1.7-1.1,1.5-2.2c-0.1-0.6-0.6-0.7-1.4-0.7c-1.4,0-1.6,0.7-1.6,1.9h-2.8c0-2.5,0.8-4.2,4.5-4.2
		c4.1,0,4.3,2.1,4.3,3.8v7.6c0,0.6,0.1,1.2,0.3,1.8H343.9z M343.5-226c-0.7,0.5-1.6,1-2.4,1.7c-0.4,0.4-0.5,1-0.5,1.6
		c0,1,0.3,1.7,1.4,1.7c1.8,0,1.4-2.2,1.5-3.5V-226z"/>
	<path d="M352.4-229.8L352.4-229.8c0.4-0.9,0.8-1.5,1.2-1.8c0.9-0.7,1.4-0.7,1.9-0.7v3.5c-1.7-0.2-2.9,0.3-3,2.2v7.5h-3v-13h2.9
		V-229.8z"/>
	<path d="M357-227.7c-0.1-3.1,1.4-4.8,4.4-4.8c4.2,0,4.6,2.2,4.6,5.7v1.7h-6v1.9c0,1.7,0.7,2,1.6,2c1.1,0,1.4-0.8,1.4-2.4h3
		c0.1,2.9-1.1,4.7-4.1,4.7c-3.4,0-4.8-1.6-4.8-5.4V-227.7z M363-227.3v-1.1c0-1.3-0.4-1.7-1.6-1.7c-1.5,0-1.4,1.1-1.4,2.3v0.5H363z"
		/>
</g>
<g>
	<path d="M376-219.2v-17.2h3.2v6.8h4.5v-6.8h3.2v17.2h-3.2v-7.9h-4.5v7.9H376z"/>
	<path d="M389.7-225.2c0-4.4,0.1-7.3,4.6-7.3c4.4,0,4.5,2.8,4.5,7.3c0,4.5-0.6,6.4-4.5,6.4C390.3-218.8,389.6-220.7,389.7-225.2z
		 M392.7-223.4c0,1.6,0.1,2.3,1.6,2.3c1.4,0,1.5-0.7,1.5-2.3v-4.3c0-1.2,0-2.5-1.5-2.5c-1.6,0-1.6,1.2-1.6,2.5V-223.4z"/>
	<path d="M407-221.1L407-221.1c-0.5,1.5-1.4,2.3-2.8,2.3c-2.4,0-2.9-1.2-2.9-3.4v-9.9h3v8.9c0,0.6,0,1.2,0.3,1.7
		c0.3,0.3,0.5,0.4,0.9,0.4c1.4,0,1.4-1.6,1.4-2.6v-8.4h3v13H407V-221.1z"/>
	<path d="M415.1-223.5c-0.2,2.4,0.7,2.3,1.4,2.3c0.8,0,1.4-0.6,1.2-1.4c0-0.7-0.9-1.1-1.5-1.5l-1.6-1.1c-1.5-1-2.5-2.2-2.5-4.1
		c0-2,1.6-3.1,4.5-3.1c2.9,0,4.2,1.5,4.2,4.3h-3c0.1-1.4-0.3-2-1.4-2c-0.7,0-1.3,0.3-1.3,1.1c0,0.8,0.6,1.1,1.1,1.5l2.4,1.7
		c0.8,0.4,2,1.7,2,2.5c0.3,2.3-0.3,4.6-4.4,4.6c-1.6,0-4.5-0.7-4.2-4.6H415.1z"/>
	<path d="M422.8-227.7c-0.1-3.1,1.4-4.8,4.4-4.8c4.2,0,4.6,2.2,4.6,5.7v1.7h-6v1.9c0,1.7,0.7,2,1.6,2c1.1,0,1.4-0.8,1.4-2.4h3
		c0.1,2.9-1.1,4.7-4.1,4.7c-3.4,0-4.8-1.6-4.8-5.4V-227.7z M428.8-227.3v-1.1c0-1.3-0.4-1.7-1.6-1.7c-1.5,0-1.4,1.1-1.4,2.3v0.5
		H428.8z"/>
</g>
<g>
	<circle cx="149.7" cy="-152.3" r="4.2"/>
	<circle cx="149.7" cy="-141.5" r="4.2"/>
	<circle cx="159.7" cy="-141.5" r="4.2"/>
	<circle cx="169.7" cy="-141.5" r="4.2"/>
	<path d="M172.6-154.5C172.6-154.5,172.6-154.5,172.6-154.5c-6.3-0.4-8.8-3.6-9.7-6.2c0,0,0,0,0,0c0,0,0,0,0,0
		c-0.8-2.1-0.6-3.9-0.6-3.9c0,0,0,0,0,0c-0.7-0.9-1.8-1.5-3.1-1.5c-2.2,0-3.9,1.8-3.9,3.9c0,1.3,0.6,2.4,1.6,3.2
		c0,0,1.7-0.2,3.7,0.4l0.2,0.1c2.7,0.9,5.9,3.3,6.4,9.7c0,0,0,0,0,0c0,0,0,0,0,0v0l0,0c0.7,0.7,1.7,1.2,2.8,1.2
		c2.2,0,3.9-1.8,3.9-3.9C173.9-152.7,173.4-153.8,172.6-154.5z"/>
</g>
<g>
	<path d="M196.8-147.9c0,0.4-0.1,0.7-0.1,1.1c-0.2,3.5-1.3,6.1-5.3,6.1c-5.8,0-6.2-3.7-6.2-8.8v-2.7c0.2-4.8,0.5-8.4,6.2-8.4
		c3.2,0.1,4.9,1.7,5.2,4.9c0.1,0.5,0.1,1,0.1,1.4h-3.5c-0.2-1.2,0-3.5-1.8-3.5c-2.8,0-2.6,3.3-2.6,4.8v5.3c0,1.6,0.1,4.1,2.6,4.1
		c1.9,0,1.7-3.1,1.8-4.4H196.8z"/>
	<path d="M199.3-150.5c-0.2-3.4,1.6-5.3,4.8-5.3c4.6,0,5.1,2.4,5.1,6.3v1.9h-6.6v2.1c0,1.9,0.7,2.2,1.7,2.2c1.2,0,1.6-0.9,1.5-2.7
		h3.3c0.1,3.2-1.2,5.2-4.6,5.2c-3.8,0-5.3-1.8-5.3-6V-150.5z M205.9-150.2v-1.2c0-1.4-0.4-1.9-1.7-1.9c-1.6,0-1.6,1.3-1.6,2.6v0.6
		H205.9z"/>
	<path d="M215.4-154L215.4-154c0.8-1.6,2.3-1.8,3-1.8c1.9,0,3.4,1.1,3.3,3.6v11h-3.3v-9.5c0-1.4-0.2-2.3-1.4-2.4
		c-1.2-0.1-1.7,1.1-1.6,2.6v9.2h-3.3v-14.3h3.3V-154z"/>
	<path d="M223.8-153v-2.4h1.3v-1.4c0-2.6,1.1-3.3,3.5-3.3h1.2v2.6c-0.3-0.1-0.5-0.2-0.7-0.2c-0.5,0-0.7,0.2-0.7,0.6v1.7h1.4v2.4
		h-1.4v11.9h-3.3V-153H223.8z"/>
	<path d="M231.6-147.8c0-4.9,0.1-8,5-8c4.9,0,4.9,3.1,4.9,8c0,5-0.7,7.1-4.9,7C232.3-140.7,231.6-142.8,231.6-147.8z M234.9-145.8
		c0,1.7,0.2,2.5,1.7,2.5c1.5,0,1.6-0.8,1.6-2.5v-4.8c0-1.3,0-2.7-1.6-2.7c-1.7,0-1.7,1.4-1.7,2.7V-145.8z"/>
	<path d="M249.3-141.1c-1.9,0.2-4.7,0.4-4.7-2.3v-9.7h-1.3v-2.4h1.3v-3.9h3.3v3.9h1.4v2.4h-1.4v8.9c0.1,0.6,1,0.5,1.4,0.5V-141.1z"
		/>
	<path d="M251.3-150.5c-0.2-3.4,1.6-5.3,4.8-5.3c4.6,0,5.1,2.4,5.1,6.3v1.9h-6.6v2.1c0,1.9,0.7,2.2,1.7,2.2c1.2,0,1.6-0.9,1.5-2.7
		h3.3c0.1,3.2-1.2,5.2-4.6,5.2c-3.8,0-5.3-1.8-5.3-6V-150.5z M257.9-150.2v-1.2c0-1.4-0.4-1.9-1.7-1.9c-1.6,0-1.6,1.3-1.6,2.6v0.6
		H257.9z"/>
	<path d="M269.5-150.5v-1.6c-0.1-0.8-0.4-1.2-1.1-1.2c-1.3,0-1.3,1.4-1.2,3.2v3.4c-0.1,2.8,0.3,3.3,1.2,3.4c1,0,1-1,1.1-2.1v-1.3
		h3.3v1.3c0,3-1.2,4.6-4.5,4.6c-2.9,0-4.6-1.5-4.5-5.3v-4.6c0-4,1.9-5.1,4.5-5.1c3.3,0,4.5,2.1,4.5,4.2v1.1H269.5z"/>
</g>
<g>
	<path d="M292.4-153.4c0-1.5-0.1-3.1-1.9-3.1c-1.1,0-1.8,0.4-1.8,1.6c0,1.3,0.8,1.8,1.8,2.5c1.1,0.7,3,2,3.9,2.8
		c1.1,1.1,1.4,2.1,1.4,3.6c0,3.3-2.2,5-5.3,5c-3.9,0-5.2-2.2-5.2-5.2v-1.3h3.2v1c-0.1,1.7,0.4,2.9,2,2.9c1.4,0,2-0.7,2-2
		c0-1-0.5-1.7-1.3-2.3c-1.7-1.3-3.8-2.3-5.1-4c-0.5-0.8-0.8-1.7-0.8-2.6c0-2.9,1.7-4.5,5.1-4.5c5.1,0,5,4,5,5.6H292.4z"/>
	<path d="M298.3-147.4c0-4.4,0.1-7.3,4.6-7.3c4.4,0,4.5,2.8,4.5,7.3c0,4.5-0.6,6.4-4.5,6.4C298.9-141,298.3-142.9,298.3-147.4z
		 M301.3-145.6c0,1.6,0.1,2.3,1.6,2.3c1.4,0,1.5-0.7,1.5-2.3v-4.3c0-1.2,0-2.5-1.5-2.5c-1.6,0-1.6,1.2-1.6,2.5V-145.6z"/>
	<path d="M309-152.1v-2.2h1.1v-1.3c0-2.3,1-3,3.1-3h1.1v2.4c-0.2-0.1-0.5-0.1-0.7-0.1c-0.4,0-0.6,0.2-0.6,0.5v1.5h1.3v2.2h-1.3v10.8
		h-3v-10.8H309z"/>
	<path d="M320.7-141.3c-1.8,0.2-4.2,0.4-4.2-2v-8.8h-1.2v-2.2h1.2v-3.6h3v3.6h1.3v2.2h-1.3v8c0.1,0.6,0.9,0.5,1.3,0.4V-141.3z"/>
	<path d="M331.5-146.4c0.2,0.9,0.3,1.8,0.3,2.8h0.1c0-0.6,0.2-2.5,0.3-2.9l1-7.9h3l-2.6,13h-3.3l-1-5.2c-0.2-1.1-0.3-2.2-0.4-3.3
		h-0.1c0,1-0.1,2.1-0.3,3.1l-0.9,5.4h-3.3l-2.7-13h3.1l1.1,7.9c0.1,0.4,0.3,2.3,0.3,2.9h0c0-0.9,0.1-1.9,0.3-2.8l1.2-8h2.5
		L331.5-146.4z"/>
	<path d="M343.9-141.4c-0.2-0.4-0.2-0.9-0.2-1.3h0c-0.3,0.5-0.7,1-1.2,1.2c-0.4,0.3-0.9,0.4-1.4,0.4c-2.4,0-3.5-1.2-3.5-3.9
		c0-3,2.1-3.7,4.4-4.6c1.3-0.5,1.7-1.1,1.5-2.2c-0.1-0.6-0.6-0.7-1.4-0.7c-1.4,0-1.6,0.7-1.6,1.9h-2.8c0-2.5,0.8-4.2,4.5-4.2
		c4.1,0,4.3,2.1,4.3,3.8v7.6c0,0.6,0.1,1.2,0.3,1.8H343.9z M343.5-148.2c-0.7,0.5-1.6,1-2.4,1.7c-0.4,0.4-0.5,1-0.5,1.6
		c0,1,0.3,1.7,1.4,1.7c1.8,0,1.4-2.2,1.5-3.5V-148.2z"/>
	<path d="M352.4-152L352.4-152c0.4-0.9,0.8-1.5,1.2-1.8c0.9-0.7,1.4-0.7,1.9-0.7v3.5c-1.7-0.2-2.9,0.3-3,2.2v7.5h-3v-13h2.9V-152z"
		/>
	<path d="M357-149.9c-0.1-3.1,1.4-4.8,4.4-4.8c4.2,0,4.6,2.2,4.6,5.7v1.7h-6v1.9c0,1.7,0.7,2,1.6,2c1.1,0,1.4-0.8,1.4-2.4h3
		c0.1,2.9-1.1,4.7-4.1,4.7c-3.4,0-4.8-1.6-4.8-5.4V-149.9z M363-149.5v-1.1c0-1.3-0.4-1.7-1.6-1.7c-1.5,0-1.4,1.1-1.4,2.3v0.5H363z"
		/>
</g>
<g>
	<path d="M376-141.4v-17.2h3.2v6.8h4.5v-6.8h3.2v17.2h-3.2v-7.9h-4.5v7.9H376z"/>
	<path d="M389.7-147.4c0-4.4,0.1-7.3,4.6-7.3c4.4,0,4.5,2.8,4.5,7.3c0,4.5-0.6,6.4-4.5,6.4C390.3-141,389.6-142.9,389.7-147.4z
		 M392.7-145.6c0,1.6,0.1,2.3,1.6,2.3c1.4,0,1.5-0.7,1.5-2.3v-4.3c0-1.2,0-2.5-1.5-2.5c-1.6,0-1.6,1.2-1.6,2.5V-145.6z"/>
	<path d="M407-143.3L407-143.3c-0.5,1.5-1.4,2.3-2.8,2.3c-2.4,0-2.9-1.2-2.9-3.4v-9.9h3v8.9c0,0.6,0,1.2,0.3,1.7
		c0.3,0.3,0.5,0.4,0.9,0.4c1.4,0,1.4-1.6,1.4-2.6v-8.4h3v13H407V-143.3z"/>
	<path d="M415.1-145.6c-0.2,2.4,0.7,2.3,1.4,2.3c0.8,0,1.4-0.6,1.2-1.4c0-0.7-0.9-1.1-1.5-1.5l-1.6-1.1c-1.5-1-2.5-2.2-2.5-4.1
		c0-2,1.6-3.1,4.5-3.1c2.9,0,4.2,1.5,4.2,4.3h-3c0.1-1.4-0.3-2-1.4-2c-0.7,0-1.3,0.3-1.3,1.1c0,0.8,0.6,1.1,1.1,1.5l2.4,1.7
		c0.8,0.4,2,1.7,2,2.5c0.3,2.3-0.3,4.6-4.4,4.6c-1.6,0-4.5-0.7-4.2-4.6H415.1z"/>
	<path d="M422.8-149.9c-0.1-3.1,1.4-4.8,4.4-4.8c4.2,0,4.6,2.2,4.6,5.7v1.7h-6v1.9c0,1.7,0.7,2,1.6,2c1.1,0,1.4-0.8,1.4-2.4h3
		c0.1,2.9-1.1,4.7-4.1,4.7c-3.4,0-4.8-1.6-4.8-5.4V-149.9z M428.8-149.5v-1.1c0-1.3-0.4-1.7-1.6-1.7c-1.5,0-1.4,1.1-1.4,2.3v0.5
		H428.8z"/>
</g>
<g>
	<circle class="st10" cx="149.7" cy="-118.4" r="4.2"/>
	<circle class="st10" cx="149.7" cy="-107.6" r="4.2"/>
	<circle class="st10" cx="159.7" cy="-107.6" r="4.2"/>
	<circle class="st10" cx="169.7" cy="-107.6" r="4.2"/>
	<path class="st10" d="M172.6-120.6C172.6-120.6,172.6-120.6,172.6-120.6c-6.3-0.4-8.8-3.6-9.7-6.2c0,0,0,0,0,0c0,0,0,0,0,0
		c-0.8-2.1-0.6-3.9-0.6-3.9l0,0c-0.7-0.9-1.8-1.5-3.1-1.5c-2.2,0-3.9,1.8-3.9,3.9c0,1.3,0.6,2.4,1.6,3.2c0,0,1.7-0.2,3.7,0.4
		l0.2,0.1c2.7,0.9,5.9,3.3,6.4,9.7c0,0,0,0,0,0c0,0,0,0,0,0v0l0,0c0.7,0.7,1.7,1.2,2.8,1.2c2.2,0,3.9-1.8,3.9-3.9
		C173.9-118.8,173.4-119.9,172.6-120.6z"/>
</g>
<g>
	<path class="st10" d="M196.8-114c0,0.4-0.1,0.7-0.1,1.1c-0.2,3.5-1.3,6.1-5.3,6.1c-5.8,0-6.2-3.7-6.2-8.8v-2.7
		c0.2-4.8,0.5-8.4,6.2-8.4c3.2,0.1,4.9,1.7,5.2,4.9c0.1,0.5,0.1,1,0.1,1.4h-3.5c-0.2-1.2,0-3.5-1.8-3.5c-2.8,0-2.6,3.3-2.6,4.8v5.3
		c0,1.6,0.1,4.1,2.6,4.1c1.9,0,1.7-3.1,1.8-4.4H196.8z"/>
	<path class="st10" d="M199.3-116.6c-0.2-3.4,1.6-5.3,4.8-5.3c4.6,0,5.1,2.4,5.1,6.3v1.9h-6.6v2.1c0,1.9,0.7,2.2,1.7,2.2
		c1.2,0,1.6-0.9,1.5-2.7h3.3c0.1,3.2-1.2,5.2-4.6,5.2c-3.8,0-5.3-1.8-5.3-6V-116.6z M205.9-116.2v-1.2c0-1.4-0.4-1.9-1.7-1.9
		c-1.6,0-1.6,1.3-1.6,2.6v0.6H205.9z"/>
	<path class="st10" d="M215.4-120.1L215.4-120.1c0.8-1.6,2.3-1.8,3-1.8c1.9,0,3.4,1.1,3.3,3.6v11h-3.3v-9.5c0-1.4-0.2-2.3-1.4-2.4
		c-1.2-0.1-1.7,1.1-1.6,2.6v9.2h-3.3v-14.3h3.3V-120.1z"/>
	<path class="st10" d="M223.8-119.1v-2.4h1.3v-1.4c0-2.6,1.1-3.3,3.5-3.3h1.2v2.6c-0.3-0.1-0.5-0.2-0.7-0.2c-0.5,0-0.7,0.2-0.7,0.6
		v1.7h1.4v2.4h-1.4v11.9h-3.3v-11.9H223.8z"/>
	<path class="st10" d="M231.6-113.9c0-4.9,0.1-8,5-8c4.9,0,4.9,3.1,4.9,8c0,5-0.7,7.1-4.9,7C232.3-106.8,231.6-108.9,231.6-113.9z
		 M234.9-111.9c0,1.7,0.2,2.5,1.7,2.5c1.5,0,1.6-0.8,1.6-2.5v-4.8c0-1.3,0-2.7-1.6-2.7c-1.7,0-1.7,1.4-1.7,2.7V-111.9z"/>
	<path class="st10" d="M249.3-107.2c-1.9,0.2-4.7,0.4-4.7-2.3v-9.7h-1.3v-2.4h1.3v-3.9h3.3v3.9h1.4v2.4h-1.4v8.9
		c0.1,0.6,1,0.5,1.4,0.5V-107.2z"/>
	<path class="st10" d="M251.3-116.6c-0.2-3.4,1.6-5.3,4.8-5.3c4.6,0,5.1,2.4,5.1,6.3v1.9h-6.6v2.1c0,1.9,0.7,2.2,1.7,2.2
		c1.2,0,1.6-0.9,1.5-2.7h3.3c0.1,3.2-1.2,5.2-4.6,5.2c-3.8,0-5.3-1.8-5.3-6V-116.6z M257.9-116.2v-1.2c0-1.4-0.4-1.9-1.7-1.9
		c-1.6,0-1.6,1.3-1.6,2.6v0.6H257.9z"/>
	<path class="st10" d="M269.5-116.6v-1.6c-0.1-0.8-0.4-1.2-1.1-1.2c-1.3,0-1.3,1.4-1.2,3.2v3.4c-0.1,2.8,0.3,3.3,1.2,3.4
		c1,0,1-1,1.1-2.1v-1.3h3.3v1.3c0,3-1.2,4.6-4.5,4.6c-2.9,0-4.6-1.5-4.5-5.3v-4.6c0-4,1.9-5.1,4.5-5.1c3.3,0,4.5,2.1,4.5,4.2v1.1
		H269.5z"/>
</g>
<g>
	<path class="st10" d="M292.4-119.4c0-1.5-0.1-3.1-1.9-3.1c-1.1,0-1.8,0.4-1.8,1.6c0,1.3,0.8,1.8,1.8,2.5c1.1,0.7,3,2,3.9,2.8
		c1.1,1.1,1.4,2.1,1.4,3.6c0,3.3-2.2,5-5.3,5c-3.9,0-5.2-2.2-5.2-5.2v-1.3h3.2v1c-0.1,1.7,0.4,2.9,2,2.9c1.4,0,2-0.7,2-2
		c0-1-0.5-1.7-1.3-2.3c-1.7-1.3-3.8-2.3-5.1-4c-0.5-0.8-0.8-1.7-0.8-2.6c0-2.9,1.7-4.5,5.1-4.5c5.1,0,5,4,5,5.6H292.4z"/>
	<path class="st10" d="M298.3-113.5c0-4.4,0.1-7.3,4.6-7.3c4.4,0,4.5,2.8,4.5,7.3c0,4.5-0.6,6.4-4.5,6.4
		C298.9-107,298.3-109,298.3-113.5z M301.3-111.7c0,1.6,0.1,2.3,1.6,2.3c1.4,0,1.5-0.7,1.5-2.3v-4.3c0-1.2,0-2.5-1.5-2.5
		c-1.6,0-1.6,1.2-1.6,2.5V-111.7z"/>
	<path class="st10" d="M309-118.2v-2.2h1.1v-1.3c0-2.3,1-3,3.1-3h1.1v2.4c-0.2-0.1-0.5-0.1-0.7-0.1c-0.4,0-0.6,0.2-0.6,0.5v1.5h1.3
		v2.2h-1.3v10.8h-3v-10.8H309z"/>
	<path class="st10" d="M320.7-107.4c-1.8,0.2-4.2,0.4-4.2-2v-8.8h-1.2v-2.2h1.2v-3.6h3v3.6h1.3v2.2h-1.3v8c0.1,0.6,0.9,0.5,1.3,0.4
		V-107.4z"/>
	<path class="st10" d="M331.5-112.5c0.2,0.9,0.3,1.8,0.3,2.8h0.1c0-0.6,0.2-2.5,0.3-2.9l1-7.9h3l-2.6,13h-3.3l-1-5.2
		c-0.2-1.1-0.3-2.2-0.4-3.3h-0.1c0,1-0.1,2.1-0.3,3.1l-0.9,5.4h-3.3l-2.7-13h3.1l1.1,7.9c0.1,0.4,0.3,2.3,0.3,2.9h0
		c0-0.9,0.1-1.9,0.3-2.8l1.2-8h2.5L331.5-112.5z"/>
	<path class="st10" d="M343.9-107.5c-0.2-0.4-0.2-0.9-0.2-1.3h0c-0.3,0.5-0.7,1-1.2,1.2c-0.4,0.3-0.9,0.4-1.4,0.4
		c-2.4,0-3.5-1.2-3.5-3.9c0-3,2.1-3.7,4.4-4.6c1.3-0.5,1.7-1.1,1.5-2.2c-0.1-0.6-0.6-0.7-1.4-0.7c-1.4,0-1.6,0.7-1.6,1.9h-2.8
		c0-2.5,0.8-4.2,4.5-4.2c4.1,0,4.3,2.1,4.3,3.8v7.6c0,0.6,0.1,1.2,0.3,1.8H343.9z M343.5-114.3c-0.7,0.5-1.6,1-2.4,1.7
		c-0.4,0.4-0.5,1-0.5,1.6c0,1,0.3,1.7,1.4,1.7c1.8,0,1.4-2.2,1.5-3.5V-114.3z"/>
	<path class="st10" d="M352.4-118.1L352.4-118.1c0.4-0.9,0.8-1.5,1.2-1.8c0.9-0.7,1.4-0.7,1.9-0.7v3.5c-1.7-0.2-2.9,0.3-3,2.2v7.5
		h-3v-13h2.9V-118.1z"/>
	<path class="st10" d="M357-116c-0.1-3.1,1.4-4.8,4.4-4.8c4.2,0,4.6,2.2,4.6,5.7v1.7h-6v1.9c0,1.7,0.7,2,1.6,2
		c1.1,0,1.4-0.8,1.4-2.4h3c0.1,2.9-1.1,4.7-4.1,4.7c-3.4,0-4.8-1.6-4.8-5.4V-116z M363-115.6v-1.1c0-1.3-0.4-1.7-1.6-1.7
		c-1.5,0-1.4,1.1-1.4,2.3v0.5H363z"/>
</g>
<g>
	<path class="st10" d="M376-107.5v-17.2h3.2v6.8h4.5v-6.8h3.2v17.2h-3.2v-7.9h-4.5v7.9H376z"/>
	<path class="st10" d="M389.7-113.5c0-4.4,0.1-7.3,4.6-7.3c4.4,0,4.5,2.8,4.5,7.3c0,4.5-0.6,6.4-4.5,6.4
		C390.3-107,389.6-109,389.7-113.5z M392.7-111.7c0,1.6,0.1,2.3,1.6,2.3c1.4,0,1.5-0.7,1.5-2.3v-4.3c0-1.2,0-2.5-1.5-2.5
		c-1.6,0-1.6,1.2-1.6,2.5V-111.7z"/>
	<path class="st10" d="M407-109.4L407-109.4c-0.5,1.5-1.4,2.3-2.8,2.3c-2.4,0-2.9-1.2-2.9-3.4v-9.9h3v8.9c0,0.6,0,1.2,0.3,1.7
		c0.3,0.3,0.5,0.4,0.9,0.4c1.4,0,1.4-1.6,1.4-2.6v-8.4h3v13H407V-109.4z"/>
	<path class="st10" d="M415.1-111.7c-0.2,2.4,0.7,2.3,1.4,2.3c0.8,0,1.4-0.6,1.2-1.4c0-0.7-0.9-1.1-1.5-1.5l-1.6-1.1
		c-1.5-1-2.5-2.2-2.5-4.1c0-2,1.6-3.1,4.5-3.1c2.9,0,4.2,1.5,4.2,4.3h-3c0.1-1.4-0.3-2-1.4-2c-0.7,0-1.3,0.3-1.3,1.1
		c0,0.8,0.6,1.1,1.1,1.5l2.4,1.7c0.8,0.4,2,1.7,2,2.5c0.3,2.3-0.3,4.6-4.4,4.6c-1.6,0-4.5-0.7-4.2-4.6H415.1z"/>
	<path class="st10" d="M422.8-116c-0.1-3.1,1.4-4.8,4.4-4.8c4.2,0,4.6,2.2,4.6,5.7v1.7h-6v1.9c0,1.7,0.7,2,1.6,2
		c1.1,0,1.4-0.8,1.4-2.4h3c0.1,2.9-1.1,4.7-4.1,4.7c-3.4,0-4.8-1.6-4.8-5.4V-116z M428.8-115.6v-1.1c0-1.3-0.4-1.7-1.6-1.7
		c-1.5,0-1.4,1.1-1.4,2.3v0.5H428.8z"/>
</g>
<g>
	<circle class="st11" cx="149.7" cy="-84.5" r="4.2"/>
	<circle class="st11" cx="149.7" cy="-73.7" r="4.2"/>
	<circle class="st11" cx="159.7" cy="-73.7" r="4.2"/>
	<circle class="st11" cx="169.7" cy="-73.7" r="4.2"/>
	<path class="st11" d="M172.6-86.7C172.6-86.7,172.6-86.7,172.6-86.7c-6.3-0.4-8.8-3.6-9.7-6.2c0,0,0,0,0,0c0,0,0,0,0,0
		c-0.8-2.1-0.6-3.9-0.6-3.9c0,0,0,0,0,0c-0.7-0.9-1.8-1.5-3.1-1.5c-2.2,0-3.9,1.8-3.9,3.9c0,1.3,0.6,2.4,1.6,3.2
		c0,0,1.7-0.2,3.7,0.4l0.2,0.1c2.7,0.9,5.9,3.3,6.4,9.7c0,0,0,0,0,0c0,0,0,0,0,0v0l0,0c0.7,0.7,1.7,1.2,2.8,1.2
		c2.2,0,3.9-1.8,3.9-3.9C173.9-84.9,173.4-85.9,172.6-86.7z"/>
</g>
<g>
	<path class="st11" d="M196.8-80.1c0,0.4-0.1,0.7-0.1,1.1c-0.2,3.5-1.3,6.1-5.3,6.1c-5.8,0-6.2-3.7-6.2-8.8v-2.7
		c0.2-4.8,0.5-8.4,6.2-8.4c3.2,0.1,4.9,1.7,5.2,4.9c0.1,0.5,0.1,1,0.1,1.4h-3.5c-0.2-1.2,0-3.5-1.8-3.5c-2.8,0-2.6,3.3-2.6,4.8v5.3
		c0,1.6,0.1,4.1,2.6,4.1c1.9,0,1.7-3.1,1.8-4.4H196.8z"/>
	<path class="st11" d="M199.3-82.7c-0.2-3.4,1.6-5.3,4.8-5.3c4.6,0,5.1,2.4,5.1,6.3v1.9h-6.6v2.1c0,1.9,0.7,2.2,1.7,2.2
		c1.2,0,1.6-0.9,1.5-2.7h3.3c0.1,3.2-1.2,5.2-4.6,5.2c-3.8,0-5.3-1.8-5.3-6V-82.7z M205.9-82.3v-1.2c0-1.4-0.4-1.9-1.7-1.9
		c-1.6,0-1.6,1.3-1.6,2.6v0.6H205.9z"/>
	<path class="st11" d="M215.4-86.1L215.4-86.1c0.8-1.6,2.3-1.8,3-1.8c1.9,0,3.4,1.1,3.3,3.6v11h-3.3v-9.5c0-1.4-0.2-2.3-1.4-2.4
		c-1.2-0.1-1.7,1.1-1.6,2.6v9.2h-3.3v-14.3h3.3V-86.1z"/>
	<path class="st11" d="M223.8-85.2v-2.4h1.3V-89c0-2.6,1.1-3.3,3.5-3.3h1.2v2.6c-0.3-0.1-0.5-0.2-0.7-0.2c-0.5,0-0.7,0.2-0.7,0.6
		v1.7h1.4v2.4h-1.4v11.9h-3.3v-11.9H223.8z"/>
	<path class="st11" d="M231.6-80c0-4.9,0.1-8,5-8c4.9,0,4.9,3.1,4.9,8c0,5-0.7,7.1-4.9,7C232.3-72.9,231.6-75,231.6-80z M234.9-78
		c0,1.7,0.2,2.5,1.7,2.5c1.5,0,1.6-0.8,1.6-2.5v-4.8c0-1.3,0-2.7-1.6-2.7c-1.7,0-1.7,1.4-1.7,2.7V-78z"/>
	<path class="st11" d="M249.3-73.3c-1.9,0.2-4.7,0.4-4.7-2.3v-9.7h-1.3v-2.4h1.3v-3.9h3.3v3.9h1.4v2.4h-1.4v8.9
		c0.1,0.6,1,0.5,1.4,0.5V-73.3z"/>
	<path class="st11" d="M251.3-82.7c-0.2-3.4,1.6-5.3,4.8-5.3c4.6,0,5.1,2.4,5.1,6.3v1.9h-6.6v2.1c0,1.9,0.7,2.2,1.7,2.2
		c1.2,0,1.6-0.9,1.5-2.7h3.3c0.1,3.2-1.2,5.2-4.6,5.2c-3.8,0-5.3-1.8-5.3-6V-82.7z M257.9-82.3v-1.2c0-1.4-0.4-1.9-1.7-1.9
		c-1.6,0-1.6,1.3-1.6,2.6v0.6H257.9z"/>
	<path class="st11" d="M269.5-82.7v-1.6c-0.1-0.8-0.4-1.2-1.1-1.2c-1.3,0-1.3,1.4-1.2,3.2v3.4c-0.1,2.8,0.3,3.3,1.2,3.4
		c1,0,1-1,1.1-2.1v-1.3h3.3v1.3c0,3-1.2,4.6-4.5,4.6c-2.9,0-4.6-1.5-4.5-5.3v-4.6c0-4,1.9-5.1,4.5-5.1c3.3,0,4.5,2.1,4.5,4.2v1.1
		H269.5z"/>
</g>
<g>
	<path class="st11" d="M292.4-85.5c0-1.5-0.1-3.1-1.9-3.1c-1.1,0-1.8,0.4-1.8,1.6c0,1.3,0.8,1.8,1.8,2.5c1.1,0.7,3,2,3.9,2.8
		c1.1,1.1,1.4,2.1,1.4,3.6c0,3.3-2.2,5-5.3,5c-3.9,0-5.2-2.2-5.2-5.2v-1.3h3.2v1c-0.1,1.7,0.4,2.9,2,2.9c1.4,0,2-0.7,2-2
		c0-1-0.5-1.7-1.3-2.3c-1.7-1.3-3.8-2.3-5.1-4c-0.5-0.8-0.8-1.7-0.8-2.6c0-2.9,1.7-4.5,5.1-4.5c5.1,0,5,4,5,5.6H292.4z"/>
	<path class="st11" d="M298.3-79.6c0-4.4,0.1-7.3,4.6-7.3c4.4,0,4.5,2.8,4.5,7.3c0,4.5-0.6,6.4-4.5,6.4
		C298.9-73.1,298.3-75.1,298.3-79.6z M301.3-77.8c0,1.6,0.1,2.3,1.6,2.3c1.4,0,1.5-0.7,1.5-2.3v-4.3c0-1.2,0-2.5-1.5-2.5
		c-1.6,0-1.6,1.2-1.6,2.5V-77.8z"/>
	<path class="st11" d="M309-84.3v-2.2h1.1v-1.3c0-2.3,1-3,3.1-3h1.1v2.4c-0.2-0.1-0.5-0.1-0.7-0.1c-0.4,0-0.6,0.2-0.6,0.5v1.5h1.3
		v2.2h-1.3v10.8h-3v-10.8H309z"/>
	<path class="st11" d="M320.7-73.5c-1.8,0.2-4.2,0.4-4.2-2v-8.8h-1.2v-2.2h1.2v-3.6h3v3.6h1.3v2.2h-1.3v8c0.1,0.6,0.9,0.5,1.3,0.4
		V-73.5z"/>
	<path class="st11" d="M331.5-78.5c0.2,0.9,0.3,1.8,0.3,2.8h0.1c0-0.6,0.2-2.5,0.3-2.9l1-7.9h3l-2.6,13h-3.3l-1-5.2
		c-0.2-1.1-0.3-2.2-0.4-3.3h-0.1c0,1-0.1,2.1-0.3,3.1l-0.9,5.4h-3.3l-2.7-13h3.1l1.1,7.9c0.1,0.4,0.3,2.3,0.3,2.9h0
		c0-0.9,0.1-1.9,0.3-2.8l1.2-8h2.5L331.5-78.5z"/>
	<path class="st11" d="M343.9-73.5c-0.2-0.4-0.2-0.9-0.2-1.3h0c-0.3,0.5-0.7,1-1.2,1.2c-0.4,0.3-0.9,0.4-1.4,0.4
		c-2.4,0-3.5-1.2-3.5-3.9c0-3,2.1-3.7,4.4-4.6c1.3-0.5,1.7-1.1,1.5-2.2c-0.1-0.6-0.6-0.7-1.4-0.7c-1.4,0-1.6,0.7-1.6,1.9h-2.8
		c0-2.5,0.8-4.2,4.5-4.2c4.1,0,4.3,2.1,4.3,3.8v7.6c0,0.6,0.1,1.2,0.3,1.8H343.9z M343.5-80.4c-0.7,0.5-1.6,1-2.4,1.7
		c-0.4,0.4-0.5,1-0.5,1.6c0,1,0.3,1.7,1.4,1.7c1.8,0,1.4-2.2,1.5-3.5V-80.4z"/>
	<path class="st11" d="M352.4-84.2L352.4-84.2c0.4-0.9,0.8-1.5,1.2-1.8c0.9-0.7,1.4-0.7,1.9-0.7v3.5c-1.7-0.2-2.9,0.3-3,2.2v7.5h-3
		v-13h2.9V-84.2z"/>
	<path class="st11" d="M357-82c-0.1-3.1,1.4-4.8,4.4-4.8c4.2,0,4.6,2.2,4.6,5.7v1.7h-6v1.9c0,1.7,0.7,2,1.6,2c1.1,0,1.4-0.8,1.4-2.4
		h3c0.1,2.9-1.1,4.7-4.1,4.7c-3.4,0-4.8-1.6-4.8-5.4V-82z M363-81.7v-1.1c0-1.3-0.4-1.7-1.6-1.7c-1.5,0-1.4,1.1-1.4,2.3v0.5H363z"/>
</g>
<g>
	<path class="st11" d="M376-73.5v-17.2h3.2v6.8h4.5v-6.8h3.2v17.2h-3.2v-7.9h-4.5v7.9H376z"/>
	<path class="st11" d="M389.7-79.6c0-4.4,0.1-7.3,4.6-7.3c4.4,0,4.5,2.8,4.5,7.3c0,4.5-0.6,6.4-4.5,6.4
		C390.3-73.1,389.6-75.1,389.7-79.6z M392.7-77.8c0,1.6,0.1,2.3,1.6,2.3c1.4,0,1.5-0.7,1.5-2.3v-4.3c0-1.2,0-2.5-1.5-2.5
		c-1.6,0-1.6,1.2-1.6,2.5V-77.8z"/>
	<path class="st11" d="M407-75.5L407-75.5c-0.5,1.5-1.4,2.3-2.8,2.3c-2.4,0-2.9-1.2-2.9-3.4v-9.9h3v8.9c0,0.6,0,1.2,0.3,1.7
		c0.3,0.3,0.5,0.4,0.9,0.4c1.4,0,1.4-1.6,1.4-2.6v-8.4h3v13H407V-75.5z"/>
	<path class="st11" d="M415.1-77.8c-0.2,2.4,0.7,2.3,1.4,2.3c0.8,0,1.4-0.6,1.2-1.4c0-0.7-0.9-1.1-1.5-1.5l-1.6-1.1
		c-1.5-1-2.5-2.2-2.5-4.1c0-2,1.6-3.1,4.5-3.1c2.9,0,4.2,1.5,4.2,4.3h-3c0.1-1.4-0.3-2-1.4-2c-0.7,0-1.3,0.3-1.3,1.1
		c0,0.8,0.6,1.1,1.1,1.5l2.4,1.7c0.8,0.4,2,1.7,2,2.5c0.3,2.3-0.3,4.6-4.4,4.6c-1.6,0-4.5-0.7-4.2-4.6H415.1z"/>
	<path class="st11" d="M422.8-82c-0.1-3.1,1.4-4.8,4.4-4.8c4.2,0,4.6,2.2,4.6,5.7v1.7h-6v1.9c0,1.7,0.7,2,1.6,2
		c1.1,0,1.4-0.8,1.4-2.4h3c0.1,2.9-1.1,4.7-4.1,4.7c-3.4,0-4.8-1.6-4.8-5.4V-82z M428.8-81.7v-1.1c0-1.3-0.4-1.7-1.6-1.7
		c-1.5,0-1.4,1.1-1.4,2.3v0.5H428.8z"/>
</g>
</svg>
