<?xml version="1.0" encoding="utf-8"?>
<!-- Generator: Adobe Illustrator 22.0.0, SVG Export Plug-In . SVG Version: 6.00 Build 0)  -->
<svg version="1.1" id="Capa_1" xmlns="http://www.w3.org/2000/svg" xmlns:xlink="http://www.w3.org/1999/xlink" x="0px" y="0px"
	 viewBox="0 0 800 333.7" style="enable-background:new 0 0 800 333.7;" xml:space="preserve">
<style type="text/css">
	.st0{fill:#009EE2;}
	.st1{fill:#E95A0C;}
</style>
<g>
	<g>
		<g>
			<path class="st0" d="M77,258.7V136.2h45.2c17.1,0,31.8,5.9,43.9,17.8c12.2,11.9,18.3,26.3,18.3,43.4c0,17.1-6.1,31.6-18.3,43.4
				c-12.2,11.9-26.8,17.8-43.9,17.8H77z M108.8,163.2v68.5h7.1c10.2,0,18.6-2.9,25.3-8.6c6.7-5.7,10-14.3,10-25.7
				c0-10.7-3.2-19.1-9.6-25.2c-6.4-6.1-14.8-9.1-25.3-9.1H108.8z"/>
		</g>
		<g>
			<path class="st0" d="M206.8,184.6c9.7-8,21.6-12,35.6-12c14.1,0,26,4,35.7,12c9.7,8,14.5,18.8,14.5,32.5
				c0,13.6-4.8,24.4-14.5,32.4c-9.7,8-21.6,11.9-35.7,11.9c-14,0-25.8-4-35.6-11.9s-14.6-18.8-14.6-32.4
				C192.3,203.4,197.1,192.6,206.8,184.6z M256.3,203.7c-3.4-3.6-8-5.4-13.9-5.4c-5.8,0-10.5,1.8-13.9,5.4
				c-3.4,3.6-5.1,8.1-5.1,13.4c0,5.4,1.7,9.9,5.1,13.4c3.4,3.5,8,5.3,13.9,5.3c5.8,0,10.5-1.8,13.9-5.3c3.4-3.5,5.1-8,5.1-13.4
				C261.5,211.8,259.8,207.3,256.3,203.7z"/>
		</g>
		<g>
			<path class="st0" d="M335.5,175.3v10.7h0.3c6.1-9,14.9-13.5,26.6-13.5c10.7,0,18.6,3.1,23.7,9.2c5.1,6.1,7.6,14.6,7.6,25.4v51.5
				h-29.6v-40.6c0-0.2,0-1.1,0-2.5c0-1.5,0-2.4,0-2.9s0-1.4-0.1-2.8c-0.1-1.4-0.2-2.4-0.3-3c-0.2-0.6-0.4-1.6-0.7-2.8
				c-0.3-1.2-0.7-2.1-1.1-2.6c-0.4-0.5-1-1.2-1.7-2c-0.7-0.8-1.5-1.4-2.4-1.8c-0.9-0.4-1.9-0.7-3.1-1.1c-1.2-0.3-2.5-0.5-3.9-0.5
				c-10.3,0-15.4,6.4-15.4,19.3v43.2H306v-83.3H335.5z"/>
		</g>
		<g>
			<path class="st0" d="M504.4,175.3v83.3h-29.6v-9.3h-0.3c-2.5,4-6,7-10.6,9c-4.5,2-9.4,3-14.6,3c-12.1,0-22.2-4.4-30.1-13.1
				c-8-8.7-11.9-19.2-11.9-31.4c0-12.2,3.9-22.7,11.8-31.3c7.8-8.7,17.8-13,30-13c11,0,19.7,3.6,25.8,10.9v-8.1H504.4z M470.7,203.7
				c-3.4-3.6-8-5.4-13.9-5.4s-10.5,1.8-13.9,5.4c-3.4,3.6-5.1,8.1-5.1,13.4c0,5.4,1.7,9.9,5.1,13.4c3.4,3.5,8,5.3,13.9,5.3
				s10.5-1.8,13.9-5.3c3.4-3.5,5.1-8,5.1-13.4C475.8,211.8,474.1,207.3,470.7,203.7z"/>
		</g>
		<g>
			<path class="st1" d="M552.7,175.3v9.4h0.3c2.6-4,6.2-7,10.7-9.1c4.5-2.1,9.4-3.1,14.5-3.1c12.1,0,22.2,4.4,30.1,13.2
				s11.9,19.3,11.9,31.5c0,12.2-3.9,22.7-11.8,31.3c-7.9,8.6-17.8,12.9-30,12.9c-11,0-19.7-3.6-25.8-10.7v49.5h-29.6V175.3H552.7z
				 M584.6,203.7c-3.4-3.6-8-5.4-13.9-5.4c-5.8,0-10.5,1.8-13.9,5.4c-3.4,3.6-5.1,8.1-5.1,13.4c0,5.4,1.7,9.9,5.1,13.4
				c3.4,3.5,8,5.3,13.9,5.3c5.8,0,10.5-1.8,13.9-5.3c3.4-3.5,5.1-8,5.1-13.4C589.7,211.8,588,207.3,584.6,203.7z"/>
		</g>
		<g>
			<path class="st1" d="M663.4,175.3v9.4h0.3c2.6-4,6.2-7,10.7-9.1c4.5-2.1,9.4-3.1,14.5-3.1c12.1,0,22.2,4.4,30.1,13.2
				S731,205,731,217.2c0,12.2-3.9,22.7-11.8,31.3c-7.9,8.6-17.8,12.9-30,12.9c-11,0-19.7-3.6-25.8-10.7v49.5h-29.6V175.3H663.4z
				 M695.3,203.7c-3.4-3.6-8-5.4-13.9-5.4c-5.8,0-10.5,1.8-13.9,5.4c-3.4,3.6-5.1,8.1-5.1,13.4c0,5.4,1.7,9.9,5.1,13.4
				c3.4,3.5,8,5.3,13.9,5.3c5.8,0,10.5-1.8,13.9-5.3c3.4-3.5,5.1-8,5.1-13.4C700.5,211.8,698.8,207.3,695.3,203.7z"/>
		</g>
	</g>
	<g>
		<g>
			<path class="st1" d="M402.1,133.2L328,109.9v57.5c0,0,50.1-13.7,74.1,17.2c23.7-30.8,74.1-17.2,74.1-17.2v-57.5L402.1,133.2z"/>
		</g>
		<g>
			<polygon class="st1" points="548,81.7 402.1,128.8 256.2,81.7 402.1,34.6 			"/>
		</g>
		<g>
			<polygon class="st1" points="507.4,132 503.2,132 503.2,94 401.9,83.7 402.3,79.6 507.4,90.3 			"/>
		</g>
		<g>
			<path class="st1" d="M505.3,143.3c-3.7,0-6.6-3-6.6-6.6c0-3.7,3-6.7,6.6-6.7c3.7,0,6.7,3,6.7,6.7
				C511.9,140.3,509,143.3,505.3,143.3z M505.3,134.1c-1.4,0-2.5,1.1-2.5,2.5c0,1.4,1.1,2.5,2.5,2.5c1.4,0,2.5-1.1,2.5-2.5
				C507.8,135.2,506.7,134.1,505.3,134.1z"/>
		</g>
		<g>
			<path class="st1" d="M505.3,165.5c-5,0-8.1-1.7-8.1-4.5v-13.7c0-4.4,3.6-8.1,8.1-8.1c4.4,0,8.1,3.6,8.1,8.1v13.7
				C513.4,163.7,510.3,165.5,505.3,165.5z M501.4,160.6c0.5,0.3,1.9,0.7,3.9,0.7c2,0,3.4-0.4,3.9-0.7v-13.4c0-2.2-1.8-3.9-3.9-3.9
				c-2.2,0-3.9,1.8-3.9,3.9V160.6z"/>
		</g>
	</g>
</g>
</svg>
