<?xml version="1.0" encoding="utf-8"?>
<!-- Generator: Adobe Illustrator 22.0.0, SVG Export Plug-In . SVG Version: 6.00 Build 0)  -->
<svg version="1.1" id="Capa_1" xmlns="http://www.w3.org/2000/svg" xmlns:xlink="http://www.w3.org/1999/xlink" x="0px" y="0px"
	 viewBox="0 0 100 100" style="enable-background:new 0 0 100 100;" xml:space="preserve">
<style type="text/css">
	.st0{fill:#B3B3B3;}
	.st1{fill:#A5120D;}
	.st2{fill:#DC1B16;}
	.st3{fill:#FFFFFF;}
	.st4{fill:#B3B2B2;}
</style>
<title>angularJS</title>
<g>
	<polygon class="st0" points="5.1,17.2 51,1.1 97.2,17.2 89.9,77.1 51.2,98.5 12.3,77.1 	"/>
	<polygon class="st1" points="51,6.1 51,93.2 85.6,74.1 92.1,20.4 	"/>
	<polygon class="st2" points="51,6.1 51,93.2 16.5,74.1 10,20.4 	"/>
	<path class="st3" d="M51,10.5L51,10.5L51,10.5L51,10.5L51,10.5L22.8,73.3h10.4l6-14.2c0.9,0,22.8,0,23.8,0l6,14.2h10.4L51,10.5z
		 M42.7,50.6L51,30.8l8.3,19.8C46.2,50.6,49.9,50.6,42.7,50.6z"/>
	<path class="st4" d="M51,10.5L51,10.5L51,10.5l0,20.3l8.3,19.8c-4.2,0-6.7,0-8.3,0v8.5c5.7,0,11.4,0,11.9,0l6,14.2h10.4L51,10.5z"
		/>
</g>
</svg>
