<?xml version="1.0" encoding="utf-8"?>
<!-- Generator: Adobe Illustrator 21.1.0, SVG Export Plug-In . SVG Version: 6.00 Build 0)  -->
<svg version="1.1" id="Capa_1" xmlns="http://www.w3.org/2000/svg" xmlns:xlink="http://www.w3.org/1999/xlink" x="0px" y="0px"
	 viewBox="0 0 100 100" style="enable-background:new 0 0 100 100;" xml:space="preserve">
<style type="text/css">
	.st0{clip-path:url(#SVGID_2_);}
	.st1{clip-path:url(#SVGID_4_);}
	.st2{fill:#FFFFFF;}
	.st3{fill:#B3B2B2;}
	.st4{fill:none;stroke:#FFFFFF;stroke-miterlimit:10;}
</style>
<title>angularJS</title>
<g>
	<g>
		<defs>
			<rect id="SVGID_1_" x="4.9" y="1" width="92.4" height="97.7"/>
		</defs>
		<clipPath id="SVGID_2_">
			<use xlink:href="#SVGID_1_"  style="overflow:visible;"/>
		</clipPath>
		<g id="Ilustración_16" class="st0">
			<g>
				<defs>
					<rect id="SVGID_3_" x="4.9" y="1" width="92.4" height="97.7"/>
				</defs>
				<clipPath id="SVGID_4_">
					<use xlink:href="#SVGID_3_"  style="overflow:visible;"/>
				</clipPath>
				<g class="st1">
					<polygon class="st2" points="51.1,30.8 51.1,10.5 51.1,10.5 51.1,10.5 51.1,10.6 51.1,30.9 					"/>
					<path class="st3" d="M63,59.2l6,14.2L63,59.2z"/>
					<path class="st2" d="M51,1.1L5,17.2l7.2,59.9l38.9,21.4L90,77.1l7.3-59.9L51,1.1z M85.6,74.1L51.1,93.2L16.5,74.1L10,20.4
						L51.1,6.1l41.1,14.3L85.6,74.1z"/>
					<path class="st4" d="M51,1.1L5,17.2l7.2,59.9l38.9,21.4L90,77.1l7.3-59.9L51,1.1z M85.6,74.1L51.1,93.2L16.5,74.1L10,20.4
						L51.1,6.1l41.1,14.3L85.6,74.1z"/>
					<path class="st2" d="M56.7,23L56.7,23L56.7,23l-5.6-12.4v0l0,0L22.8,73.3h10.4l6-14.2h11.9l0,0v0H63l6,14.2h10.3L56.7,23z
						 M51.1,50.7c-3.6,0-3.4,0-8.3,0l8.3-19.8l0,0l8.3,19.8H51.1L51.1,50.7L51.1,50.7L51.1,50.7L51.1,50.7z"/>
				</g>
			</g>
		</g>
	</g>
</g>
</svg>
