<?xml version="1.0" encoding="utf-8"?>
<!-- Generator: Adobe Illustrator 22.0.0, SVG Export Plug-In . SVG Version: 6.00 Build 0)  -->
<svg version="1.1" id="Capa_1" xmlns="http://www.w3.org/2000/svg" xmlns:xlink="http://www.w3.org/1999/xlink" x="0px" y="0px"
	 viewBox="0 0 100 100" style="enable-background:new 0 0 100 100;" xml:space="preserve">
<style type="text/css">
	.st0{fill:#FFFFFF;stroke:#000000;stroke-miterlimit:10;}
	.st1{fill:#660099;}
</style>
<rect x="14" y="7" class="st0" width="71" height="83"/>
<title>bootstrap</title>
<g>
	<path class="st1" d="M50.4,54h-9.6v15.3h9.7c8,0,8.5-5.7,8.5-7.7S58.3,54,50.4,54z"/>
	<path class="st1" d="M56,37.4c0-1.8-1.2-5.8-6.8-5.8h-8.5v11.8l8.4,0.1C55.5,43.5,56,39.4,56,37.4z"/>
	<path class="st1" d="M84.8,1.8H15.2c-7.4,0-13.4,6-13.4,13.4v69.6c0,7.4,6,13.4,13.4,13.4h69.6c7.4,0,13.4-6,13.4-13.4V15.2
		C98.2,8,92,1.8,84.8,1.8z M53.8,79.8H25.3V20.3h27.8c15.7,0,19.1,11.1,19.1,15.6c0,8.9-5.1,11.2-7.6,12.2c3.8,1.1,10,4.4,10,15.7
		C74.7,66.9,74.3,79.8,53.8,79.8z"/>
</g>
</svg>
