<?xml version="1.0" encoding="utf-8"?>
<!-- Generator: Adobe Illustrator 22.0.0, SVG Export Plug-In . SVG Version: 6.00 Build 0)  -->
<svg version="1.1" id="Capa_1" xmlns="http://www.w3.org/2000/svg" xmlns:xlink="http://www.w3.org/1999/xlink" x="0px" y="0px"
	 viewBox="0 0 100 100" style="enable-background:new 0 0 100 100;" xml:space="preserve">
<style type="text/css">
	.st0{fill:#FFFFFF;}
	.st1{fill:#FFFFFF;stroke:#FFFFFF;stroke-width:0.75;stroke-miterlimit:10;}
</style>
<title>bootstrap</title>
<g>
	<g>
		<path class="st0" d="M53.1,20.3H25.3v59.5h28.5l0,0c20.4,0,20.8-12.8,20.8-16c0-11.3-6.2-14.6-10-15.7c2.5-1,7.6-3.3,7.6-12.2
			C72.2,31.4,68.8,20.3,53.1,20.3L53.1,20.3z M40.7,43.5V31.7h8.5c5.6,0,6.8,4,6.8,5.8l0,0l0,0l0,0c0,2-0.6,6.1-6.9,6.1L40.7,43.5
			L40.7,43.5z M40.7,69.4V54.1h9.6c7.9,0,8.6,5.6,8.6,7.6s-0.5,7.7-8.5,7.7L40.7,69.4L40.7,69.4z"/>
	</g>
	<g>
		<path class="st1" d="M84.8,4.2c6.1,0,11,4.9,11,11v69.6c0,6.1-4.9,11-11,11H15.2c-6.1,0-11-4.9-11-11V15.2c0-6.1,4.9-11,11-11
			H84.8 M84.8,2.2H15.2c-7.2,0-13,5.8-13,13v69.6c0,7.1,5.8,13,13,13h69.6c7.2,0,13-5.8,13-13V15.2C97.8,8.1,91.9,2.2,84.8,2.2
			L84.8,2.2z"/>
	</g>
</g>
</svg>
