<?xml version="1.0" encoding="utf-8"?>
<!-- Generator: Adobe Illustrator 22.0.0, SVG Export Plug-In . SVG Version: 6.00 Build 0)  -->
<svg version="1.1" id="Capa_1" xmlns="http://www.w3.org/2000/svg" xmlns:xlink="http://www.w3.org/1999/xlink" x="0px" y="0px"
	 viewBox="0 0 100 100" style="enable-background:new 0 0 100 100;" xml:space="preserve">
<style type="text/css">
	.st0{fill:#FFFFFF;}
</style>
<g>
	<path class="st0" d="M90.8,3l-7.6,84.7l-33.3,9.2l-33.2-9.2L9.2,3H90.8 M94.1,0H5.9l8,90l36,10l36.1-10L94.1,0L94.1,0z"/>
</g>
<g>
	<g>
		<polygon class="st0" points="77.6,17.7 22.3,17.7 23.3,28.8 51.9,28.8 50.1,29.5 24.3,40.6 25.2,51.6 63.6,51.6 62.3,66 
			50.1,69.4 50,69.4 37.7,66.1 36.9,57.3 25.8,57.3 27.3,74.6 50,80.8 50.1,80.8 72.6,74.6 75.6,40.6 50.1,40.6 76.6,28.8 		"/>
	</g>
</g>
</svg>
