<?xml version="1.0" encoding="utf-8"?>
<!-- Generator: Adobe Illustrator 22.0.0, SVG Export Plug-In . SVG Version: 6.00 Build 0)  -->
<svg version="1.1" id="Capa_1" xmlns="http://www.w3.org/2000/svg" xmlns:xlink="http://www.w3.org/1999/xlink" x="0px" y="0px"
	 viewBox="0 0 100 100" style="enable-background:new 0 0 100 100;" xml:space="preserve">
<style type="text/css">
	.st0{fill:#FFFFFF;}
	.st1{fill:#0071BC;}
	.st2{fill:#29ABE2;}
	.st3{fill:#B3B3B3;}
	.st4{fill:#E6E6E6;}
</style>
<g>
	<g>
		<polygon class="st0" points="77.7,17.9 22.4,17.9 23.4,29 52,29 50.2,29.7 24.4,40.8 25.3,51.8 63.7,51.8 62.3,66.2 50.2,69.6 
			50.1,69.6 37.8,66.3 37,57.5 25.9,57.5 27.4,74.8 50.1,81 50.2,81 72.7,74.8 75.7,40.8 50.2,40.8 76.7,29 		"/>
	</g>
</g>
<g>
	<polygon class="st1" points="13.9,89.4 5.9,-0.6 94.1,-0.6 86.1,89.4 49.9,99.4 13.9,89.4 	"/>
	<polygon class="st2" points="50.1,91.7 79.2,83.7 86,6.9 50.1,6.9 50.1,91.7 	"/>
	<polygon class="st3" points="24.3,40 25.2,51 50.1,40 50.1,28.9 24.3,40 	"/>
	<polygon class="st4" points="77.6,17.1 50.1,28.9 50.1,40 76.6,28.2 77.6,17.1 	"/>
	<polygon class="st4" points="50.1,68.8 50,68.8 37.7,65.5 36.9,56.7 25.8,56.7 27.3,74 50,80.3 50.1,80.3 50.1,68.8 	"/>
	<polygon class="st0" points="50.1,40 50.1,51 63.6,51 62.3,65.4 50.1,68.8 50.1,80.3 72.6,74 75.6,40 50.1,40 	"/>
	<polygon class="st4" points="50.1,40 24.3,40 25.2,51 50.1,51 50.1,40 	"/>
	<polygon class="st4" points="50.1,28.2 50.1,17.1 50,17.1 22.3,17.1 23.3,28.2 50.1,28.2 	"/>
	<polygon class="st0" points="50.1,17.1 50.1,28 50.1,28.2 76.6,28.2 77.6,17.1 50.1,17.1 	"/>
</g>
</svg>
