<?xml version="1.0" encoding="utf-8"?>
<!-- Generator: Adobe Illustrator 22.0.0, SVG Export Plug-In . SVG Version: 6.00 Build 0)  -->
<svg version="1.1" id="Capa_1" xmlns="http://www.w3.org/2000/svg" xmlns:xlink="http://www.w3.org/1999/xlink" x="0px" y="0px"
	 viewBox="0 0 100 100" style="enable-background:new 0 0 100 100;" xml:space="preserve">
<style type="text/css">
	.st0{fill:#FFFFFF;}
	.st1{fill:#660099;}
</style>
<circle class="st0" cx="49.4" cy="51.1" r="47.5"/>
<g>
	<path class="st1" d="M49.5,4C23.3,4,2,25.3,2,51.6c0,20.4,13.1,38.5,32.5,45c2.4,0.4,3.3-1,3.3-2.3s0-4.9-0.1-8.8
		c-13.2,2.9-16-5.6-16-5.6c-2.2-5.5-5.3-6.9-5.3-6.9c-4.3-2.9,0.3-2.9,0.3-2.9c4.8,0.3,7.3,4.9,7.3,4.9c4.2,7.3,11.1,5.2,13.8,3.9
		c0.2-2.4,1.3-4.7,3-6.3C30.3,71.3,19.2,67.2,19.2,49c-0.1-4.7,1.7-9.3,4.9-12.8c-0.5-1.2-2.1-6,0.5-12.6c0,0,4-1.3,13.1,4.9
		c7.8-2.1,16-2.1,23.8,0c9.1-6.1,13-4.9,13-4.9c2.6,6.5,1,11.4,0.5,12.6c3.2,3.5,5,8,4.9,12.8c0,18.2-11.1,22.3-21.7,23.4
		c1.7,1.5,3.2,4.4,3.2,8.8c0,6.4-0.1,11.5-0.1,13c0,1.3,0.8,2.8,3.3,2.3c24.9-8.4,38.2-35.4,29.8-60.2C87.8,17.1,69.8,4.1,49.5,4"/>
	<path class="st1" d="M19.8,71.7c-0.1,0.2-0.5,0.3-0.8,0.1s-0.5-0.5-0.4-0.7s0.5-0.3,0.8-0.2S19.9,71.4,19.8,71.7 M22.1,73.7
		c-0.2,0.2-0.7,0.1-1-0.2c-0.3-0.2-0.4-0.7-0.1-1c0.2-0.2,0.7-0.1,1,0.2S22.4,73.5,22.1,73.7 M23.7,76.4c-0.3,0.2-0.8,0-1.1-0.4
		s-0.3-0.9,0-1.1s0.8,0,1.1,0.4S24,76.2,23.7,76.4 M26.4,79.5c-0.3,0.3-0.8,0.2-1.2-0.2c-0.4-0.3-0.5-0.8-0.2-1.2
		c0.3-0.3,0.8-0.2,1.2,0.2S26.8,79.2,26.4,79.5 M30,80.5c-0.1,0.4-0.6,0.5-1.2,0.4s-0.9-0.6-0.8-1s0.6-0.6,1.2-0.4
		S30.1,80.1,30,80.5 M34,80.9c0,0.4-0.4,0.7-1,0.7s-1-0.3-1-0.7s0.5-0.7,1-0.7S34,80.5,34,80.9 M37.9,80.8c0.1,0.4-0.3,0.8-0.9,0.9
		s-1.1-0.1-1.1-0.5s0.3-0.8,0.9-0.9S37.8,80.4,37.9,80.8"/>
</g>
</svg>
