<svg id="Capa_1" data-name="Capa 1" xmlns="http://www.w3.org/2000/svg" xmlns:xlink="http://www.w3.org/1999/xlink" viewBox="0 0 100 100"><defs><style>.cls-1{fill:none;}.cls-2{clip-path:url(#clip-path);}.cls-3{fill:#fff;}</style><clipPath id="clip-path"><rect class="cls-1" x="2" y="4" width="95" height="92.65"/></clipPath></defs><title>github</title><g id="Ilustración_24" data-name="Ilustración 24"><g class="cls-2"><g class="cls-2"><path class="cls-3" d="M49.5,4a47.51,47.51,0,0,0-15,92.57c2.37.44,3.25-1,3.25-2.29s0-4.87-.06-8.84c-13.21,2.87-16-5.6-16-5.6-2.16-5.49-5.27-6.95-5.27-6.95-4.31-2.95.32-2.89.32-2.89,4.77.34,7.28,4.9,7.28,4.9,4.24,7.26,11.11,5.16,13.82,3.95a10.12,10.12,0,0,1,3-6.35C30.28,71.29,19.19,67.22,19.19,49a18.38,18.38,0,0,1,4.89-12.75c-.49-1.2-2.12-6,.46-12.57,0,0,4-1.28,13.07,4.87a45.06,45.06,0,0,1,23.79,0c9.07-6.15,13-4.87,13-4.87,2.59,6.54,1,11.37.47,12.57A18.35,18.35,0,0,1,79.8,49c0,18.24-11.11,22.26-21.69,23.44,1.7,1.47,3.22,4.37,3.22,8.8,0,6.36-.06,11.47-.06,13,0,1.26.85,2.75,3.26,2.28A47.51,47.51,0,0,0,49.5,4"/><path class="cls-3" d="M19.79,71.66c-.1.24-.48.31-.81.14s-.54-.48-.43-.71.47-.31.82-.15.54.48.42.72m2.34,2.08c-.23.21-.67.11-1-.22a.73.73,0,0,1-.14-1c.23-.21.66-.11,1,.22s.37.77.13,1m1.6,2.67c-.29.2-.77,0-1.06-.41s-.29-.93,0-1.13.76,0,1.06.4.29.94,0,1.14m2.71,3.09c-.26.29-.81.21-1.22-.18A.91.91,0,0,1,25,78.11c.26-.29.82-.21,1.23.18s.54.93.26,1.21m3.5,1c-.11.37-.65.54-1.19.38s-.89-.6-.78-1,.65-.55,1.19-.38.89.59.78,1m4,.44c0,.39-.44.72-1,.72s-1-.3-1-.69.45-.72,1-.73,1,.3,1,.69m3.92-.15c.07.38-.32.77-.89.88s-1.06-.14-1.13-.51.33-.78.88-.89,1.06.13,1.14.52"/></g></g></g></svg>