<?xml version="1.0" encoding="utf-8"?>
<!-- Generator: Adobe Illustrator 22.0.0, SVG Export Plug-In . SVG Version: 6.00 Build 0)  -->
<svg version="1.1" id="Capa_1" xmlns="http://www.w3.org/2000/svg" xmlns:xlink="http://www.w3.org/1999/xlink" x="0px" y="0px"
	 viewBox="0 0 100 100" style="enable-background:new 0 0 100 100;" xml:space="preserve">
<style type="text/css">
	.st0{display:none;}
	.st1{display:inline;}
	.st2{fill:#FFFFFF;}
</style>
<g class="st0">
	<g class="st1">
		<path class="st2" d="M185.6-177.9h-27.8v59.5h28.5l0,0c20.4,0,20.8-12.8,20.8-16c0-11.3-6.2-14.6-10-15.7c2.5-1,7.6-3.3,7.6-12.2
			C204.7-166.8,201.3-177.9,185.6-177.9L185.6-177.9z M173.2-154.7v-11.8h8.5c5.6,0,6.8,4,6.8,5.8l0,0l0,0l0,0c0,2-0.6,6.1-6.9,6.1
			L173.2-154.7L173.2-154.7z M173.2-128.8v-15.3h9.6c7.9,0,8.6,5.6,8.6,7.6s-0.5,7.7-8.5,7.7H173.2L173.2-128.8z"/>
	</g>
	<g class="st1">
		<path class="st2" d="M217.3-194c6.1,0,11,4.9,11,11v69.6c0,6.1-4.9,11-11,11h-69.6c-6.1,0-11-4.9-11-11V-183c0-6.1,4.9-11,11-11
			H217.3 M217.3-196h-69.6c-7.2,0-13,5.8-13,13v69.6c0,7.1,5.8,13,13,13h69.6c7.2,0,13-5.8,13-13V-183
			C230.3-190.1,224.4-196,217.3-196L217.3-196z"/>
	</g>
</g>
<g>
	<polygon class="st2" points="25.6,51.8 63.4,51.8 62.1,65.8 49.9,69.1 37.8,65.9 37,57.2 26.1,57.2 27.6,74.3 50,80.5 72.3,74.3 
		72.4,72.5 75,43.8 75.2,40.9 35.6,40.9 34.6,29.7 76.3,29.7 76.5,27.3 77,21.7 77.2,18.8 22.7,18.8 23,21.7 	"/>
	<g>
		<path class="st2" d="M90.2,3.7l-7.5,83.4l-32.8,9.1l-32.7-9.1L9.8,3.7H90.2 M93.5,0.7h-87l7.9,88.8l35.5,9.9l35.6-9.9L93.5,0.7
			L93.5,0.7z"/>
	</g>
</g>
</svg>
