<?xml version="1.0" encoding="utf-8"?>
<!-- Generator: Adobe Illustrator 22.0.0, SVG Export Plug-In . SVG Version: 6.00 Build 0)  -->
<svg version="1.1" id="Capa_1" xmlns="http://www.w3.org/2000/svg" xmlns:xlink="http://www.w3.org/1999/xlink" x="0px" y="0px"
	 viewBox="0 0 100 100" style="enable-background:new 0 0 100 100;" xml:space="preserve">
<style type="text/css">
	.st0{fill:#E44D26;}
	.st1{fill:#F16529;}
	.st2{fill:#EBEBEB;}
	.st3{fill:#FFFFFF;}
</style>
<g>
	<path class="st0" d="M49.9,99.4l-35.5-9.9L6.5,0.7h87l-7.9,88.8L49.9,99.4z M49.9,99.4"/>
	<path class="st1" d="M78.8,83.9L85.6,8H50v83.9L78.8,83.9z M78.8,83.9"/>
	<path class="st2" d="M50,51.8V40.9H35.6l-1-11.2H50V18.9h0H22.7l0.3,2.9l2.7,30H50z M50,51.8"/>
	<path class="st2" d="M50,69.2L50,69.2l-12.2-3.3L37,57.3h-5.9h-5l1.5,17.1l22.3,6.2l0.1,0V69.2z M50,69.2"/>
	<path class="st3" d="M75.3,40.9h-2.9H50v10.9h13.4l-1.3,14.1L50,69.2v11.3l22.3-6.2l0.2-1.8L75,43.8L75.3,40.9z M75.3,40.9"/>
	<path class="st3" d="M77.3,18.9H50v6.8v4.1v0h26.3l0,0h0l0.2-2.4l0.5-5.5L77.3,18.9z M77.3,18.9"/>
</g>
</svg>
