<?xml version="1.0" encoding="utf-8"?>
<!-- Generator: Adobe Illustrator 22.0.0, SVG Export Plug-In . SVG Version: 6.00 Build 0)  -->
<svg version="1.1" id="Capa_1" xmlns="http://www.w3.org/2000/svg" xmlns:xlink="http://www.w3.org/1999/xlink" x="0px" y="0px"
	 viewBox="0 0 100 100" style="enable-background:new 0 0 100 100;" xml:space="preserve">
<style type="text/css">
	.st0{clip-path:url(#SVGID_2_);}
	.st1{clip-path:url(#SVGID_4_);}
	.st2{fill:#FF6633;}
</style>
<title>illustrator</title>
<g>
	<g>
		<defs>
			<rect id="SVGID_1_" x="3" y="4" width="95" height="92.6"/>
		</defs>
		<clipPath id="SVGID_2_">
			<use xlink:href="#SVGID_1_"  style="overflow:visible;"/>
		</clipPath>
		<g id="Ilustración_12" class="st0">
			<g>
				<defs>
					<rect id="SVGID_3_" x="3" y="4" width="95" height="92.6"/>
				</defs>
				<clipPath id="SVGID_4_">
					<use xlink:href="#SVGID_3_"  style="overflow:visible;"/>
				</clipPath>
				<g class="st1">
					<path class="st2" d="M7,8h87v84.7H7V8z M3,96.6h95V4H3V96.6z M65.2,37c0-0.3,0.1-0.5,0.5-0.5h6.2c0.3,0,0.5,0.1,0.5,0.5v31.2
						c0,0.3-0.1,0.5-0.5,0.5h-6.1c-0.4,0-0.5-0.2-0.5-0.5L65.2,37L65.2,37z M64.8,28c0-2.2,1.8-4,4-4s4,1.8,4,4
						c0.1,2.1-1.5,3.9-3.5,4c-0.2,0-0.4,0-0.6,0c-2,0.2-3.8-1.4-4-3.4C64.7,28.4,64.7,28.2,64.8,28 M47,50c-1.1-4.4-3.7-14-4.7-18.6
						h-0.1c-0.8,4.7-3,12.5-4.6,18.6H47z M36,56.5l-3.2,11.9c-0.1,0.3-0.2,0.4-0.6,0.4h-5.8c-0.4,0-0.5-0.1-0.4-0.6l11.2-39.4
						c0.3-1.1,0.4-2.2,0.4-3.3c0-0.3,0.1-0.4,0.3-0.4h8.3c0.3,0,0.4,0.1,0.5,0.4l12.6,42.7c0.1,0.3,0,0.5-0.3,0.5h-6.6
						c-0.3,0-0.5-0.1-0.6-0.4l-3.3-11.9H36z"/>
				</g>
			</g>
		</g>
	</g>
</g>
</svg>
