<svg id="Capa_1" data-name="Capa 1" xmlns="http://www.w3.org/2000/svg" xmlns:xlink="http://www.w3.org/1999/xlink" viewBox="0 0 100 100"><defs><style>.cls-1{fill:none;}.cls-2{clip-path:url(#clip-path);}.cls-3{fill:#fff;}</style><clipPath id="clip-path"><rect class="cls-1" x="3" y="4" width="95" height="92.63"/></clipPath></defs><title>illustrator</title><g id="Ilustración_12" data-name="Ilustración 12"><g class="cls-2"><g class="cls-2"><path class="cls-3" d="M7,8H94V92.67H7ZM3,96.63H98V4H3ZM65.23,37c0-.32.12-.48.48-.48h6.21c.32,0,.47.12.47.48V68.24c0,.32-.08.47-.47.47H65.78c-.4,0-.51-.2-.51-.51V37Zm-.44-9a4,4,0,0,1,8.08,0,3.78,3.78,0,0,1-4.12,4,3.72,3.72,0,0,1-4-4M47,50c-1.11-4.39-3.72-14-4.71-18.6h-.08C41.36,36.06,39.26,43.9,37.6,50ZM36,56.45,32.85,68.32c-.08.32-.2.4-.59.4H26.43c-.4,0-.48-.12-.4-.59L37.28,28.78a12.82,12.82,0,0,0,.4-3.29c0-.28.12-.4.32-.4H46.3c.28,0,.4.08.48.4L59.37,68.2c.08.32,0,.51-.32.51H52.48c-.32,0-.51-.08-.59-.36L48.64,56.45Z"/></g></g></g></svg>