<svg id="Capa_1" data-name="Capa 1" xmlns="http://www.w3.org/2000/svg" xmlns:xlink="http://www.w3.org/1999/xlink" viewBox="0 0 100 100"><defs><style>.cls-1{fill:none;}.cls-2{clip-path:url(#clip-path);}.cls-3{fill:#fff;}</style><clipPath id="clip-path"><rect class="cls-1" x="3" y="4" width="95" height="92.63"/></clipPath></defs><title>inDesign</title><g id="Ilustración_13" data-name="Ilustración 13"><g class="cls-2"><g class="cls-2"><path class="cls-3" d="M7,8H94V92.67H7ZM3,96.63H98V4H3ZM63.09,42.48a5.63,5.63,0,0,0-2.34-.4c-5.11,0-8.67,3.92-8.67,10.45C52.08,60,55.73,63,60.28,63a7.11,7.11,0,0,0,2.81-.47ZM61,36a18.24,18.24,0,0,1,2.1.08V25.57a.37.37,0,0,1,.4-.4H69.9c.32,0,.4.12.4.32v37a29.85,29.85,0,0,0,.2,4c0,.28-.08.32-.36.48a24.2,24.2,0,0,1-10.37,2.34c-8.75,0-15-5.42-15-16.47C44.72,43.39,51,36,61,36ZM37.75,68.2c0,.4-.08.51-.51.51h-6.1c-.4,0-.51-.2-.51-.51V25.69c0-.4.2-.51.51-.51h6.14c.32,0,.48.12.48.48Z"/></g></g></g></svg>