<?xml version="1.0" encoding="utf-8"?>
<!-- Generator: Adobe Illustrator 22.0.0, SVG Export Plug-In . SVG Version: 6.00 Build 0)  -->
<svg version="1.1" id="Capa_1" xmlns="http://www.w3.org/2000/svg" xmlns:xlink="http://www.w3.org/1999/xlink" x="0px" y="0px"
	 viewBox="0 0 100 100" style="enable-background:new 0 0 100 100;" xml:space="preserve">
<style type="text/css">
	.st0{fill:#FF33CC;}
</style>
<path class="st0" d="M7,8h87v84.7H7V8z M3,96.6h95V4H3V96.6z M63.1,42.5c-0.7-0.3-1.5-0.4-2.3-0.4c-5.1,0-8.7,3.9-8.7,10.5
	c0,7.5,3.6,10.5,8.2,10.5c1,0,1.9-0.1,2.8-0.5V42.5z M61,36c0.7,0,1.4,0,2.1,0.1V25.6c0-0.2,0.1-0.4,0.3-0.4c0,0,0,0,0.1,0h6.4
	c0.3,0,0.4,0.1,0.4,0.3v37c0,1.3,0,2.7,0.2,4c0,0.3-0.1,0.3-0.4,0.5c-3.2,1.5-6.8,2.3-10.4,2.3c-8.8,0-15-5.4-15-16.5
	C44.7,43.4,51,36,61,36z M37.8,68.2c0,0.4-0.1,0.5-0.5,0.5h-6.1c-0.4,0-0.5-0.2-0.5-0.5V25.7c0-0.4,0.2-0.5,0.5-0.5h6.1
	c0.3,0,0.5,0.1,0.5,0.5V68.2z"/>
</svg>
