<?xml version="1.0" encoding="utf-8"?>
<!-- Generator: Adobe Illustrator 22.0.0, SVG Export Plug-In . SVG Version: 6.00 Build 0)  -->
<svg version="1.1" id="Capa_1" xmlns="http://www.w3.org/2000/svg" xmlns:xlink="http://www.w3.org/1999/xlink" x="0px" y="0px"
	 viewBox="0 0 100 100" style="enable-background:new 0 0 100 100;" xml:space="preserve">
<style type="text/css">
	.st0{fill:#F0DB4F;}
</style>
<rect x="2.5" y="2.5" class="st0" width="95" height="95"/>
<title>javaScript</title>
<path d="M27,81.4l7.3-4.4c1.4,2.5,2.7,4.6,5.7,4.6s4.8-1.2,4.8-5.6V45.6h8.9v30.5c0,9.3-5.4,13.5-13.3,13.5
	C33.2,89.6,29.1,85.9,27,81.4 M58.6,80.4l7.3-4.2c1.9,3.1,4.4,5.4,8.8,5.4c3.7,0,6.1-1.8,6.1-4.4c0-3.1-2.4-4.2-6.5-5.9l-2.2-1
	c-6.4-2.7-10.7-6.1-10.7-13.4c0-6.7,5.1-11.8,13.1-11.8c5.7,0,9.8,2,12.7,7.1l-7,4.5c-1.5-2.7-3.2-3.8-5.7-3.8S70,54.5,70,56.7
	c0,2.7,1.7,3.8,5.5,5.4l2.2,1c7.6,3.3,11.9,6.6,11.9,14c0,8-6.3,12.4-14.8,12.4C66.5,89.6,61.1,85.6,58.6,80.4"/>
</svg>
