<svg id="Capa_1" data-name="Capa 1" xmlns="http://www.w3.org/2000/svg" xmlns:xlink="http://www.w3.org/1999/xlink" viewBox="0 0 100 100"><defs><style>.cls-1{fill:none;}.cls-2{clip-path:url(#clip-path);}.cls-3{fill:#fff;}</style><clipPath id="clip-path"><rect class="cls-1" x="2" y="2" width="95" height="95"/></clipPath></defs><title>javaScript</title><g id="Ilustración_17" data-name="Ilustración 17"><g class="cls-2"><path class="cls-3" d="M4.62,4.62H94.38V94.38H4.62ZM2,97H97V2H2Z"/><g class="cls-2"><path class="cls-3" d="M27,81.39,34.25,77c1.4,2.49,2.68,4.59,5.74,4.59s4.78-1.15,4.78-5.61V45.61H53.7V76.1c0,9.25-5.42,13.46-13.33,13.46-7.14,0-11.29-3.7-13.39-8.16m31.57-1,7.27-4.21c1.91,3.12,4.4,5.42,8.8,5.42,3.7,0,6.06-1.85,6.06-4.4,0-3.06-2.42-4.15-6.5-5.93l-2.23-1C65.5,67.61,61.23,64.17,61.23,56.9c0-6.7,5.1-11.8,13.07-11.8,5.68,0,9.76,2,12.69,7.14l-7,4.46c-1.53-2.74-3.19-3.83-5.74-3.83S70,54.54,70,56.71c0,2.68,1.66,3.76,5.48,5.42l2.23,1c7.59,3.25,11.86,6.57,11.86,14,0,8-6.31,12.44-14.79,12.44-8.29,0-13.65-4-16.26-9.12"/></g></g></g></svg>