<svg id="Capa_1" data-name="Capa 1" xmlns="http://www.w3.org/2000/svg" xmlns:xlink="http://www.w3.org/1999/xlink" viewBox="0 0 100 100"><defs><style>.cls-1{fill:none;}.cls-2{clip-path:url(#clip-path);}.cls-3{fill:#fff;}</style><clipPath id="clip-path"><rect class="cls-1" x="2" y="4" width="95" height="91.52"/></clipPath></defs><title>jquery</title><g id="Ilustración_23" data-name="Ilustración 23"><g class="cls-2"><g class="cls-2"><path class="cls-3" d="M8,25.49C-.38,37.58.67,53.31,7.09,66.16c.15.31.31.61.47.91s.19.39.3.58l.19.33.33.6c.2.35.4.7.61,1.05l.35.58c.23.37.47.74.71,1.11l.3.47q.5.75,1,1.49l0,0,.17.23c.31.42.62.84.94,1.25l.35.45q.59.74,1.2,1.46t1.23,1.41l0,.05q1.26,1.37,2.61,2.66l.4.38q.67.63,1.37,1.24l.23.2,1.22,1,.51.4,1,.8.54.41,1.14.82.42.29.11.08c.36.25.74.49,1.11.73l.48.32c.57.36,1.15.72,1.74,1.06l.48.27,1.3.73.72.37.93.49.22.1.38.18q.89.43,1.79.83t1.73.72l.42.17q.91.35,1.83.67c.6.21,1.21.4,1.82.59l.44.13a17.64,17.64,0,0,0,1.87.53C82.89,101.82,94.71,70,94.71,70,84.79,82.88,67.17,86.29,50.48,82.5c-.63-.14-1.25-.34-1.86-.52s-1.51-.47-2.26-.72l-.25-.09-1.58-.59-.44-.17q-.86-.34-1.71-.71L42,79.54l-1.86-.87-1.11-.57-.74-.39Q37.65,77.35,37,77l-.45-.25q-.88-.52-1.74-1.07l-.47-.31-1.24-.82-.4-.28-1.17-.85L31,73l-1.53-1.2q-.66-.54-1.31-1.11L28,70.56q-.7-.62-1.38-1.26l-.39-.37q-.5-.48-1-1l-.39-.39q-.62-.64-1.22-1.29l-.06-.06q-.63-.69-1.24-1.41L22,64.43q-.45-.54-.89-1.1l-.33-.41c-.35-.45-.69-.91-1-1.37C10.52,48.92,7.19,31.48,14.6,17.17"/><path class="cls-3" d="M34.14,15.31c-6.08,8.75-5.75,20.47-1,29.73a38.71,38.71,0,0,0,2.69,4.49A21.37,21.37,0,0,0,39,53.44c.44.48.9,1,1.37,1.42l.36.36c.45.44.92.88,1.39,1.3l.06,0h0c.53.46,1.07.91,1.63,1.35l.37.29c.56.43,1.12.84,1.7,1.24l0,0,.78.51.37.24c.41.27.83.53,1.26.77l.18.1,1.12.62.4.21.78.4.12.05c.54.26,1.08.52,1.63.76l.36.15c.44.19.89.37,1.34.54l.57.21,1.23.43.56.18a13.62,13.62,0,0,0,1.77.51C89.75,70.39,97,46.2,97,46.2c-6.54,9.41-19.19,13.9-32.7,10.4q-1.17-.31-2.31-.69-.91-.29-1.81-.64l-1.34-.54-.36-.15q-.83-.36-1.64-.76L56,53.41l-.47-.24-1-.59-.25-.14q-.64-.37-1.26-.77l-.38-.25-.82-.54q-.86-.6-1.7-1.24l-.38-.3A37.87,37.87,0,0,1,36.9,31.05c-2.34-7.5-1.83-15.92,2.21-22.76"/><path class="cls-3" d="M56.1,7.7a18.31,18.31,0,0,0-1.45,17.66A24.87,24.87,0,0,0,68.93,38.7l.78.27.34.11a9.76,9.76,0,0,0,1.12.32c17.34,3.35,22-8.9,23.3-10.7-4.12,5.93-11,7.36-19.54,5.29q-1-.27-2.06-.63a24.87,24.87,0,0,1-6.72-3.63C58.55,24,53.82,13,58.78,4"/></g></g></g></svg>