<?xml version="1.0" encoding="utf-8"?>
<!-- Generator: Adobe Illustrator 22.0.0, SVG Export Plug-In . SVG Version: 6.00 Build 0)  -->
<svg version="1.1" id="Capa_1" xmlns="http://www.w3.org/2000/svg" xmlns:xlink="http://www.w3.org/1999/xlink" x="0px" y="0px"
	 viewBox="0 0 100 100" style="enable-background:new 0 0 100 100;" xml:space="preserve">
<style type="text/css">
	.st0{fill:#1664AB;}
</style>
<title>jquery</title>
<g>
	<path class="st0" d="M8,25.5c-8.4,12.1-7.3,27.8-0.9,40.7c0.2,0.3,0.3,0.6,0.5,0.9s0.2,0.4,0.3,0.6L8.1,68l0.3,0.6
		c0.2,0.3,0.4,0.7,0.6,1.1l0.4,0.6c0.2,0.4,0.5,0.7,0.7,1.1l0.3,0.5c0.3,0.5,0.7,1,1,1.5l0,0l0.2,0.2c0.3,0.4,0.6,0.8,0.9,1.3
		l0.4,0.4c0.4,0.5,0.8,1,1.2,1.5s0.8,1,1.2,1.4v0.1c0.8,0.9,1.7,1.8,2.6,2.7l0.4,0.4c0.4,0.4,0.9,0.8,1.4,1.2l0.2,0.2l1.2,1l0.5,0.4
		l1,0.8l0.5,0.4l1.1,0.8l0.4,0.3l0.1,0.1c0.4,0.3,0.7,0.5,1.1,0.7l0.5,0.3c0.6,0.4,1.1,0.7,1.7,1.1l0.5,0.3l1.3,0.7l0.7,0.4l0.9,0.5
		l0.2,0.1l0.4,0.2c0.6,0.3,1.2,0.6,1.8,0.8c0.6,0.3,1.2,0.5,1.7,0.7l0.4,0.2c0.6,0.2,1.2,0.5,1.8,0.7c0.6,0.2,1.2,0.4,1.8,0.6
		l0.4,0.1c0.6,0.2,1.2,0.4,1.9,0.5C82.9,101.8,94.7,70,94.7,70c-9.9,12.9-27.5,16.3-44.2,12.5c-0.6-0.1-1.3-0.3-1.9-0.5
		s-1.5-0.5-2.3-0.7l-0.3-0.1l-1.6-0.6l-0.4-0.2c-0.6-0.2-1.1-0.5-1.7-0.7L42,79.5l-1.9-0.9L39,78.1l-0.7-0.4
		c-0.4-0.2-0.9-0.5-1.3-0.7l-0.5-0.3c-0.6-0.3-1.2-0.7-1.7-1.1l-0.5-0.3l-1.2-0.8l-0.4-0.3l-1.2-0.8L31,73l-1.5-1.2
		c-0.4-0.4-0.9-0.7-1.3-1.1L28,70.6c-0.5-0.4-0.9-0.8-1.4-1.3l-0.4-0.4c-0.3-0.3-0.7-0.7-1-1l-0.4-0.4c-0.4-0.4-0.8-0.9-1.2-1.3
		l-0.1-0.1c-0.4-0.5-0.8-0.9-1.2-1.4L22,64.4c-0.3-0.4-0.6-0.7-0.9-1.1l-0.3-0.4c-0.4-0.5-0.7-0.9-1-1.4
		c-9.3-12.6-12.6-30.1-5.2-44.4"/>
	<path class="st0" d="M34.1,15.3c-6.1,8.8-5.8,20.5-1,29.7c0.8,1.6,1.7,3.1,2.7,4.5c0.9,1.4,2,2.7,3.2,3.9c0.4,0.5,0.9,1,1.4,1.4
		l0.4,0.4c0.5,0.4,0.9,0.9,1.4,1.3h0.1l0,0c0.5,0.5,1.1,0.9,1.6,1.3l0.4,0.3c0.6,0.4,1.1,0.8,1.7,1.2l0,0l0.8,0.5l0.4,0.2
		c0.4,0.3,0.8,0.5,1.3,0.8l0.2,0.1l1.1,0.6l0.4,0.2l0.8,0.4l0.1,0c0.5,0.3,1.1,0.5,1.6,0.8l0.4,0.2c0.4,0.2,0.9,0.4,1.3,0.5l0.6,0.2
		l1.2,0.4l0.6,0.2c0.6,0.2,1.2,0.4,1.8,0.5C89.8,70.4,97,46.2,97,46.2c-6.5,9.4-19.2,13.9-32.7,10.4c-0.8-0.2-1.5-0.4-2.3-0.7
		c-0.6-0.2-1.2-0.4-1.8-0.6l-1.3-0.5l-0.4-0.2c-0.6-0.2-1.1-0.5-1.6-0.8L56,53.4l-0.5-0.2l-1-0.6l-0.3-0.1c-0.4-0.2-0.8-0.5-1.3-0.8
		l-0.4-0.3l-0.8-0.5c-0.6-0.4-1.1-0.8-1.7-1.2l-0.4-0.3c-6-4.7-10.5-11-12.8-18.3c-2.3-7.5-1.8-15.9,2.2-22.8"/>
	<path class="st0" d="M56.1,7.7c-3.5,5.2-4,11.9-1.5,17.7c2.7,6.2,7.9,11,14.3,13.3l0.8,0.3l0.3,0.1c0.4,0.1,0.7,0.2,1.1,0.3
		c17.3,3.3,22-8.9,23.3-10.7c-4.1,5.9-11,7.4-19.5,5.3c-0.7-0.2-1.4-0.4-2.1-0.6c-2.4-0.9-4.7-2.1-6.7-3.6C58.5,24,53.8,13,58.8,4"
		/>
</g>
</svg>
