<svg id="Capa_1" data-name="Capa 1" xmlns="http://www.w3.org/2000/svg" xmlns:xlink="http://www.w3.org/1999/xlink" viewBox="0 0 120 100"><defs><style>.cls-1,.cls-7{fill:none;}.cls-2{clip-path:url(#clip-path);}.cls-3{clip-path:url(#clip-path-2);}.cls-4{fill:#fff;}.cls-5{clip-path:url(#clip-path-3);}.cls-6{fill:#b3b2b2;}.cls-7{stroke:#fff;stroke-miterlimit:10;stroke-width:0.04px;}.cls-8{clip-path:url(#clip-path-4);}</style><clipPath id="clip-path"><rect class="cls-1" x="2" y="22" width="115" height="57.15"/></clipPath><clipPath id="clip-path-2"><rect class="cls-1" x="2" y="22" width="115" height="57.15"/></clipPath><clipPath id="clip-path-3"><rect class="cls-1" x="65.09" y="26.6" width="17.82" height="18.82"/></clipPath><clipPath id="clip-path-4"><rect class="cls-1" x="94.64" y="26.6" width="16.69" height="18.82"/></clipPath></defs><title>mean</title><g id="Ilustración_25" data-name="Ilustración 25"><g class="cls-2"><g class="cls-3"><path class="cls-4" d="M33.36,56.94a6.36,6.36,0,0,0-1.29.37,1.8,1.8,0,0,0-.63.46,1.86,1.86,0,0,0-.34.83A9.55,9.55,0,0,0,31,60.32V74.85a10.75,10.75,0,0,0,.09,1.65,2,2,0,0,0,.3.82,1.61,1.61,0,0,0,.63.5,6.46,6.46,0,0,0,1.35.4v.82H24.92v-.82a4.76,4.76,0,0,0,1.6-.54,1.52,1.52,0,0,0,.61-.89,8.24,8.24,0,0,0,.16-2V68.42q0-2.54.09-5.13t.21-3.55h-.34l-8,16.65H16.9L9.45,59.46H9.11q.1,1,.19,3.71t.09,5.53v6.15a10.71,10.71,0,0,0,.09,1.65,2,2,0,0,0,.3.82,1.59,1.59,0,0,0,.63.5,6.44,6.44,0,0,0,1.35.4v.82H4.37v-.82a4.62,4.62,0,0,0,1.68-.6,1.55,1.55,0,0,0,.56-.93,9.45,9.45,0,0,0,.13-1.85V60.32a9.91,9.91,0,0,0-.1-1.69,1.88,1.88,0,0,0-.33-.82,1.62,1.62,0,0,0-.62-.47,7.77,7.77,0,0,0-1.32-.39v-.82H11.6L18.7,72.47l7.81-16.35h6.84Z"/><path class="cls-4" d="M57.28,56.12v5.07h-2a12.53,12.53,0,0,0-.63-1.44,6.08,6.08,0,0,0-.67-1,3,3,0,0,0-.76-.67,2.68,2.68,0,0,0-1-.35,8.54,8.54,0,0,0-1.36-.09h-6.4v8.8h4.33a3.74,3.74,0,0,0,1.4-.21,1.86,1.86,0,0,0,.84-.71,5.86,5.86,0,0,0,.64-1.58h1.9v6.45h-1.9a5.44,5.44,0,0,0-.63-1.52,2,2,0,0,0-.82-.73,3.57,3.57,0,0,0-1.43-.22H44.51v9.7h6.3a7.37,7.37,0,0,0,1.61-.14,2.71,2.71,0,0,0,1.06-.49,3.37,3.37,0,0,0,.79-.9,7,7,0,0,0,.58-1.15q.23-.6.64-1.74h2l-.38,5.9H38.35v-.82a4.62,4.62,0,0,0,1.68-.6,1.55,1.55,0,0,0,.56-.93,9.45,9.45,0,0,0,.13-1.85V60.32a10,10,0,0,0-.1-1.69,1.89,1.89,0,0,0-.33-.82,1.63,1.63,0,0,0-.62-.47,7.59,7.59,0,0,0-1.32-.39v-.82Z"/><path class="cls-4" d="M77,79.05v-.82a7.5,7.5,0,0,0,1.51-.37,1.56,1.56,0,0,0,.74-.56,1.7,1.7,0,0,0,.24-1,5.25,5.25,0,0,0-.16-1.24,13.77,13.77,0,0,0-.47-1.49l-.75-2.17H68.68L68,73.09A14.45,14.45,0,0,0,67.3,75a4.73,4.73,0,0,0-.16,1.16,1.74,1.74,0,0,0,.62,1.48,3.91,3.91,0,0,0,1.89.62v.82H61v-.82a3.16,3.16,0,0,0,2-1.09,10.73,10.73,0,0,0,1.63-2.69l8.44-18.6h3.2l6.88,18.74a16.26,16.26,0,0,0,.86,2,3.19,3.19,0,0,0,.9,1.08,3.66,3.66,0,0,0,1.44.57v.82ZM69.23,70h8.46L73.84,59.14Z"/><path class="cls-4" d="M106.39,70q.73,1,1.23,1.76t1,1.7h.26q-.1-1-.18-4.08t-.08-5.5V60.32a12.84,12.84,0,0,0-.08-1.7,1.86,1.86,0,0,0-.29-.82,1.53,1.53,0,0,0-.59-.46,7.39,7.39,0,0,0-1.31-.39v-.82h7.29v.82a7.32,7.32,0,0,0-1.29.37,1.71,1.71,0,0,0-.61.44,1.85,1.85,0,0,0-.35.81,9,9,0,0,0-.12,1.77V79.15h-2.53L97.49,63.46Q96.43,62,96,61.32T95.16,60h-.34q.14,1.3.2,4.68t.06,6.75v3.43a10.58,10.58,0,0,0,.09,1.65,2,2,0,0,0,.3.82,1.57,1.57,0,0,0,.63.5,6.46,6.46,0,0,0,1.35.4v.82H90.06v-.82a4.6,4.6,0,0,0,1.68-.6,1.55,1.55,0,0,0,.56-.93,9.47,9.47,0,0,0,.13-1.85V60.32a10.05,10.05,0,0,0-.1-1.69A1.89,1.89,0,0,0,92,57.8a1.63,1.63,0,0,0-.62-.47,7.78,7.78,0,0,0-1.32-.39v-.82h6.34Z"/><path class="cls-4" d="M16,22.63A13.39,13.39,0,1,1,2.63,36,13.4,13.4,0,0,1,16,22.63M16,22A14,14,0,1,0,30,36,14,14,0,0,0,16,22"/><path class="cls-4" d="M45,22.63A13.39,13.39,0,1,1,31.62,36,13.4,13.4,0,0,1,45,22.63M45,22A14,14,0,1,0,59,36,14,14,0,0,0,45,22"/><path class="cls-4" d="M74,22.63A13.39,13.39,0,1,1,60.61,36,13.4,13.4,0,0,1,74,22.63M74,22A14,14,0,1,0,88,36,14,14,0,0,0,74,22"/><path class="cls-4" d="M103,22.63A13.39,13.39,0,1,1,89.6,36,13.4,13.4,0,0,1,103,22.63m0-.63a14,14,0,1,0,14,14,14,14,0,0,0-14-14"/><path class="cls-4" d="M17.37,42.37h0l0,0h0"/><path class="cls-4" d="M16.71,42.9c-.49-.23-.63-1.28-.65-2.27a10.8,10.8,0,0,1-.37,2.42l-.05,0a6.54,6.54,0,0,1,.31,2.16l.5.17a9.35,9.35,0,0,1,0-2,1.2,1.2,0,0,1,.26-.51l0,0"/><path class="cls-4" d="M20,34.08c-1-4.33-3.3-5.75-3.55-6.3a6.13,6.13,0,0,1-.55-1.07v0a29,29,0,0,1,.17,3.42c0,2.33,0,5,.05,5.56a46.35,46.35,0,0,1-.1,4.9c0,1,.17,2,.65,2.27l0,0a6.45,6.45,0,0,0,.6-.5l0,0A8.89,8.89,0,0,0,20,34.08"/><path class="cls-4" d="M15.74,27.78c0,.51.05,1.27.07,2.39s0,2.63,0,3.73c0,.93,0,1.6,0,1.84a45.61,45.61,0,0,1-.1,4.87,17.38,17.38,0,0,1-.24,1.95,10.27,10.27,0,0,1-1.8-2,8.91,8.91,0,0,1-1.16-2.26,8,8,0,0,1-.41-3,11.51,11.51,0,0,1,.58-3.14A10.26,10.26,0,0,1,13.8,30a8.72,8.72,0,0,1,1.9-2.13h0v0h0m.17-1.11a1.13,1.13,0,0,1-.4.92,10.34,10.34,0,0,0-3.68,7.76A9.37,9.37,0,0,0,15.63,43l.05,0a10.8,10.8,0,0,0,.37-2.43,46.35,46.35,0,0,0,.1-4.9c0-.51,0-3.23-.05-5.56a29.11,29.11,0,0,0-.17-3.42l0-.08"/><path class="cls-4" d="M51.59,27.94v3.57H50.2a8.8,8.8,0,0,0-.44-1,4.29,4.29,0,0,0-.47-.73,2.14,2.14,0,0,0-.53-.47,1.9,1.9,0,0,0-.69-.24,6,6,0,0,0-1-.06H42.6v6.2h3a2.62,2.62,0,0,0,1-.15,1.3,1.3,0,0,0,.59-.5,4.12,4.12,0,0,0,.45-1.11H49V38H47.68a3.86,3.86,0,0,0-.44-1.07,1.42,1.42,0,0,0-.58-.51,2.54,2.54,0,0,0-1-.15h-3V43H47a5.26,5.26,0,0,0,1.13-.1,1.9,1.9,0,0,0,.75-.34,2.37,2.37,0,0,0,.56-.63,4.86,4.86,0,0,0,.41-.81q.16-.42.45-1.22h1.41l-.27,4.15H38.27V43.5a3.23,3.23,0,0,0,1.18-.42,1.09,1.09,0,0,0,.39-.66,6.76,6.76,0,0,0,.09-1.3V30.9a7,7,0,0,0-.07-1.19,1.34,1.34,0,0,0-.23-.58,1.18,1.18,0,0,0-.44-.33,5.47,5.47,0,0,0-.93-.28v-.58Z"/></g><g class="cls-5"><path class="cls-4" d="M74,36.17h0v1.64h0V36.17h0"/><polygon class="cls-4" points="73.98 32.35 73.98 28.44 73.97 28.44 73.97 32.36 73.98 32.35"/><path class="cls-6" d="M76.27,37.81l1.15,2.73Z"/><path class="cls-4" d="M74,26.62l-8.87,3.1L66.5,41.27,74,45.4l7.48-4.13,1.41-11.55ZM80.63,40.7,74,44.38,67.32,40.7,66.05,30.34,74,27.58l7.92,2.76Z"/><path class="cls-7" d="M74,26.62l-8.87,3.1L66.5,41.27,74,45.4l7.48-4.13,1.41-11.55ZM80.63,40.7,74,44.38,67.32,40.7,66.05,30.34,74,27.58l7.92,2.76Z"/><path class="cls-4" d="M74,28.44h0v3.91l1.61,3.82H74v1.64h2.3l1.15,2.73h2Z"/><path class="cls-4" d="M70.53,40.54l1.15-2.73H74V36.17h-1.6L74,32.36V28.44l-5.45,12.1Z"/></g><g class="cls-8"><path class="cls-4" d="M103,45.42a1.45,1.45,0,0,1-.72-.19L100,43.87c-.34-.19-.18-.26-.06-.3a4.63,4.63,0,0,0,1-.47.17.17,0,0,1,.17,0l1.77,1.05a.23.23,0,0,0,.21,0l6.9-4a.22.22,0,0,0,.11-.19V32a.22.22,0,0,0-.11-.19l-6.9-4a.22.22,0,0,0-.21,0l-6.89,4a.22.22,0,0,0-.11.19v8a.21.21,0,0,0,.11.18l1.89,1.09c1,.51,1.65-.09,1.65-.7V32.71a.2.2,0,0,1,.2-.2h.87a.2.2,0,0,1,.2.2v7.86a1.91,1.91,0,0,1-2,2.15,3,3,0,0,1-1.59-.43l-1.81-1A1.46,1.46,0,0,1,94.64,40V32a1.45,1.45,0,0,1,.72-1.26l6.9-4a1.51,1.51,0,0,1,1.45,0l6.9,4a1.46,1.46,0,0,1,.72,1.26v8a1.46,1.46,0,0,1-.72,1.26l-6.9,4a1.45,1.45,0,0,1-.73.19"/><path class="cls-4" d="M105.12,39.94c-3,0-3.65-1.39-3.65-2.55a.2.2,0,0,1,.2-.2h.89a.2.2,0,0,1,.2.17c.13.91.54,1.37,2.36,1.37,1.45,0,2.07-.33,2.07-1.1,0-.44-.18-.77-2.43-1-1.89-.19-3.05-.6-3.05-2.11s1.17-2.22,3.14-2.22c2.21,0,3.3.77,3.44,2.41a.2.2,0,0,1-.2.22h-.9a.2.2,0,0,1-.19-.16c-.22-1-.74-1.26-2.15-1.26-1.59,0-1.77.55-1.77,1s.22.65,2.36.93,3.13.68,3.13,2.17-1.25,2.36-3.44,2.36"/></g></g></g></svg>