<?xml version="1.0" encoding="utf-8"?>
<!-- Generator: Adobe Illustrator 22.0.0, SVG Export Plug-In . SVG Version: 6.00 Build 0)  -->
<svg version="1.1" id="Capa_1" xmlns="http://www.w3.org/2000/svg" xmlns:xlink="http://www.w3.org/1999/xlink" x="0px" y="0px"
	 viewBox="0 0 120 100" style="enable-background:new 0 0 120 100;" xml:space="preserve">
<style type="text/css">
	.st0{fill:#FFFFFF;}
	.st1{fill:#58AA50;}
	.st2{fill:#F2AF38;}
	.st3{fill:#DC1B16;}
	.st4{fill:#679E63;}
	.st5{fill:#A6A385;}
	.st6{fill:#499D4A;}
	.st7{fill:#B3B3B3;}
	.st8{fill:#A5120D;}
	.st9{fill:#B3B2B2;}
</style>
<g>
	<g>
		<g>
			<path class="st0" d="M33.4,56.9c-0.4,0.1-0.9,0.2-1.3,0.4c-0.2,0.1-0.5,0.3-0.6,0.5c-0.2,0.2-0.3,0.5-0.3,0.8
				C31,59.2,31,59.7,31,60.3v14.5c0,0.6,0,1.1,0.1,1.7c0,0.3,0.1,0.6,0.3,0.8c0.2,0.2,0.4,0.4,0.6,0.5c0.4,0.2,0.9,0.3,1.3,0.4V79
				h-8.4v-0.8c0.6-0.1,1.1-0.3,1.6-0.5c0.3-0.2,0.5-0.5,0.6-0.9c0.1-0.7,0.2-1.3,0.2-2v-6.4c0-1.7,0-3.4,0.1-5.1
				c0.1-1.7,0.1-2.9,0.2-3.5h-0.3l-8,16.7h-2.4L9.4,59.5H9.1c0.1,0.7,0.1,1.9,0.2,3.7c0.1,1.8,0.1,3.7,0.1,5.5v6.2
				c0,0.6,0,1.1,0.1,1.7c0,0.3,0.1,0.6,0.3,0.8c0.2,0.2,0.4,0.4,0.6,0.5c0.4,0.2,0.9,0.3,1.4,0.4V79H4.4v-0.8
				C5,78.1,5.5,77.9,6,77.6c0.3-0.2,0.5-0.6,0.6-0.9c0.1-0.6,0.1-1.2,0.1-1.8V60.3c0-0.6,0-1.1-0.1-1.7c0-0.3-0.2-0.6-0.3-0.8
				c-0.2-0.2-0.4-0.4-0.6-0.5C5.3,57.2,4.8,57,4.4,57v-0.8h7.2l7.1,16.3l7.8-16.3h6.8L33.4,56.9z"/>
			<path class="st0" d="M57.3,56.1v5.1h-2c-0.2-0.5-0.4-1-0.6-1.4c-0.2-0.4-0.4-0.7-0.7-1c-0.2-0.3-0.5-0.5-0.8-0.7
				c-0.3-0.2-0.6-0.3-1-0.3c-0.5-0.1-0.9-0.1-1.4-0.1h-6.4v8.8h4.3c0.5,0,1-0.1,1.4-0.2c0.3-0.1,0.6-0.4,0.8-0.7
				c0.3-0.5,0.5-1,0.6-1.6h1.9v6.4h-1.9c-0.1-0.5-0.3-1-0.6-1.5c-0.2-0.3-0.5-0.6-0.8-0.7c-0.5-0.2-0.9-0.2-1.4-0.2h-4.3v9.7h6.3
				c0.5,0,1.1,0,1.6-0.1c0.4-0.1,0.7-0.3,1.1-0.5c0.3-0.3,0.6-0.6,0.8-0.9c0.2-0.4,0.4-0.7,0.6-1.2c0.2-0.4,0.4-1,0.6-1.7h2
				l-0.4,5.9H38.3v-0.8c0.6-0.1,1.2-0.3,1.7-0.6c0.3-0.2,0.5-0.6,0.6-0.9c0.1-0.6,0.1-1.2,0.1-1.8V60.3c0-0.6,0-1.1-0.1-1.7
				c0-0.3-0.2-0.6-0.3-0.8c-0.2-0.2-0.4-0.4-0.6-0.5c-0.4-0.2-0.9-0.3-1.3-0.4v-0.8L57.3,56.1z"/>
			<path class="st0" d="M77,79.1v-0.8c0.5-0.1,1-0.2,1.5-0.4c0.3-0.1,0.6-0.3,0.7-0.6c0.2-0.3,0.3-0.6,0.2-1c0-0.4-0.1-0.8-0.2-1.2
				c-0.1-0.5-0.3-1-0.5-1.5l-0.8-2.2h-9.4L68,73.1c-0.3,0.6-0.5,1.3-0.7,1.9c-0.1,0.4-0.2,0.8-0.2,1.2c0,0.6,0.2,1.1,0.6,1.5
				c0.6,0.4,1.2,0.6,1.9,0.6v0.8H61v-0.8c0.8-0.1,1.5-0.5,2-1.1c0.7-0.8,1.2-1.7,1.6-2.7l8.4-18.6h3.2l6.9,18.7
				c0.2,0.7,0.5,1.4,0.9,2c0.2,0.4,0.5,0.8,0.9,1.1c0.4,0.3,0.9,0.5,1.4,0.6v0.8L77,79.1z M69.2,70h8.5l-3.9-10.9L69.2,70z"/>
			<path class="st0" d="M106.4,70c0.5,0.7,0.9,1.3,1.2,1.8c0.3,0.5,0.7,1.1,1,1.7h0.3c-0.1-0.7-0.1-2-0.2-4.1
				c-0.1-2.1-0.1-3.9-0.1-5.5v-3.6c0-0.6,0-1.1-0.1-1.7c0-0.3-0.1-0.6-0.3-0.8c-0.2-0.2-0.4-0.4-0.6-0.5c-0.4-0.2-0.9-0.3-1.3-0.4
				v-0.8h7.3V57c-0.4,0.1-0.9,0.2-1.3,0.4c-0.2,0.1-0.4,0.2-0.6,0.4c-0.2,0.2-0.3,0.5-0.3,0.8c-0.1,0.6-0.1,1.2-0.1,1.8v18.8h-2.5
				L97.5,63.5c-0.7-1-1.2-1.7-1.5-2.1c-0.3-0.5-0.6-0.9-0.8-1.3h-0.3c0.1,0.9,0.2,2.4,0.2,4.7c0,2.3,0.1,4.5,0.1,6.8v3.4
				c0,0.6,0,1.1,0.1,1.7c0,0.3,0.1,0.6,0.3,0.8c0.2,0.2,0.4,0.4,0.6,0.5c0.4,0.2,0.9,0.3,1.3,0.4v0.8h-7.4v-0.8
				c0.6-0.1,1.2-0.3,1.7-0.6c0.3-0.2,0.5-0.6,0.6-0.9c0.1-0.6,0.1-1.2,0.1-1.8V60.3c0-0.6,0-1.1-0.1-1.7c0-0.3-0.2-0.6-0.3-0.8
				c-0.2-0.2-0.4-0.4-0.6-0.5c-0.4-0.2-0.9-0.3-1.3-0.4v-0.8h6.3L106.4,70z"/>
			<path class="st1" d="M16,22.6c7.4,0,13.4,6,13.4,13.4s-6,13.4-13.4,13.4c-7.4,0-13.4-6-13.4-13.4c0,0,0,0,0,0
				C2.6,28.6,8.6,22.6,16,22.6 M16,22C8.3,22,2,28.3,2,36s6.3,14,14,14s14-6.3,14-14S23.7,22,16,22"/>
			<path class="st2" d="M45,22.6c7.4,0,13.4,6,13.4,13.4s-6,13.4-13.4,13.4s-13.4-6-13.4-13.4c0,0,0,0,0,0
				C31.6,28.6,37.6,22.6,45,22.6 M45,22c-7.7,0-14,6.3-14,14s6.3,14,14,14s14-6.3,14-14S52.7,22,45,22"/>
			<path class="st3" d="M74,22.6c7.4,0,13.4,6,13.4,13.4s-6,13.4-13.4,13.4c-7.4,0-13.4-6-13.4-13.4c0,0,0,0,0,0
				C60.6,28.6,66.6,22.6,74,22.6 M74,22c-7.7,0-14,6.3-14,14s6.3,14,14,14s14-6.3,14-14S81.7,22,74,22"/>
			<path class="st4" d="M103,22.6c7.4,0,13.4,6,13.4,13.4s-6,13.4-13.4,13.4c-7.4,0-13.4-6-13.4-13.4c0,0,0,0,0,0
				C89.6,28.6,95.6,22.6,103,22.6 M103,22c-7.7,0-14,6.3-14,14s6.3,14,14,14s14-6.3,14-14S110.7,22,103,22"/>
			<path class="st2" d="M51.6,27.9v3.6h-1.4c-0.1-0.3-0.3-0.7-0.4-1c-0.1-0.3-0.3-0.5-0.5-0.7c-0.1-0.2-0.3-0.3-0.5-0.5
				c-0.2-0.1-0.4-0.2-0.7-0.2c-0.3,0-0.7-0.1-1-0.1h-4.5v6.2h3c0.3,0,0.7,0,1-0.2c0.2-0.1,0.4-0.3,0.6-0.5c0.2-0.3,0.4-0.7,0.5-1.1
				H49V38h-1.3c-0.1-0.4-0.2-0.7-0.4-1.1c-0.1-0.2-0.3-0.4-0.6-0.5c-0.3-0.1-0.7-0.2-1-0.2h-3V43H47c0.4,0,0.8,0,1.1-0.1
				c0.3-0.1,0.5-0.2,0.8-0.3c0.2-0.2,0.4-0.4,0.6-0.6c0.2-0.3,0.3-0.5,0.4-0.8c0.1-0.3,0.3-0.7,0.5-1.2h1.4L51.4,44H38.3v-0.5
				c0.4-0.1,0.8-0.2,1.2-0.4c0.2-0.2,0.3-0.4,0.4-0.7c0.1-0.4,0.1-0.9,0.1-1.3V30.9c0-0.4,0-0.8-0.1-1.2c0-0.2-0.1-0.4-0.2-0.6
				c-0.1-0.1-0.3-0.3-0.4-0.3c-0.3-0.1-0.6-0.2-0.9-0.3v-0.6L51.6,27.9z"/>
			<g>
				<path class="st0" d="M16.4,45.3l-0.5-0.2c0,0,0.1-2.5-0.9-2.7c-0.6-0.7,0.1-29.9,2.3-0.1c0,0-0.8,0.4-0.9,1
					C16.3,44,16.4,45.3,16.4,45.3L16.4,45.3z"/>
				<path class="st5" d="M16.4,45.3l-0.5-0.2c0,0,0.1-2.5-0.9-2.7c-0.6-0.7,0.1-29.9,2.3-0.1c0,0-0.8,0.4-0.9,1
					C16.3,44,16.4,45.3,16.4,45.3L16.4,45.3z"/>
				<path class="st0" d="M16.7,42.9c0,0,4.4-2.9,3.3-8.8c-1-4.3-3.3-5.8-3.6-6.3c-0.3-0.4-0.5-1.1-0.5-1.1l0.2,12.1
					C16.1,38.8,15.7,42.4,16.7,42.9"/>
				<path class="st6" d="M16.7,42.9c0,0,4.4-2.9,3.3-8.8c-1-4.3-3.3-5.8-3.6-6.3c-0.3-0.4-0.5-1.1-0.5-1.1l0.2,12.1
					C16.1,38.8,15.7,42.4,16.7,42.9"/>
				<path class="st0" d="M15.7,43c0,0-4.1-2.8-3.8-7.7c0.2-4.9,3.1-7.3,3.7-7.8c0.4-0.4,0.4-0.5,0.4-0.9c0.3,0.5,0.2,8.2,0.2,9.1
					C16.2,39.2,15.9,42.4,15.7,43z"/>
				<path class="st1" d="M15.7,43c0,0-4.1-2.8-3.8-7.7c0.2-4.9,3.1-7.3,3.7-7.8c0.4-0.4,0.4-0.5,0.4-0.9c0.3,0.5,0.2,8.2,0.2,9.1
					C16.2,39.2,15.9,42.4,15.7,43z"/>
			</g>
		</g>
		<g>
			<polygon class="st7" points="65.2,29.7 74,26.6 82.9,29.7 81.5,41.2 74,45.3 66.5,41.2 			"/>
			<polygon class="st8" points="74,27.6 74,44.3 80.6,40.6 81.9,30.3 			"/>
			<polygon class="st3" points="74,27.6 74,44.3 67.4,40.6 66.1,30.3 			"/>
			<path class="st0" d="M74,28.4L74,28.4L74,28.4L74,28.4L74,28.4l-5.4,12.1h2l1.2-2.7c0.2,0,4.4,0,4.6,0l1.2,2.7h2L74,28.4z
				 M72.4,36.1l1.6-3.8l1.6,3.8C73.1,36.1,73.8,36.1,72.4,36.1z"/>
			<path class="st9" d="M74,28.4L74,28.4L74,28.4v3.9l1.6,3.8c-0.8,0-1.3,0-1.6,0v1.6c1.1,0,2.2,0,2.3,0l1.2,2.7h2L74,28.4z"/>
		</g>
	</g>
	<g>
		<path class="st4" d="M103,45.7c-0.3,0-0.5-0.1-0.7-0.2l-2.3-1.4c-0.3-0.2-0.2-0.3-0.1-0.3c0.5-0.2,0.6-0.2,1.1-0.5
			c0.1,0,0.1,0,0.2,0l1.8,1.1c0.1,0,0.2,0,0.2,0l7-4c0.1,0,0.1-0.1,0.1-0.2v-8.1c0-0.1,0-0.2-0.1-0.2l-7-4c-0.1,0-0.2,0-0.2,0l-7,4
			c-0.1,0-0.1,0.1-0.1,0.2v8.1c0,0.1,0,0.2,0.1,0.2l1.9,1.1c1,0.5,1.7-0.1,1.7-0.7v-8c0-0.1,0.1-0.2,0.2-0.2h0.9
			c0.1,0,0.2,0.1,0.2,0.2v8c0,1.4-0.8,2.2-2.1,2.2c-0.4,0-0.7,0-1.6-0.4l-1.8-1.1c-0.5-0.3-0.7-0.8-0.7-1.3v-8.1
			c0-0.5,0.3-1,0.7-1.3l7-4c0.4-0.3,1-0.3,1.5,0l7,4c0.5,0.3,0.7,0.7,0.7,1.3v8.1c0,0.5-0.3,1-0.7,1.3l-7,4
			C103.5,45.6,103.2,45.7,103,45.7z"/>
		<path class="st4" d="M104.4,40.1c-3.1,0-3.7-1.4-3.7-2.6c0-0.1,0.1-0.2,0.2-0.2h0.9c0.1,0,0.2,0.1,0.2,0.2
			c0.1,0.9,0.5,1.4,2.4,1.4c1.5,0,2.1-0.3,2.1-1.1c0-0.5-0.2-0.8-2.5-1c-1.9-0.2-3.1-0.6-3.1-2.1c0-1.4,1.2-2.3,3.2-2.3
			c2.2,0,3.3,0.8,3.5,2.4c0,0.1,0,0.1-0.1,0.2c0,0-0.1,0.1-0.1,0.1h-0.9c-0.1,0-0.2-0.1-0.2-0.2c-0.2-1-0.7-1.3-2.2-1.3
			c-1.6,0-1.8,0.6-1.8,1c0,0.5,0.2,0.7,2.4,0.9c2.1,0.3,3.2,0.7,3.2,2.2C107.9,39.2,106.6,40.1,104.4,40.1z"/>
	</g>
</g>
</svg>
