<?xml version="1.0" encoding="utf-8"?>
<!-- Generator: Adobe Illustrator 22.0.0, SVG Export Plug-In . SVG Version: 6.00 Build 0)  -->
<svg version="1.1" id="Capa_1" xmlns="http://www.w3.org/2000/svg" xmlns:xlink="http://www.w3.org/1999/xlink" x="0px" y="0px"
	 viewBox="0 0 100 100" style="enable-background:new 0 0 100 100;" xml:space="preserve">
<style type="text/css">
	.st0{fill:#0093F7;}
</style>
<title>photoshop</title>
<path class="st0" d="M7,7.7h87v84.7H7V7.7z M3,96.3h95V3.7H3V96.3z M67,41.7c-3.1,0-4.2,1.6-4.2,2.9s0.7,2.4,4.9,4.6
	c6.2,3,8.2,5.9,8.2,10.1c0,6.3-4.8,9.7-11.4,9.7c-2.8,0.1-5.6-0.5-8.1-1.7c-0.3-0.1-0.3-0.3-0.3-0.6v-5.8c0-0.4,0.2-0.5,0.5-0.3
	c2.4,1.5,5.2,2.3,8,2.3c3.1,0,4.4-1.3,4.4-3.1c0-1.4-0.9-2.7-4.9-4.8c-5.6-2.7-8-5.4-8-10c0-5.1,4-9.3,10.9-9.3
	c2.4-0.1,4.8,0.3,7.1,1.1c0.3,0.2,0.4,0.5,0.4,0.8v5.4c0,0.3-0.2,0.5-0.6,0.4C71.8,42.3,69.4,41.6,67,41.7 M33,46.4
	c0.9,0.1,1.6,0.1,3.2,0.1c4.6,0,9-1.6,9-7.9c0-5-3.1-7.6-8.4-7.6c-1.6,0-3.1,0.1-3.8,0.1L33,46.4z M26,25.4c0-0.3,0.5-0.5,0.9-0.5
	c2.5-0.1,6.3-0.2,10.2-0.2c11,0,15.2,6,15.2,13.7c0,10-7.3,14.4-16.2,14.4c-1.5,0-2-0.1-3.1-0.1v15.2c0,0.3-0.1,0.5-0.5,0.5h-6.1
	c-0.3,0-0.5-0.1-0.5-0.5L26,25.4L26,25.4z"/>
</svg>
