<svg id="Capa_1" data-name="Capa 1" xmlns="http://www.w3.org/2000/svg" xmlns:xlink="http://www.w3.org/1999/xlink" viewBox="0 0 100 100"><defs><style>.cls-1{fill:none;}.cls-2{clip-path:url(#clip-path);}.cls-3{fill:#fff;}</style><clipPath id="clip-path"><rect class="cls-1" x="3" y="3.69" width="95" height="92.63"/></clipPath></defs><title>photoshop</title><g id="Ilustración_14" data-name="Ilustración 14"><g class="cls-2"><g class="cls-2"><path class="cls-3" d="M7,7.65H94V92.35H7ZM3,96.31H98V3.69H3ZM67,41.69c-3.13,0-4.2,1.58-4.2,2.89s.71,2.41,4.91,4.59c6.21,3,8.15,5.9,8.15,10.13,0,6.33-4.83,9.74-11.36,9.74a17.22,17.22,0,0,1-8.11-1.7c-.28-.12-.32-.32-.32-.63V60.89c0-.4.2-.51.48-.32a14.69,14.69,0,0,0,8,2.34c3.13,0,4.43-1.31,4.43-3.09,0-1.42-.91-2.69-4.91-4.75-5.62-2.69-8-5.42-8-10,0-5.11,4-9.34,10.92-9.34a18.2,18.2,0,0,1,7.09,1.11.88.88,0,0,1,.4.79v5.42c0,.32-.2.51-.59.4A13.37,13.37,0,0,0,67,41.69M33,46.4c.91.08,1.62.08,3.21.08,4.63,0,9-1.62,9-7.92,0-5-3.13-7.56-8.39-7.56-1.58,0-3.09.08-3.8.12Zm-7-21c0-.28.55-.48.87-.48,2.53-.12,6.29-.2,10.21-.2,11,0,15.24,6,15.24,13.7,0,10.05-7.28,14.37-16.23,14.37-1.5,0-2-.08-3.09-.08v15.2c0,.32-.12.47-.47.47H26.43c-.32,0-.48-.12-.48-.47V25.38Z"/></g></g></g></svg>