<?xml version="1.0" encoding="utf-8"?>
<!-- Generator: Adobe Illustrator 22.0.0, SVG Export Plug-In . SVG Version: 6.00 Build 0)  -->
<svg version="1.1" id="Capa_1" xmlns="http://www.w3.org/2000/svg" xmlns:xlink="http://www.w3.org/1999/xlink" x="0px" y="0px"
	 viewBox="0 0 100 100" style="enable-background:new 0 0 100 100;" xml:space="preserve">
<style type="text/css">
	.st0{fill:#EA871B;}
</style>
<title>responsive</title>
<path class="st0" d="M86.8,35.9h2.4c1.3-0.2,2.6,0.8,2.7,2.1c0,0.2,0,0.4,0,0.6c0,5.1,0,10.2,0,15.3v0.8c0.3,0,0.5,0.1,0.8,0.1
	c1.1,0,2.2,0,3.2,0c1-0.1,1.9,0.7,2,1.7c0,0.1,0,0.1,0,0.2c0,8.2,0,16.3,0,24.4c0.1,1-0.7,1.9-1.7,1.9c-0.1,0-0.3,0-0.4,0H64.4
	c-2,0-2.9-0.8-2.9-2.8c0-3,0-6.1,0-9.2h-6.7v11h5.4l0,1H29.5v-0.9h5.3V71h-1c-8.9,0-17.8,0-26.7,0c-1.5,0.1-2.9-0.6-3.6-1.9
	C3.2,68.5,3,67.7,3,67c0-15.7,0-31.3,0-47c0-2.5,1.5-4,4.2-4h75.6c2.1-0.2,3.9,1.3,4.1,3.4c0,0.2,0,0.4,0,0.6c0,4.9,0,9.8,0,14.7
	L86.8,35.9z M61.6,59.4v-1.1c0-6.5,0-13,0-19.5c0-1.9,0.9-2.8,2.8-2.8h18.5V19.5h-76v39.9H61.6z M90.3,41.7H63.2V78h21v-1
	c0-6.6,0-13.2,0-19.8c0-1.7,0.7-2.4,2.4-2.4h3.7L90.3,41.7z M84.8,80.1h12.5V57.9H84.8V80.1z"/>
</svg>
