<svg id="Capa_1" data-name="Capa 1" xmlns="http://www.w3.org/2000/svg" xmlns:xlink="http://www.w3.org/1999/xlink" viewBox="0 0 100 100"><defs><style>.cls-1{fill:none;}.cls-2{clip-path:url(#clip-path);}.cls-3{clip-path:url(#clip-path-2);}.cls-4{fill:#fff;}</style><clipPath id="clip-path"><rect class="cls-1" x="3" y="16" width="95" height="67.11"/></clipPath><clipPath id="clip-path-2"><rect class="cls-1" x="3" y="16" width="95" height="67.11"/></clipPath></defs><title>responsive</title><g id="Ilustración_22" data-name="Ilustración 22"><g class="cls-2"><g class="cls-3"><path class="cls-4" d="M86.84,35.89h2.44A2.45,2.45,0,0,1,92,38.61q0,7.66,0,15.32v.81c.28,0,.52.06.75.06,1.08,0,2.15,0,3.23,0a1.87,1.87,0,0,1,2,1.94Q98,69,98,81.17a1.82,1.82,0,0,1-2.07,1.93H64.45c-2,0-2.87-.84-2.88-2.85,0-3,0-6.07,0-9.16H54.87v11h5.44l.05,1H29.53v-.9h5.31V71h-1Q20.48,71,7.15,71a3.69,3.69,0,0,1-3.6-1.88A4.73,4.73,0,0,1,3,67q0-23.48,0-47C3,17.47,4.54,16,7.15,16h75.6a3.76,3.76,0,0,1,4.08,4.06c0,4.91,0,9.83,0,14.74ZM61.58,59.38V58.29q0-9.77,0-19.54c0-1.94.9-2.85,2.82-2.85H82.91V19.47h-76V59.38ZM90.26,41.71H63.15V78h21V77q0-9.89,0-19.78c0-1.71.7-2.4,2.42-2.39h3.74ZM84.79,80.07H97.31V57.92H84.79Z"/></g></g></g></svg>