<svg id="Capa_1" data-name="Capa 1" xmlns="http://www.w3.org/2000/svg" xmlns:xlink="http://www.w3.org/1999/xlink" viewBox="0 0 100 100"><defs><style>.cls-1{fill:none;}.cls-2{clip-path:url(#clip-path);}.cls-3{fill:#fff;}</style><clipPath id="clip-path"><rect class="cls-1" x="5" y="2.38" width="87" height="95.22"/></clipPath></defs><title>sqlserver</title><g id="layer1-2"><g class="cls-2"><g class="cls-2"><path class="cls-3" d="M59.93,46.83,40.85,53.05,24.27,60.38l-4.65,1.23Q17.85,63.28,15.86,65C14.4,66.29,13,67.45,12,68.28A29.6,29.6,0,0,0,8.19,72,16.64,16.64,0,0,0,5.4,76.76,7.89,7.89,0,0,0,6.53,83.9c2,2.89,5.87,5.82,10.42,7.82a67.75,67.75,0,0,0,9.16,3.07,121.66,121.66,0,0,0,19.54,2.78,22.75,22.75,0,0,0,2.53,0A34.65,34.65,0,0,0,50,94,89,89,0,0,0,56.8,76.14a83.07,83.07,0,0,0,1.72-12.4c.11-1.4.15-6.08.06-7.67a53.75,53.75,0,0,0-.73-6.77,1.72,1.72,0,0,1,0-.59,23,23,0,0,1,2.58-.78Zm-4.36,2.56a47,47,0,0,1,.75,7.23,3.63,3.63,0,0,1,0,1c-.11,0-2.44-1.37-4.09-2.4-1.44-.91-4.18-2.72-4.61-3.07-.14-.11-.12-.11,1.06-.52,2-.69,6.76-2.21,6.91-2.21m-9.72,3.19a4.75,4.75,0,0,1,1.25.68,90.49,90.49,0,0,0,8.73,4.86c.54.23.6.14-.64,1a63.86,63.86,0,0,1-9.91,5.32c-.7.31-1.29.56-1.32.56a3.91,3.91,0,0,1,.17-.79,41.55,41.55,0,0,0,1.54-10.13c0-1.44,0-1.45.14-1.48h0m-2,.76a32.68,32.68,0,0,1-.08,4.19,36.52,36.52,0,0,1-1.32,6.27c-.16.53-.31,1-.33,1a25.74,25.74,0,0,1-2.68-2.62,19.51,19.51,0,0,1-2.65-3.86,12,12,0,0,1-.8-2c.22-.16,7.82-3.1,7.87-3m-9.42,3.71h0a3.52,3.52,0,0,1,.22.52,19.53,19.53,0,0,0,2.39,4.29,24.79,24.79,0,0,0,3.32,3.59l.71.61c.09.08.12.07-2.23,1-2.73,1-5.69,2.07-9.1,3.17L27.34,71c-.13,0-.09,0,.29-.62A80,80,0,0,0,33.32,58.9c.25-.63.49-1.27.53-1.41a.47.47,0,0,1,.32-.37.59.59,0,0,1,.26-.07m-2.89,1.19a32.18,32.18,0,0,1-1.41,3c-1.39,2.72-2.93,5.4-5,8.67L24.43,71c-.07.11-.1.07-.33-.37A13.11,13.11,0,0,1,23,67.33a13.45,13.45,0,0,1,.08-4.3c.19-.9.18-.88.6-1.1,1.83-.94,7.8-3.74,7.86-3.68m24.87,1v.61a79.76,79.76,0,0,1-.84,10.83c-.09.56-.16,1-.17,1l-.9-.27a37.13,37.13,0,0,1-6.63-2.84,30.21,30.21,0,0,1-3.37-2.07l1.33-.7a84.19,84.19,0,0,0,7.89-4.62c.88-.59,2.2-1.54,2.49-1.8ZM20.65,63.52c.06,0,0,.11,0,.64-.06.37-.14,1.07-.16,1.55a10.56,10.56,0,0,0,1.27,5.79c.29.59.52,1.09.51,1.1s-9.64,2.88-12.64,3.7l-1.73.48c-.1,0-.11,0-.08-.24.33-2.12,1.94-4.89,4.2-7.22a18.83,18.83,0,0,1,4.74-3.63c1.46-.84,3.74-2.09,3.91-2.15h0m22.49,4a7.78,7.78,0,0,1,.78.42,43.09,43.09,0,0,0,11,4.29l.33.08-.46.25c-1.91,1.06-8.22,3.68-14.66,6.1l-2,.77a1.24,1.24,0,0,1-.33.11s.27-.53.59-1.13A71.37,71.37,0,0,0,43,68.09c.09-.29.18-.54.19-.55m-2.29.75a5.53,5.53,0,0,1-.25.67A93.37,93.37,0,0,1,35.6,79c-.53.95-1,1.72-1,1.72l-1-.57a29.51,29.51,0,0,1-7.54-6.42l-.25-.32,1.32-.36a93.69,93.69,0,0,0,12.66-4.37c.56-.24,1-.43,1-.42m14.24,5h0c0,.32-.73,3.29-1.33,5.43-.51,1.8-.93,3.21-1.73,5.7-.35,1.1-.65,2-.67,2l-.19,0a59.53,59.53,0,0,1-11.71-3.3c-1-.4-2.46-1-2.53-1.12a18.35,18.35,0,0,1,1.93-.91c6.56-2.86,13.36-6.13,15.69-7.52a1.71,1.71,0,0,1,.53-.26M22.22,74.4s-1.8,2.66-4.37,6.25l-2.33,3.27c-.39.55-1,1.42-1.31,1.93l-.61.94L13,86.24a25.67,25.67,0,0,1-2.68-2.74,11.82,11.82,0,0,1-2.41-4.66c-.15-.69-.16-1,0-1.08s4.06-1,7.67-1.81l5.16-1.21,1.53-.35m1.85.71.46.52a26.83,26.83,0,0,0,6.77,5.53,3.7,3.7,0,0,1,.77.51c-.11.07-8.91,3.2-13,4.62l-4.19,1.45-.29-.19-.27-.19.42-.6c1.35-2,3-4.11,6.76-8.58Zm11.51,8.22s.65.22,1.43.51a45.76,45.76,0,0,0,5.35,1.66,60.73,60.73,0,0,0,8.09,1.4c.32,0,.49.06.43.1s-2.22.77-3.78,1.26c-2.48.78-10,3-16.22,4.79l-2.17.62c-.14,0-.62-.1-.62-.16a11.6,11.6,0,0,1,.77-1,87.41,87.41,0,0,0,5.86-7.87l.87-1.33M33,83.4s-1,1.66-2.8,4.49l-1.92,3c-.29.47-.73,1.18-1,1.58l-.42.74-.21-.06c-.52-.14-4.16-1.43-5.13-1.81a33.49,33.49,0,0,1-3.35-1.54,14,14,0,0,1-2.49-1.57l4.38-1.2c6.32-1.72,9.81-2.71,12.11-3.43.43-.13.79-.23.79-.23M51,87.61h0c.06.15-2.28,6.63-3.13,8.68-.19.46-.26.57-.36.57s-3.63-.48-5.69-.8c-3.59-.55-9.61-1.6-11.13-1.94L30.32,94l2.15-.49c4.62-1,6.83-1.6,9.08-2.29A65.64,65.64,0,0,0,50,88a8.46,8.46,0,0,1,.93-.39"/><path class="cls-3" d="M40.27,2.38c-.32,0-5.44,1.81-8.73,3.14a54.26,54.26,0,0,0-10.05,5,7.34,7.34,0,0,0-1.94,1.95,1.41,1.41,0,0,0-.08.49l1.94,1.83L26,16.29l10.94,2L49.45,20.4l.13-1.07-.11,0L47.82,19l-.33-.59c-1.7-3-3.58-6.71-4.67-9.23a48.66,48.66,0,0,1-2.11-5.81c-.27-1-.3-1-.44-1M40,3.12h0s.07.41.13.89a30.33,30.33,0,0,0,1.4,6.07c.53,1.58.54,1.49-.09,1.32C40,11,33.42,9.86,28.65,9.2L27.23,9c-.06-.06,3.44-1.89,5-2.62,2-.93,7.41-3.18,7.8-3.25M26.13,9.57l.56.19a86.15,86.15,0,0,0,15,2.86c.48,0,.88.08.89.09a9.27,9.27,0,0,1-.9.48c-2,1-4.3,2.27-5.86,3.25a5.48,5.48,0,0,1-.93.51l-.67-.11-.58-.09-1.45-1.41c-2.54-2.46-4.53-4.36-5.29-5.08Zm-.57.45,2,2.53c1.12,1.39,2.23,2.77,2.48,3.07a4.48,4.48,0,0,1,.43.56c-.06,0-2.94-.52-4.46-.87s-2.22-.53-3.19-.84l-.79-.25V14c0-1,1.24-2.41,3.32-3.87Zm17.26,3.45c.06,0,.12.13.3.52.49,1.08,2,4,2.39,4.56.12.19.31.2-1.72-.13-4.88-.79-6.46-1.05-6.46-1.08a1.43,1.43,0,0,1,.33-.21,28.3,28.3,0,0,0,4.4-3l.69-.58a.1.1,0,0,1,.07,0"/><path class="cls-3" d="M19.63,12.32a1.43,1.43,0,0,0,0,1.25A5.92,5.92,0,0,0,21,15.17s6.41,6.25,7.19,7.16A20,20,0,0,1,33.39,36a22.28,22.28,0,0,1-2.27,10.37c-3,6.54-9.32,13.76-19.08,21.78l1.43-.47a45.18,45.18,0,0,1,5.12-3A183.54,183.54,0,0,1,42.39,54c13.49-5.07,35.67-11,48.29-12.95l1.32-.2-.2-.32a43,43,0,0,0-2.89-4.07,34.62,34.62,0,0,0-10.23-8.52c-5.64-3.16-13-5.61-22.22-7.45-1.75-.35-5.58-1-8.7-1.49-6.6-1-10.86-1.72-15.57-2.54-1.69-.29-4.2-.72-5.88-1.08a37.37,37.37,0,0,1-3.81-1c-1.06-.42-2.56-.82-2.88-2m3.71,3.6a4.56,4.56,0,0,1,.54.17c.54.18,1.25.4,2.08.63l1.9.51,1.59.42c.1.11,1.55,4.75,2,6.54.19.68.33,1.25.32,1.26a3.13,3.13,0,0,1-.36-.55A30.09,30.09,0,0,0,24,16.49c-.38-.3-.7-.56-.7-.57m7.1,2a5.18,5.18,0,0,1,.78.13c2.46.54,6.84,1.39,9.66,1.86a4.34,4.34,0,0,1,.86.19,1.38,1.38,0,0,1-.39.24c-.47.24-2.39,1.38-3,1.81a28.21,28.21,0,0,0-4.08,3.26c-.42.42-.77.76-.78.76a4,4,0,0,1-.16-.54,48,48,0,0,0-2.58-7.06c-.16-.34-.28-.63-.28-.66h0Zm12.49,2.37a5.26,5.26,0,0,1,.51,1.6,24,24,0,0,1,.69,6.6c0,.6-.06,1.16-.08,1.25l0,.15-.74-.24c-1.54-.49-4-1.23-6.2-1.83-1.22-.34-2.22-.64-2.22-.67a33,33,0,0,1,2.55-2.55,64.37,64.37,0,0,1,5.54-4.31m1,.14s6,1,8.66,1.5c2,.38,4.91,1,5.08,1.07s-.22.2-1.18.63A62,62,0,0,0,47,28.73l-1.37.9s0-.41,0-.92a20.26,20.26,0,0,0-1.55-7.83,2.72,2.72,0,0,1-.18-.48m15.31,3a11,11,0,0,1-.32,1.9,36.34,36.34,0,0,1-3.63,8.33,9,9,0,0,1-.6,1,5.94,5.94,0,0,1-.87-.46,45.88,45.88,0,0,0-5.66-2.77c-.58-.24-1.08-.45-1.1-.48s4.54-3.15,7-4.63c2-1.18,5.12-2.94,5.18-2.88m1.1.17c.13,0,2.76.72,4.12,1.12a86.17,86.17,0,0,1,9.82,3.59l1.05.48-.74.17A107,107,0,0,0,58,34.1l-.82.31a3.61,3.61,0,0,1,.3-.73,29.64,29.64,0,0,0,2.79-9.6,1,1,0,0,1,.11-.48m-26.11,6s2,.43,3.13.73C39,30.79,42.48,32,42.49,32s-.38.35-.85.75c-1.89,1.58-3.7,3.23-5.88,5.33-.65.62-1.19,1.13-1.22,1.13s0-.09,0-.2a32.88,32.88,0,0,0-.2-8.7,5.06,5.06,0,0,1-.08-.76m42.1,0S75.39,31.17,74.8,32c-.87,1.25-2.13,2.88-5,6.49L66,43.28C65.44,44,65,44.6,64.95,44.6a6.33,6.33,0,0,1-.41-.58,30.1,30.1,0,0,0-5.83-6.45c-.43-.36-.91-.75-1.07-.87a1.7,1.7,0,0,1-.29-.25s2.45-1.09,4.31-1.85c3.25-1.32,7.7-2.91,11-3.93,1.75-.54,3.62-1.07,3.64-1m1.1.29a3.7,3.7,0,0,1,.82.4,48.71,48.71,0,0,1,9.64,7.23c.77.75,2.65,2.71,2.62,2.72l-1.44.11a142.17,142.17,0,0,0-21.3,3.54l-1,.22s.53-.56,1.23-1.24a36.55,36.55,0,0,0,8.75-11.64c.35-.71.65-1.32.66-1.36h0M45.34,33.22c.2,0,2.07.92,3.48,1.62s3.25,1.69,3.35,1.78-.68.37-1.53.8c-2.71,1.36-5,2.64-7.45,4.11-.69.42-1.27.77-1.29.77s0-.05.35-.76a30.56,30.56,0,0,0,2.93-7.94c.05-.25.12-.4.16-.39m-1.89.34a27.21,27.21,0,0,1-.75,2.78,36.06,36.06,0,0,1-2.55,5.85c-.23.41-.57,1-.77,1.32l-.36.58-.81-.78a10.59,10.59,0,0,0-2.68-2,4,4,0,0,1-.7-.41,58.66,58.66,0,0,1,4.36-4c1.36-1.15,4.22-3.44,4.25-3.4m11.46,4.71.7.46a56.18,56.18,0,0,1,5,3.67c.82.68,2.4,2.1,2.73,2.44l.17.18-1.17.33c-6.6,1.83-11.7,3.46-17.66,5.65-.66.24-1.23.44-1.27.44s-.16.08,1.32-1.29A63.64,63.64,0,0,0,54.41,39Zm-3,.75s-2,2.82-3.13,4.39c-1.41,1.88-3.93,5-5.66,7.07-.72.85-1.34,1.56-1.38,1.57s-.06-.2-.06-.53a12.08,12.08,0,0,0-1.22-5.19c-.33-.67-.38-.83-.32-.89.27-.25,4.47-2.64,7.12-4.06,1.82-1,4.61-2.39,4.65-2.36M33.69,43.48a6.25,6.25,0,0,1,.75.38,15.82,15.82,0,0,1,2.47,1.68,4.47,4.47,0,0,1-.84.68c-1.37,1-3.45,2.56-4.65,3.51s-1.31,1-1.17.82a25.91,25.91,0,0,0,1.93-3.33,27,27,0,0,0,1.2-3,2.67,2.67,0,0,1,.3-.73m4.85,3.81c.07,0,.16.11.55.7a10.45,10.45,0,0,1,1.61,4.2l0,.29-2,.76C35.23,54.61,32,56,29.78,57c-.62.28-1.7.8-2.41,1.16s-1.29.63-1.29.62.45-.35,1-.75A58.41,58.41,0,0,0,37.91,48c.3-.37.57-.68.61-.71h0m-2.24.55a31.46,31.46,0,0,1-2.7,3.06,48.09,48.09,0,0,1-9,7.23l-.87.55c-.09.05,0-.09,1.53-1.72.94-1,1.67-1.88,2.49-3a5,5,0,0,1,1.44-1.37c2.13-1.54,7-4.84,7.07-4.79"/></g></g></g></svg>