<?xml version="1.0" encoding="utf-8"?>
<!-- Generator: Adobe Illustrator 22.0.0, SVG Export Plug-In . SVG Version: 6.00 Build 0)  -->
<svg version="1.1" id="Capa_1" xmlns="http://www.w3.org/2000/svg" xmlns:xlink="http://www.w3.org/1999/xlink" x="0px" y="0px"
	 viewBox="0 0 100 100" style="enable-background:new 0 0 100 100;" xml:space="preserve">
<style type="text/css">
	.st0{fill:#FF0000;}
</style>
<title>sqlserver</title>
<g>
	<path class="st0" d="M59.9,46.8L40.8,53l-16.6,7.3l-4.6,1.2c-1.2,1.1-2.4,2.2-3.8,3.4c-1.5,1.3-2.9,2.4-3.9,3.3
		c-1.4,1.1-2.7,2.4-3.8,3.7c-1.2,1.4-2.1,3-2.8,4.8c-0.8,2.4-0.4,5.1,1.1,7.1c2,2.9,5.9,5.8,10.4,7.8c3,1.2,6,2.3,9.2,3.1
		c6.4,1.5,13,2.4,19.5,2.8c0.8,0,1.7,0,2.5,0c0.7-1.2,1.3-2.3,1.8-3.6c2.9-5.7,5.2-11.7,6.8-17.9c0.9-4.1,1.5-8.2,1.7-12.4
		c0.1-1.4,0.2-6.1,0.1-7.7c-0.1-2.3-0.3-4.5-0.7-6.8c0-0.2,0-0.4,0-0.6c0.8-0.3,1.7-0.6,2.6-0.8L59.9,46.8z M55.6,49.4
		c0.4,2.4,0.7,4.8,0.8,7.2c0,0.3,0,0.7,0,1c-0.1,0-2.4-1.4-4.1-2.4c-1.4-0.9-4.2-2.7-4.6-3.1c-0.1-0.1-0.1-0.1,1.1-0.5
		C50.7,50.9,55.4,49.4,55.6,49.4 M45.9,52.6c0.4,0.2,0.9,0.4,1.3,0.7c2.8,1.8,5.7,3.4,8.7,4.9c0.5,0.2,0.6,0.1-0.6,1
		c-3.1,2.1-6.5,3.8-9.9,5.3C44.6,64.8,44,65,44,65c0-0.3,0.1-0.5,0.2-0.8c0.9-3.3,1.4-6.7,1.5-10.1C45.7,52.7,45.7,52.7,45.9,52.6
		L45.9,52.6 M43.8,53.4c0.1,1.4,0,2.8-0.1,4.2c-0.3,2.1-0.7,4.2-1.3,6.3c-0.2,0.5-0.3,1-0.3,1c-1-0.8-1.9-1.7-2.7-2.6
		c-1-1.2-1.9-2.5-2.7-3.9c-0.3-0.6-0.6-1.3-0.8-2C36.2,56.2,43.8,53.3,43.8,53.4 M34.4,57.1L34.4,57.1c0.1,0.2,0.2,0.3,0.2,0.5
		c0.6,1.5,1.4,3,2.4,4.3c1,1.3,2.1,2.5,3.3,3.6l0.7,0.6c0.1,0.1,0.1,0.1-2.2,1c-2.7,1-5.7,2.1-9.1,3.2L27.3,71c-0.1,0-0.1,0,0.3-0.6
		c2.2-3.7,4.1-7.5,5.7-11.5c0.3-0.6,0.5-1.3,0.5-1.4c0-0.2,0.2-0.3,0.3-0.4C34.3,57.1,34.3,57.1,34.4,57.1 M31.5,58.2
		c-0.4,1-0.9,2-1.4,3c-1.4,2.7-2.9,5.4-5,8.7L24.4,71c-0.1,0.1-0.1,0.1-0.3-0.4c-0.5-1-0.9-2.2-1.1-3.3c-0.2-1.4-0.2-2.9,0.1-4.3
		c0.2-0.9,0.2-0.9,0.6-1.1C25.5,61,31.5,58.2,31.5,58.2 M56.4,59.3v0.6c0,3.6-0.3,7.2-0.8,10.8c-0.1,0.6-0.2,1-0.2,1l-0.9-0.3
		c-2.3-0.7-4.5-1.7-6.6-2.8c-1.2-0.6-2.3-1.3-3.4-2.1l1.3-0.7c2.7-1.4,5.3-2.9,7.9-4.6c0.9-0.6,2.2-1.5,2.5-1.8L56.4,59.3z
		 M20.6,63.5c0.1,0,0,0.1,0,0.6c-0.1,0.4-0.1,1.1-0.2,1.6c-0.1,2,0.3,4,1.3,5.8c0.3,0.6,0.5,1.1,0.5,1.1s-9.6,2.9-12.6,3.7l-1.7,0.5
		c-0.1,0-0.1,0-0.1-0.2c0.3-2.1,1.9-4.9,4.2-7.2c1.4-1.5,3-2.7,4.7-3.6C18.2,64.9,20.5,63.6,20.6,63.5L20.6,63.5 M43.2,67.5
		c0.3,0.1,0.5,0.3,0.8,0.4c3.5,1.9,7.2,3.4,11,4.3l0.3,0.1l-0.5,0.3c-1.9,1.1-8.2,3.7-14.7,6.1l-2,0.8c-0.1,0.1-0.2,0.1-0.3,0.1
		c0,0,0.3-0.5,0.6-1.1c1.8-3.3,3.3-6.8,4.6-10.3C43.1,67.8,43.2,67.5,43.2,67.5 M40.9,68.3c-0.1,0.2-0.2,0.5-0.3,0.7
		c-1.5,3.4-3.2,6.8-5,10c-0.5,0.9-1,1.7-1,1.7l-1-0.6c-2.9-1.7-5.4-3.9-7.5-6.4l-0.3-0.3l1.3-0.4c4.3-1.2,8.5-2.6,12.7-4.4
		c0.6-0.2,1-0.4,1-0.4 M55,73.3L55,73.3c0,0.3-0.7,3.3-1.3,5.4c-0.5,1.8-0.9,3.2-1.7,5.7c-0.3,1.1-0.7,2-0.7,2h-0.2
		c-4-0.7-7.9-1.8-11.7-3.3c-1-0.4-2.5-1-2.5-1.1c0.6-0.3,1.3-0.6,1.9-0.9c6.6-2.9,13.4-6.1,15.7-7.5C54.7,73.4,54.8,73.3,55,73.3
		 M22.2,74.4c0,0-1.8,2.7-4.4,6.3l-2.3,3.3c-0.4,0.6-1,1.4-1.3,1.9l-0.6,0.9L13,86.2c-1-0.8-1.9-1.8-2.7-2.7c-1.1-1.4-2-2.9-2.4-4.7
		c-0.2-0.7-0.2-1,0-1.1s4.1-1,7.7-1.8l5.2-1.2L22.2,74.4 M24.1,75.1l0.5,0.5c1.9,2.2,4.2,4.1,6.8,5.5c0.3,0.1,0.5,0.3,0.8,0.5
		c-0.1,0.1-8.9,3.2-13,4.6l-4.2,1.4l-0.3-0.2l-0.3-0.2l0.4-0.6c1.3-2,3-4.1,6.8-8.6L24.1,75.1z M35.6,83.3c0,0,0.7,0.2,1.4,0.5
		c1.7,0.7,3.5,1.2,5.3,1.7c2.7,0.6,5.4,1.1,8.1,1.4c0.3,0,0.5,0.1,0.4,0.1s-2.2,0.8-3.8,1.3c-2.5,0.8-10,3-16.2,4.8l-2.2,0.6
		c-0.1,0-0.6-0.1-0.6-0.2c0.2-0.3,0.5-0.7,0.8-1c2.1-2.5,4.1-5.1,5.9-7.9L35.6,83.3 M33,83.4c0,0-1,1.7-2.8,4.5l-1.9,3
		c-0.3,0.5-0.7,1.2-1,1.6l-0.4,0.7l-0.2-0.1c-0.5-0.1-4.2-1.4-5.1-1.8c-1.1-0.5-2.3-1-3.4-1.5c-0.9-0.4-1.7-1-2.5-1.6l4.4-1.2
		c6.3-1.7,9.8-2.7,12.1-3.4C32.6,83.5,33,83.4,33,83.4 M51,87.6L51,87.6c0.1,0.2-2.3,6.6-3.1,8.7c-0.2,0.5-0.3,0.6-0.4,0.6
		s-3.6-0.5-5.7-0.8c-3.6-0.6-9.6-1.6-11.1-1.9L30.3,94l2.2-0.5c4.6-1,6.8-1.6,9.1-2.3c2.9-0.9,5.7-2,8.4-3.2
		C50.3,87.9,50.6,87.7,51,87.6"/>
	<path class="st0" d="M40.3,2.4c-0.3,0-5.4,1.8-8.7,3.1c-3.5,1.3-6.9,3-10,5c-0.8,0.5-1.4,1.2-1.9,1.9c-0.1,0.2-0.1,0.3-0.1,0.5
		l1.9,1.8l4.6,1.5l10.9,2l12.5,2.1l0.1-1.1h-0.1L47.8,19l-0.3-0.6c-1.7-3-3.6-6.7-4.7-9.2c-0.8-1.9-1.5-3.8-2.1-5.8
		C40.4,2.4,40.4,2.4,40.3,2.4 M40,3.1L40,3.1c0,0,0.1,0.4,0.1,0.9c0.3,2.1,0.7,4.1,1.4,6.1c0.5,1.6,0.5,1.5-0.1,1.3
		c-1.4-0.4-8-1.5-12.8-2.2L27.2,9c-0.1-0.1,3.4-1.9,5-2.6C34.2,5.5,39.6,3.2,40,3.1 M26.1,9.6l0.6,0.2c4.9,1.4,9.9,2.4,15,2.9
		c0.5,0,0.9,0.1,0.9,0.1c-0.3,0.2-0.6,0.3-0.9,0.5c-2,1-4.3,2.3-5.9,3.3c-0.3,0.2-0.6,0.4-0.9,0.5l-0.7-0.1l-0.6-0.1l-1.5-1.4
		c-2.5-2.5-4.5-4.4-5.3-5.1L26.1,9.6z M25.6,10l2,2.5c1.1,1.4,2.2,2.8,2.5,3.1c0.2,0.2,0.3,0.4,0.4,0.6c-0.1,0-2.9-0.5-4.5-0.9
		s-2.2-0.5-3.2-0.8L22,14.2V14c0-1,1.2-2.4,3.3-3.9L25.6,10z M42.8,13.5c0.1,0,0.1,0.1,0.3,0.5c0.5,1.1,2,4,2.4,4.6
		c0.1,0.2,0.3,0.2-1.7-0.1c-4.9-0.8-6.5-1-6.5-1.1c0.1-0.1,0.2-0.2,0.3-0.2c1.6-0.9,3-1.9,4.4-3L42.8,13.5
		C42.8,13.5,42.8,13.5,42.8,13.5"/>
	<path class="st0" d="M19.6,12.3c-0.2,0.4-0.2,0.9,0,1.3c0.4,0.6,0.8,1.2,1.4,1.6c0,0,6.4,6.3,7.2,7.2c3.4,3.7,5.3,8.6,5.2,13.7
		c0.1,3.6-0.7,7.1-2.3,10.4c-3,6.5-9.3,13.8-19.1,21.8l1.4-0.5c1.6-1.1,3.3-2.1,5.1-3C26.3,60.6,34.2,57,42.4,54
		c13.5-5.1,35.7-11,48.3-13l1.3-0.2l-0.2-0.3c-0.9-1.4-1.8-2.8-2.9-4.1c-2.8-3.5-6.3-6.4-10.2-8.5c-5.6-3.2-13-5.6-22.2-7.5
		c-1.8-0.4-5.6-1-8.7-1.5c-6.6-1-10.9-1.7-15.6-2.5c-1.7-0.3-4.2-0.7-5.9-1.1c-1.3-0.3-2.6-0.6-3.8-1C21.4,14,19.9,13.6,19.6,12.3
		 M23.3,16c0.2,0,0.4,0.1,0.5,0.2c0.5,0.2,1.3,0.4,2.1,0.6l1.9,0.5l1.6,0.4c0.1,0.1,1.5,4.8,2,6.5c0.2,0.7,0.3,1.3,0.3,1.3
		c-0.1-0.2-0.3-0.4-0.4-0.5c-1.9-3.3-4.4-6.1-7.4-8.5C23.6,16.2,23.3,15.9,23.3,16 M30.4,17.9c0.3,0,0.5,0.1,0.8,0.1
		c2.5,0.5,6.8,1.4,9.7,1.9c0.3,0,0.6,0.1,0.9,0.2c-0.1,0.1-0.2,0.2-0.4,0.2c-0.5,0.2-2.4,1.4-3,1.8c-1.5,1-2.8,2-4.1,3.3
		c-0.4,0.4-0.8,0.8-0.8,0.8c-0.1-0.2-0.1-0.4-0.2-0.5c-0.7-2.4-1.5-4.8-2.6-7.1C30.6,18.2,30.4,17.9,30.4,17.9L30.4,17.9L30.4,17.9z
		 M42.9,20.3c0.3,0.5,0.4,1,0.5,1.6c0.5,2.2,0.8,4.4,0.7,6.6c0,0.6-0.1,1.2-0.1,1.3v0.1l-0.7-0.2c-1.5-0.5-4-1.2-6.2-1.8
		c-1.2-0.3-2.2-0.6-2.2-0.7c0.8-0.9,1.7-1.7,2.5-2.5C39.2,23.1,41,21.6,42.9,20.3 M43.9,20.4c0,0,6,1,8.7,1.5c2,0.4,4.9,1,5.1,1.1
		s-0.2,0.2-1.2,0.6c-3.3,1.4-6.5,3.1-9.5,5.1l-1.4,0.9c0,0,0-0.4,0-0.9c0-2.7-0.5-5.3-1.5-7.8C44,20.7,43.9,20.6,43.9,20.4
		 M59.2,23.4c-0.1,0.6-0.2,1.3-0.3,1.9c-0.9,2.9-2.1,5.7-3.6,8.3c-0.2,0.3-0.4,0.7-0.6,1c-0.3-0.1-0.6-0.3-0.9-0.5
		c-1.8-1.1-3.7-2-5.7-2.8c-0.6-0.2-1.1-0.5-1.1-0.5s4.5-3.1,7-4.6C56,25.1,59.2,23.3,59.2,23.4 M60.3,23.6c0.1,0,2.8,0.7,4.1,1.1
		c3.3,1,6.6,2.2,9.8,3.6l1.1,0.5l-0.7,0.2c-5.7,1.3-11.2,3-16.6,5.2l-0.8,0.3c0.1-0.3,0.2-0.5,0.3-0.7c1.5-3,2.4-6.3,2.8-9.6
		C60.3,23.9,60.3,23.7,60.3,23.6 M34.3,29.6c0,0,2,0.4,3.1,0.7c1.6,0.5,5.1,1.7,5.1,1.7s-0.4,0.3-0.8,0.8c-1.9,1.6-3.7,3.2-5.9,5.3
		c-0.7,0.6-1.2,1.1-1.2,1.1s0-0.1,0-0.2c0.3-2.9,0.3-5.8-0.2-8.7C34.3,30.1,34.3,29.8,34.3,29.6 M76.4,29.6c0,0-1,1.6-1.6,2.4
		c-0.9,1.3-2.1,2.9-5,6.5L66,43.3c-0.6,0.7-1,1.3-1.1,1.3c-0.1-0.2-0.3-0.4-0.4-0.6c-1.6-2.4-3.6-4.6-5.8-6.5
		c-0.4-0.4-0.9-0.8-1.1-0.9c-0.1-0.1-0.2-0.2-0.3-0.3c0,0,2.5-1.1,4.3-1.8c3.2-1.3,7.7-2.9,11-3.9c1.8-0.5,3.6-1.1,3.6-1 M77.4,30
		c0.3,0.1,0.6,0.2,0.8,0.4c3.5,2,6.7,4.4,9.6,7.2c0.8,0.8,2.7,2.7,2.6,2.7L89,40.4c-7.2,0.6-14.3,1.8-21.3,3.5l-1,0.2
		c0,0,0.5-0.6,1.2-1.2c3.7-3.3,6.6-7.2,8.8-11.6C77.1,30.6,77.4,30,77.4,30L77.4,30 M45.3,33.2c0.2,0,2.1,0.9,3.5,1.6
		s3.3,1.7,3.3,1.8s-0.7,0.4-1.5,0.8c-2.7,1.4-5,2.6-7.5,4.1c-0.7,0.4-1.3,0.8-1.3,0.8s0,0,0.3-0.8c1.3-2.5,2.3-5.2,2.9-7.9
		C45.2,33.4,45.3,33.2,45.3,33.2 M43.4,33.6c-0.2,0.9-0.5,1.9-0.8,2.8c-0.7,2-1.5,4-2.5,5.8c-0.2,0.4-0.6,1-0.8,1.3L39,44.1
		l-0.8-0.8c-0.8-0.8-1.7-1.5-2.7-2c-0.2-0.1-0.5-0.2-0.7-0.4c1.4-1.4,2.8-2.7,4.4-4C40.5,35.7,43.4,33.5,43.4,33.6 M54.9,38.2
		l0.7,0.5c1.7,1.1,3.4,2.4,5,3.7c0.8,0.7,2.4,2.1,2.7,2.4l0.2,0.2l-1.2,0.3c-6.6,1.8-11.7,3.5-17.7,5.7c-0.7,0.2-1.2,0.4-1.3,0.4
		s-0.2,0.1,1.3-1.3c3.6-3.3,6.9-7,9.7-11.1L54.9,38.2z M51.9,39c0,0-2,2.8-3.1,4.4c-1.4,1.9-3.9,5-5.7,7.1c-0.7,0.8-1.3,1.6-1.4,1.6
		s-0.1-0.2-0.1-0.5c0-1.8-0.4-3.6-1.2-5.2c-0.3-0.7-0.4-0.8-0.3-0.9c0.3-0.3,4.5-2.6,7.1-4.1C49.1,40.3,51.9,38.9,51.9,39
		 M33.7,43.5c0.3,0.1,0.5,0.2,0.8,0.4c0.9,0.5,1.7,1,2.5,1.7c-0.3,0.3-0.5,0.5-0.8,0.7c-1.4,1-3.5,2.6-4.6,3.5s-1.3,1-1.2,0.8
		c0.7-1.1,1.4-2.2,1.9-3.3c0.5-1,0.9-2,1.2-3C33.4,44,33.5,43.7,33.7,43.5 M38.5,47.3c0.1,0,0.2,0.1,0.5,0.7
		c0.8,1.3,1.4,2.7,1.6,4.2v0.3l-2,0.8C35.2,54.6,32,56,29.8,57c-0.6,0.3-1.7,0.8-2.4,1.2s-1.3,0.6-1.3,0.6s0.5-0.3,1-0.8
		c4-2.9,7.7-6.2,10.8-10C38.2,47.6,38.5,47.3,38.5,47.3L38.5,47.3 M36.3,47.8c-0.8,1.1-1.7,2.1-2.7,3.1c-2.7,2.8-5.7,5.2-9,7.2
		l-0.9,0.5c-0.1,0,0-0.1,1.5-1.7c0.9-1,1.7-1.9,2.5-3c0.4-0.5,0.9-1,1.4-1.4C31.3,51,36.2,47.8,36.3,47.8"/>
</g>
</svg>
