<svg id="Capa_1" data-name="Capa 1" xmlns="http://www.w3.org/2000/svg" xmlns:xlink="http://www.w3.org/1999/xlink" viewBox="0 0 120 65"><defs><style>.cls-1{fill:none;}.cls-2{clip-path:url(#clip-path);}.cls-3{fill:#fff;}</style><clipPath id="clip-path"><rect class="cls-1" x="5" y="14" width="110" height="41.76"/></clipPath></defs><title>uam</title><g id="Ilustración_10" data-name="Ilustración 10"><g class="cls-2"><g class="cls-2"><path class="cls-3" d="M104.25,14s-5.87-.74-10.3,5.62c-1.07-2.76-3.6-5.83-9.59-5.62,0,0-5.82-.74-10.24,5.54C73,16.83,70.5,13.82,64.58,14c0,0-5.79-.09-8,3.17,3.17,1.31,3.08,6.07,3.08,6.07V46H74.94V25.9a2.61,2.61,0,0,1,2.52-2.36s2.33-.28,2.43,3V46H94.73V26.64c0-.66.29-3,2.61-3.09,0,0,2.33-.28,2.43,3V46h14.85V23.83S115,13.65,104.25,14"/><path class="cls-3" d="M27.51,37c-.16-10.75,15-10.23,15-10.23h4V22.92c0-1.92-2.65-1.87-2.65-1.87C41,21.05,41,24.27,41,24.27H28.86c0-5.39,4.22-7.94,6.66-9H25V35a2.77,2.77,0,0,1-2.59,2.79s-2.33.28-2.43-3V15.31H5.15V37.52s-.38,10.17,10.36,9.8c0,0,5.2.65,9.5-4.57v3.34h8.79a8.68,8.68,0,0,1-6.3-9"/><path class="cls-3" d="M42.58,46.09h4.19V42.91a10.89,10.89,0,0,1-4.19,3.18"/><path class="cls-3" d="M43,32.58v0a3.3,3.3,0,1,0,3.62,3.62h0V32.58Z"/><path class="cls-3" d="M5,49.36h.62v4a4.68,4.68,0,0,0,0,.69,1.46,1.46,0,0,0,.12.4,1.3,1.3,0,0,0,.49.56,1.36,1.36,0,0,0,.73.2,1.19,1.19,0,0,0,1.05-.48,2.64,2.64,0,0,0,.34-1.5V49.36H9v4a2.85,2.85,0,0,1-.48,1.82,1.78,1.78,0,0,1-1.47.6,1.92,1.92,0,0,1-1.55-.59A2.8,2.8,0,0,1,5,53.34Z"/><polygon class="cls-3" points="14.8 54.88 14.73 49.36 15.34 49.36 15.34 55.63 14.6 55.63 11.15 50.1 11.23 55.63 10.62 55.63 10.62 49.36 11.36 49.36 14.8 54.88"/><rect class="cls-3" x="17.06" y="49.36" width="0.62" height="6.27"/><polygon class="cls-3" points="18.64 49.36 19.26 49.36 21.25 54.7 23.24 49.36 23.85 49.36 21.5 55.63 21.01 55.63 18.64 49.36"/><polygon class="cls-3" points="25.48 52.16 28.12 52.16 28.12 52.79 25.48 52.79 25.48 55.02 28.12 55.02 28.12 55.63 24.86 55.63 24.86 49.35 28.12 49.35 28.12 49.97 25.48 49.97 25.48 52.16"/><path class="cls-3" d="M30.36,50v5.66h-.61V49.36h1.69a3.83,3.83,0,0,1,.89.08,1.8,1.8,0,0,1,1.21,1,2.07,2.07,0,0,1,.22.93,1.91,1.91,0,0,1-.43,1.25,1.5,1.5,0,0,1-1.08.57l1.52,2.45H33l-1.86-3h.59a1.35,1.35,0,0,0,1-.35,1.17,1.17,0,0,0,.37-.9,1.55,1.55,0,0,0-.11-.6,1.32,1.32,0,0,0-.34-.47A1.07,1.07,0,0,0,32.2,50a4.05,4.05,0,0,0-.93-.07Z"/><path class="cls-3" d="M35,53.84h.59a1.39,1.39,0,0,0,.33.93,1.05,1.05,0,0,0,.82.34,1.13,1.13,0,0,0,.87-.34,1.3,1.3,0,0,0,.32-.93q0-.85-1.31-1.29l-.15-.05a2.2,2.2,0,0,1-1-.6,1.43,1.43,0,0,1-.3-.95,1.68,1.68,0,0,1,.47-1.23,1.61,1.61,0,0,1,1.21-.48,1.47,1.47,0,0,1,1.12.44,1.88,1.88,0,0,1,.46,1.23h-.58a1.32,1.32,0,0,0-.31-.79.9.9,0,0,0-.69-.28,1,1,0,0,0-.76.3,1.07,1.07,0,0,0-.29.78,1,1,0,0,0,.09.43.93.93,0,0,0,.28.33,2.93,2.93,0,0,0,.76.33l.49.17a1.91,1.91,0,0,1,.88.61,1.6,1.6,0,0,1,.27,1,2.12,2.12,0,0,1-.5,1.47,1.68,1.68,0,0,1-1.32.56,1.6,1.6,0,0,1-1.25-.53A2,2,0,0,1,35,53.84"/><rect class="cls-3" x="39.95" y="49.36" width="0.62" height="6.27"/><path class="cls-3" d="M42.29,49.36h1.79a4.49,4.49,0,0,1,1.24.15,2.4,2.4,0,0,1,.88.47A3.1,3.1,0,0,1,47,51.08a3.35,3.35,0,0,1,.3,1.4A3.46,3.46,0,0,1,47,54a2.89,2.89,0,0,1-.93,1.11,2.62,2.62,0,0,1-.86.4,6.09,6.09,0,0,1-1.42.12H42.29Zm.61.6V55h1.28A2.44,2.44,0,0,0,46,54.37a2.64,2.64,0,0,0,.65-1.9,2.89,2.89,0,0,0-.22-1.14,2.34,2.34,0,0,0-.63-.87,1.84,1.84,0,0,0-.69-.38A4.07,4.07,0,0,0,44,50Z"/><path class="cls-3" d="M48.58,55.63h-.65l2.43-6.27h.74l2.43,6.27h-.66l-.75-2H49.32ZM51.9,53.1l-1.19-3.15L49.54,53.1Z"/><path class="cls-3" d="M54.55,49.36h1.79a4.49,4.49,0,0,1,1.24.15,2.4,2.4,0,0,1,.88.47,3.1,3.1,0,0,1,.84,1.11,3.36,3.36,0,0,1,.3,1.4A3.46,3.46,0,0,1,59.26,54a2.88,2.88,0,0,1-.93,1.11,2.61,2.61,0,0,1-.86.4,6.08,6.08,0,0,1-1.42.12H54.55Zm.61.6V55h1.28a2.44,2.44,0,0,0,1.85-.67,2.64,2.64,0,0,0,.65-1.9,2.89,2.89,0,0,0-.22-1.14,2.34,2.34,0,0,0-.63-.87,1.84,1.84,0,0,0-.69-.38,4.07,4.07,0,0,0-1.1-.11Z"/><path class="cls-3" d="M62.75,49.48l-2.31,5.93h1.2l.63-1.63h2l.62,1.63h1.23l-2.32-5.93Zm1.06,3.19H62.68l.57-1.52Z"/><polygon class="cls-3" points="70.4 53.53 68.88 49.48 67.41 49.48 67.41 55.41 68.51 55.41 68.46 51.29 70 55.41 70.8 55.41 72.34 51.28 72.29 55.41 73.37 55.41 73.37 49.48 71.92 49.48 70.4 53.53"/><polygon class="cls-3" points="75.47 55.41 78.7 55.41 78.7 54.32 76.6 54.32 76.6 52.95 78.7 52.95 78.7 51.9 76.6 51.9 76.6 50.55 78.7 50.55 78.7 49.48 75.47 49.48 75.47 55.41"/><path class="cls-3" d="M84.31,52.71a1.74,1.74,0,0,0,.49-1.26A1.86,1.86,0,0,0,84.22,50a2.44,2.44,0,0,0-1.65-.51H80.8v5.93h1.13V53.14l1.62,2.27H85l-1.62-2.19a1.75,1.75,0,0,0,1-.51m-.62-1.27a.78.78,0,0,1-.34.7,2.18,2.18,0,0,1-1.17.25h-.26V50.55h.45a1.83,1.83,0,0,1,1,.22.76.76,0,0,1,.29.67"/><rect class="cls-3" x="86.67" y="49.48" width="1.13" height="5.93"/><path class="cls-3" d="M94,53.75a1.49,1.49,0,0,1-.58.48,1.85,1.85,0,0,1-1.51,0,1.91,1.91,0,0,1-.62-.43,1.78,1.78,0,0,1-.39-.62,2.2,2.2,0,0,1-.14-.77,2,2,0,0,1,.15-.74,2,2,0,0,1,.42-.64,1.75,1.75,0,0,1,.58-.4,1.91,1.91,0,0,1,1.51,0,1.59,1.59,0,0,1,.6.51l0,.07h1.28L95.3,51a2.71,2.71,0,0,0-1-1.23,3.12,3.12,0,0,0-2.73-.21,3,3,0,0,0-1,.64,3.2,3.2,0,0,0-.69,1,3,3,0,0,0-.24,1.17,3.31,3.31,0,0,0,.19,1.14,2.91,2.91,0,0,0,.57,1,3,3,0,0,0,1,.76,3,3,0,0,0,1.23.26,3,3,0,0,0,1.58-.41,2.84,2.84,0,0,0,1.07-1.19l.11-.23H94.07Z"/><path class="cls-3" d="M98.75,49.48l-2.31,5.93h1.2l.63-1.63h2l.62,1.63h1.23l-2.32-5.93Zm1.06,3.19H98.68l.58-1.52Z"/><polygon class="cls-3" points="106.99 53.34 104.49 49.48 103.41 49.48 103.41 55.41 104.54 55.41 104.5 51.43 107.06 55.41 108.08 55.41 108.08 49.48 106.96 49.48 106.99 53.34"/><path class="cls-3" d="M112.68,49.48h-1l-2.31,5.93h1.2l.63-1.63h2l.62,1.63H115Zm.06,3.19H111.6l.57-1.52Z"/></g></g></g></svg>