<svg id="Capa_1" data-name="Capa 1" xmlns="http://www.w3.org/2000/svg" xmlns:xlink="http://www.w3.org/1999/xlink" viewBox="0 0 120 65"><defs><style>.cls-1{fill:none;}.cls-2{clip-path:url(#clip-path);}.cls-3{fill:#fff;}</style><clipPath id="clip-path"><rect class="cls-1" x="4" y="12.83" width="113" height="44.23"/></clipPath></defs><title>ucenfotec</title><g id="Ilustración_11" data-name="Ilustración 11"><g class="cls-2"><rect class="cls-3" x="37.9" y="40.23" width="1.12" height="11.2" transform="translate(-21.35 44.53) rotate(-48.75)"/><rect class="cls-3" x="35.36" y="42.58" width="1.12" height="11.2" transform="translate(-21.65 30.95) rotate(-36.64)"/><rect class="cls-3" x="32.37" y="44.34" width="1.12" height="11.2" transform="translate(-17.8 18.25) rotate(-24.6)"/><rect class="cls-3" x="29.09" y="45.45" width="1.12" height="11.2" transform="translate(-10.44 7.71) rotate(-12.62)"/><rect class="cls-3" x="25.65" y="45.85" width="1.12" height="11.2" transform="translate(-0.51 0.26) rotate(-0.57)"/><rect class="cls-3" x="17.16" y="50.56" width="11.2" height="1.12" transform="translate(-31.88 63.18) rotate(-78.45)"/><rect class="cls-3" x="14" y="49.57" width="11.2" height="1.12" transform="translate(-34.22 50.87) rotate(-69.43)"/><rect class="cls-3" x="10.84" y="47.8" width="11.2" height="1.12" transform="translate(-32.46 33.63) rotate(-54.45)"/><rect class="cls-3" x="8.25" y="45.5" width="11.2" height="1.12" transform="translate(-27.41 21.35) rotate(-42.34)"/><rect class="cls-3" x="6.2" y="42.71" width="11.2" height="1.12" transform="translate(-20.2 11.85) rotate(-30.27)"/><rect class="cls-3" x="4.78" y="39.55" width="11.2" height="1.12" transform="translate(-12.06 5.28) rotate(-18.28)"/><rect class="cls-3" x="4.04" y="36.17" width="11.2" height="1.12" transform="translate(-3.94 1.27) rotate(-6.25)"/><rect class="cls-3" x="9.07" y="27.66" width="1.12" height="11.2" transform="translate(-24.44 39.46) rotate(-84.16)"/><rect class="cls-3" x="9.79" y="24.27" width="1.12" height="11.2" transform="translate(-21.26 30.46) rotate(-71.96)"/><rect class="cls-3" x="11.19" y="21.1" width="1.12" height="11.2" transform="matrix(0.5, -0.87, 0.87, 0.5, -17.25, 23.52)"/><rect class="cls-3" x="13.22" y="18.29" width="1.12" height="11.2" transform="translate(-13.2 18.17) rotate(-48.04)"/><rect class="cls-3" x="15.79" y="15.98" width="1.12" height="11.2" transform="translate(-9.55 13.71) rotate(-35.94)"/><rect class="cls-3" x="18.8" y="14.25" width="1.12" height="11.2" transform="translate(-6.39 9.56) rotate(-23.93)"/><rect class="cls-3" x="22.09" y="13.18" width="1.12" height="11.2" transform="translate(-3.39 5.09) rotate(-11.93)"/><rect class="cls-3" x="20.5" y="17.87" width="11.2" height="1.12" transform="translate(7.61 44.49) rotate(-89.87)"/><rect class="cls-3" x="23.94" y="18.24" width="11.2" height="1.12" transform="translate(4.9 43.69) rotate(-77.75)"/><rect class="cls-3" x="27.23" y="19.33" width="11.2" height="1.12" transform="translate(1.12 41.51) rotate(-65.48)"/><rect class="cls-3" x="30.22" y="21.07" width="11.2" height="1.12" transform="translate(-2.8 37.73) rotate(-53.75)"/><rect class="cls-3" x="32.79" y="23.4" width="11.2" height="1.12" transform="translate(-6.22 31.56) rotate(-41.63)"/><g class="cls-2"><path class="cls-3" d="M51.74,32.28H50v-1h0a2.24,2.24,0,0,1-2.09,1.2c-1.35,0-2.33-.81-2.33-2.65V25.08h1.8v4.47c0,1.11.62,1.33,1.17,1.33s1.39-.35,1.39-1.64V25.08h1.8Z"/><path class="cls-3" d="M59.75,32.28h-1.8V27.91c0-.53,0-1.42-1.17-1.42-.8,0-1.42.57-1.42,1.66v4.13h-1.8v-7.2h1.73v1.06h0a2.2,2.2,0,0,1,2.06-1.24,2.24,2.24,0,0,1,2.38,2.41Z"/><path class="cls-3" d="M63.39,24.23h-1.8V22.47h1.8Zm0,8.05h-1.8v-7.2h1.8Z"/><polygon class="cls-3" points="68.92 32.28 67.03 32.28 64.57 25.08 66.58 25.08 68 30.38 68.02 30.38 69.48 25.08 71.4 25.08 68.92 32.28"/><path class="cls-3" d="M78.15,30.17a3,3,0,0,1-3,2.3c-1.93,0-3.42-1-3.42-3.94,0-.87.28-3.64,3.29-3.64,1.35,0,3.22.68,3.22,4v.34h-4.7c.05.54.15,1.76,1.61,1.76a1.16,1.16,0,0,0,1.16-.79ZM76.37,28c-.1-1.16-.81-1.52-1.39-1.52-.85,0-1.3.57-1.4,1.52Z"/><path class="cls-3" d="M79.53,25.08h1.73v1.25h0c.37-.73.79-1.43,1.88-1.43l.35,0v1.92a3.21,3.21,0,0,0-.52,0,1.5,1.5,0,0,0-1.66,1.72v3.75h-1.8Z"/><path class="cls-3" d="M88.36,27.27c-.08-.46-.23-.95-1.21-.95S86,26.72,86,27c0,1.14,4.29.31,4.29,3,0,2.1-1.93,2.48-3,2.48-1.56,0-3.25-.57-3.3-2.49h1.86c0,.61.36,1.06,1.5,1.06.93,0,1.15-.47,1.15-.74,0-1.2-4.25-.3-4.25-3,0-1.06.63-2.41,2.77-2.41,1.34,0,2.94.35,3.08,2.38Z"/><path class="cls-3" d="M93.62,24.23h-1.8V22.47h1.8Zm0,8.05h-1.8v-7.2h1.8Z"/><path class="cls-3" d="M101.73,32.28H100v-.91h0a2.15,2.15,0,0,1-2,1.1c-2,0-2.89-1.89-2.89-3.87,0-2.49,1.34-3.71,2.85-3.71a2.18,2.18,0,0,1,2,1.12h0V22.56h1.8ZM98.4,30.91c1.15,0,1.6-1,1.6-2.07s-.31-2.31-1.55-2.31-1.53,1.07-1.53,2.21c0,.85.32,2.18,1.48,2.18"/><path class="cls-3" d="M109,30.87c0,.85.18,1,.4,1.12v.28h-1.95a3.3,3.3,0,0,1-.17-.85,2.74,2.74,0,0,1-2.22,1,2,2,0,0,1-2.09-2.1,2.16,2.16,0,0,1,2-2.3l1.62-.26c.28,0,.63-.16.63-.57,0-.8-.72-.84-1.19-.84a1,1,0,0,0-1.11,1h-1.74c.21-2.21,1.66-2.52,3.07-2.52,1,0,2.73.31,2.73,2.08Zm-1.77-2.1a2.55,2.55,0,0,1-1.22.39c-.67.12-1.22.3-1.22,1.08a.8.8,0,0,0,.84.87,1.52,1.52,0,0,0,1.61-1.42Z"/><path class="cls-3" d="M117,32.28h-1.77v-.91h0a2.15,2.15,0,0,1-2,1.1c-2,0-2.89-1.89-2.89-3.87,0-2.49,1.34-3.71,2.85-3.71a2.18,2.18,0,0,1,2,1.12h0V22.56H117Zm-3.32-1.37c1.15,0,1.6-1,1.6-2.07s-.31-2.31-1.55-2.31-1.53,1.07-1.53,2.21c0,.85.32,2.18,1.48,2.18"/><path class="cls-3" d="M51.46,42.06a3,3,0,0,1-3.13,2.81c-2.58,0-3.17-2.07-3.17-3.59,0-2.33,1-4,3.29-4a2.85,2.85,0,0,1,3,2.76H49.64c-.08-.46-.33-1.16-1.11-1.16h-.09C47.31,38.89,47,40.08,47,41s0,2.34,1.39,2.34a1.3,1.3,0,0,0,1.22-1.26Z"/><path class="cls-3" d="M58.73,42.57a3,3,0,0,1-3,2.3c-1.93,0-3.42-1-3.42-3.94,0-.87.28-3.64,3.29-3.64,1.35,0,3.22.68,3.22,4v.34H54.1c.05.54.15,1.76,1.61,1.76a1.16,1.16,0,0,0,1.16-.79ZM57,40.36c-.1-1.16-.81-1.52-1.39-1.52-.85,0-1.3.57-1.4,1.52Z"/><path class="cls-3" d="M66.32,44.68h-1.8V40.31c0-.53,0-1.42-1.17-1.42-.8,0-1.42.57-1.42,1.66v4.13h-1.8v-7.2h1.73v1.06h0a2.2,2.2,0,0,1,2.06-1.24,2.24,2.24,0,0,1,2.38,2.41Z"/><path class="cls-3" d="M70.2,44.68H68.4V38.83h-1V37.48h1V36.9a1.79,1.79,0,0,1,2-2.06c.53,0,.77,0,.93,0V36.4h-.5c-.62,0-.63.2-.63.8v.28h1.17v1.35H70.2Z"/><path class="cls-3" d="M75.37,44.87c-1.84,0-3.51-1.19-3.51-3.79s1.66-3.79,3.51-3.79,3.51,1.19,3.51,3.79-1.66,3.79-3.51,3.79m0-6c-1.39,0-1.65,1.27-1.65,2.19s.26,2.19,1.65,2.19S77,42,77,41.08s-.26-2.19-1.65-2.19"/><path class="cls-3" d="M82.28,37.48H83.4v1.35H82.28v3.91c0,.42,0,.58.75.58l.37,0v1.43l-.85,0h-.23c-1.56,0-1.84-.62-1.84-1.56V38.83h-.93V37.48h.93V35.53h1.8Z"/><path class="cls-3" d="M90.36,42.57a3,3,0,0,1-3,2.3c-1.93,0-3.42-1-3.42-3.94,0-.87.28-3.64,3.29-3.64,1.35,0,3.22.68,3.22,4v.34h-4.7c.05.54.15,1.76,1.61,1.76a1.16,1.16,0,0,0,1.16-.79Zm-1.78-2.21c-.1-1.16-.81-1.52-1.39-1.52-.85,0-1.3.57-1.4,1.52Z"/><path class="cls-3" d="M97.65,42.06a3,3,0,0,1-3.13,2.81c-2.58,0-3.17-2.07-3.17-3.59,0-2.33,1-4,3.29-4a2.85,2.85,0,0,1,3,2.76H95.84c-.08-.46-.33-1.16-1.11-1.16h-.09c-1.13,0-1.43,1.19-1.43,2.08s0,2.34,1.39,2.34a1.3,1.3,0,0,0,1.22-1.26Z"/><rect class="cls-3" x="99.63" y="43.41" width="7.17" height="1.32"/></g></g></g></svg>