<?xml version="1.0" encoding="utf-8"?>
<!-- Generator: Adobe Illustrator 22.0.0, SVG Export Plug-In . SVG Version: 6.00 Build 0)  -->
<svg version="1.1" xmlns="http://www.w3.org/2000/svg" xmlns:xlink="http://www.w3.org/1999/xlink" x="0px" y="0px"
	 viewBox="0 0 100 100" style="enable-background:new 0 0 100 100;" xml:space="preserve">
<style type="text/css">
	.st0{fill:url(#SVGID_1_);}
	.st1{fill:#FFFFFF;}
</style>
<g id="Capa_1">
	<title>ux</title>
</g>
<g id="Capa_2">
	<g>
		<linearGradient id="SVGID_1_" gradientUnits="userSpaceOnUse" x1="17.1195" y1="17.1195" x2="82.8805" y2="82.8805">
			<stop  offset="0" style="stop-color:#0059EA"/>
			<stop  offset="1" style="stop-color:#00FFC3"/>
		</linearGradient>
		<circle class="st0" cx="50" cy="50" r="46.5"/>
		<g>
			<path class="st1" d="M17.9,50.6V40.1h0.8v10.3c0,4.6,2.2,6,4.7,6c2.5,0,4.8-1.4,4.8-6V40.1H29v10.5c0,5.2-2.9,6.6-5.6,6.6
				S17.9,55.8,17.9,50.6z"/>
			<path class="st1" d="M36.8,48.2l-4.7-8.1h0.9l3,5.2c0.5,0.8,0.8,1.3,1.4,2.2h0.1c0.5-0.9,0.8-1.5,1.3-2.2l3-5.2h0.8l-4.7,8.2
				l5.1,8.7h-0.9l-3.1-5.4c-0.5-0.8-1-1.6-1.6-2.6h-0.1c-0.6,1-1,1.8-1.5,2.6l-3.1,5.4h-0.8L36.8,48.2z"/>
			<path class="st1" d="M56.7,38.8h0.8L49.3,61h-0.8L56.7,38.8z"/>
			<path class="st1" d="M65.1,50.6V40.1h0.8v10.3c0,4.6,2.2,6,4.7,6c2.5,0,4.8-1.4,4.8-6V40.1h0.8v10.5c0,5.2-2.9,6.6-5.6,6.6
				C67.9,57.2,65.1,55.8,65.1,50.6z"/>
			<path class="st1" d="M81.2,40.1H82v16.8h-0.8V40.1z"/>
		</g>
	</g>
</g>
</svg>
